<?xml version="1.0" standalone="no"?>
<!DOCTYPE svg PUBLIC "-//W3C//DTD SVG 20010904//EN"
 "http://www.w3.org/TR/2001/REC-SVG-20010904/DTD/svg10.dtd">
<svg version="1.0" xmlns="http://www.w3.org/2000/svg"
 width="194.000000pt" height="194.000000pt" viewBox="0 0 194.000000 194.000000"
 preserveAspectRatio="xMidYMid meet">
<metadata>
Created by potrace 1.14, written by Peter Selinger 2001-2017
</metadata>
<g transform="translate(0.000000,194.000000) scale(0.100000,-0.100000)"
fill="#000000" stroke="none">
<path d="M730 1875 c0 -2 14 -46 30 -97 54 -164 53 -168 -41 -168 -50 0 -62 5
-127 49 -74 52 -111 52 -51 1 74 -62 131 -88 202 -93 37 -2 69 -6 71 -8 2 -2
22 -43 44 -90 27 -60 57 -105 96 -145 63 -67 83 -103 89 -159 5 -48 -10 -82
-57 -123 -36 -32 -73 -36 -87 -9 -16 28 -168 234 -192 260 -14 15 -34 27 -44
28 -10 0 -27 2 -38 4 -11 3 -40 7 -65 10 -107 13 -111 16 -264 150 -49 43 -56
46 -76 40 -24 -8 -30 0 107 -126 84 -77 132 -107 190 -119 131 -26 142 -35
219 -192 63 -125 92 -207 101 -275 6 -54 7 -71 4 -106 -1 -9 -16 -13 -48 -13
l-48 1 0 132 0 132 -45 29 c-25 15 -72 43 -106 62 l-61 33 -99 -58 c-54 -32
-102 -63 -105 -68 -4 -5 -6 -63 -5 -129 0 -66 -2 -125 -6 -131 -8 -13 -132 20
-215 58 -38 17 -53 20 -53 11 0 -15 202 -122 245 -130 17 -3 85 -11 153 -18
117 -11 122 -13 122 -35 0 -16 -6 -23 -20 -23 -11 0 -20 -4 -20 -10 0 -5 6
-10 14 -10 8 0 16 -6 18 -12 6 -17 -5 -59 -14 -59 -18 2 -19 0 -4 -15 20 -20
21 -44 1 -44 -8 0 -15 -4 -15 -10 0 -5 5 -10 10 -10 6 0 10 -13 10 -30 0 -23
-4 -30 -20 -30 -11 0 -20 -4 -20 -10 0 -5 9 -10 19 -10 15 0 19 -6 16 -26 -1
-15 -9 -31 -16 -36 -11 -7 -11 -11 -1 -15 6 -2 12 -13 12 -23 0 -13 -11 -19
-46 -25 -140 -21 -384 -91 -391 -112 -3 -7 11 -8 42 -2 25 5 67 11 93 14 26 3
58 8 72 10 14 2 59 7 100 11 41 3 93 8 115 10 237 22 749 22 887 -1 13 -2 57
-6 98 -10 41 -3 120 -12 174 -20 168 -25 180 -15 36 30 -113 35 -209 58 -315
75 -104 16 -141 20 -179 22 -20 1 -40 6 -45 12 -24 29 -55 176 -65 306 -6 76
32 122 130 156 47 16 60 17 150 5 55 -8 108 -15 119 -17 95 -18 132 -15 198
14 76 35 136 74 191 126 58 55 33 66 -35 15 -57 -44 -153 -92 -205 -103 -20
-4 -80 4 -170 25 -76 17 -145 32 -151 32 -28 1 -8 16 104 78 64 35 127 73 139
84 24 22 99 183 90 192 -10 10 -31 -14 -75 -85 -42 -67 -44 -68 -154 -119
-280 -131 -358 -165 -363 -161 -6 7 -10 149 -4 153 4 3 10 18 13 34 10 48 78
103 204 165 120 59 213 89 314 100 151 18 271 59 254 87 -3 4 -22 1 -43 -8
-81 -34 -357 -57 -367 -31 -3 7 -7 35 -9 61 -5 67 15 99 117 197 81 78 99 100
78 100 -8 0 -153 -122 -205 -173 -31 -30 -56 -100 -56 -157 0 -25 -7 -43 -22
-57 -29 -26 -159 -76 -184 -71 -27 5 -88 149 -87 207 0 41 5 48 78 120 l77 76
-5 73 c-3 43 -12 84 -22 99 -23 35 -30 22 -15 -31 24 -88 4 -130 -106 -222
-36 -30 -54 -54 -63 -84 -14 -46 -18 -45 -74 15 -39 41 -46 56 -123 256 -36
96 -71 180 -76 187 -10 12 -28 17 -28 7z m-80 -1080 l0 -105 -62 0 -63 0 2 97
c1 54 2 101 2 106 1 4 28 7 61 7 l60 0 0 -105z m30 -207 c0 -25 -16 -35 -50
-33 -28 1 -36 6 -38 23 -3 20 1 22 42 22 30 0 46 -4 46 -12z m90 -1 c19 -3 43
-8 52 -12 43 -18 44 -166 2 -303 -14 -45 -20 -52 -43 -53 -14 -1 -43 -2 -63
-4 -21 -2 -40 1 -44 6 -3 5 4 9 15 9 12 0 21 5 21 10 0 6 -7 10 -15 10 -17 0
-21 35 -5 45 8 5 7 11 0 20 -14 17 -9 50 8 51 25 3 27 6 8 13 -26 10 -29 61
-4 61 10 0 18 5 18 10 0 6 -7 10 -16 10 -12 0 -14 9 -12 38 2 23 8 36 16 35
17 -4 15 14 -3 21 -12 4 -14 10 -5 25 6 11 16 18 23 16 6 -2 28 -6 47 -8z
m-102 -81 c4 -35 -7 -43 -53 -38 -30 4 -35 8 -35 31 0 36 7 42 49 38 31 -2 36
-6 39 -31z m-8 -86 c0 -29 -1 -30 -37 -24 -52 8 -56 12 -44 52 1 1 19 2 41 2
38 0 40 -2 40 -30z m-22 -46 c15 -4 22 -14 22 -30 0 -22 -4 -24 -45 -24 -43 0
-45 1 -45 30 0 32 16 37 68 24z m-10 -73 c17 -1 22 -7 22 -27 0 -23 -3 -25
-42 -22 -35 2 -43 7 -44 23 -1 28 4 34 24 30 9 -2 27 -4 40 -4z m22 -80 c0
-10 -34 -21 -67 -21 -14 0 -23 6 -23 15 0 11 12 15 45 15 25 0 45 -4 45 -9z"/>
<path d="M1034 1852 c-18 -12 -32 -44 -27 -63 7 -24 18 -24 44 2 30 30 16 84
-17 61z"/>
<path d="M634 1808 c11 -59 85 -100 94 -53 8 38 -39 85 -85 85 -12 0 -14 -7
-9 -32z"/>
<path d="M862 1808 c-11 -45 -4 -83 24 -113 31 -33 62 -33 75 1 13 37 -4 87
-42 119 -39 32 -47 32 -57 -7z"/>
<path d="M1312 1792 c-27 -21 -42 -90 -22 -102 16 -10 49 5 67 29 7 9 13 33
13 54 0 42 -19 49 -58 19z"/>
<path d="M506 1781 c-15 -24 30 -61 75 -61 30 0 36 30 10 52 -24 19 -76 25
-85 9z"/>
<path d="M1103 1770 c-38 -23 -60 -55 -69 -98 -19 -93 49 -122 105 -44 24 35
35 101 22 136 -12 31 -17 32 -58 6z"/>
<path d="M1440 1738 c-44 -47 -53 -110 -20 -146 17 -18 25 -20 40 -12 43 23
62 100 37 149 -17 34 -32 36 -57 9z"/>
<path d="M660 1685 c0 -25 44 -64 57 -51 21 21 2 55 -39 69 -14 5 -18 1 -18
-18z"/>
<path d="M327 1618 c-12 -66 16 -133 65 -159 30 -16 68 -3 70 24 4 67 -20 120
-70 150 -44 25 -59 22 -65 -15z"/>
<path d="M1305 1590 c-11 -52 44 -117 74 -87 26 26 1 82 -46 106 -19 10 -22 8
-28 -19z"/>
<path d="M514 1585 c-9 -36 3 -73 27 -86 17 -9 23 -8 30 2 15 24 10 68 -11 89
-27 27 -38 25 -46 -5z"/>
<path d="M951 1583 c-26 -66 28 -142 59 -84 14 28 12 58 -6 86 -21 33 -39 32
-53 -2z"/>
<path d="M1656 1541 c-24 -14 -39 -44 -28 -55 7 -8 46 -8 67 0 8 4 22 19 30
34 14 27 14 28 -15 32 -16 2 -40 -2 -54 -11z"/>
<path d="M632 1514 c-25 -17 -30 -64 -7 -64 20 0 50 35 51 60 2 24 -14 25 -44
4z"/>
<path d="M729 1471 c-16 -53 -4 -105 28 -131 26 -20 27 -20 44 -3 21 22 31 77
19 108 -11 28 -49 65 -66 65 -7 0 -18 -18 -25 -39z"/>
<path d="M160 1464 c0 -15 12 -38 31 -56 28 -28 32 -30 46 -15 30 30 -17 97
-68 97 -5 0 -9 -12 -9 -26z"/>
<path d="M1215 1470 c-50 -21 -91 -88 -67 -112 18 -18 80 -13 109 9 35 25 67
79 59 98 -6 17 -67 20 -101 5z"/>
<path d="M510 1450 c-28 -17 18 -80 61 -82 57 -2 64 14 27 56 -24 27 -66 39
-88 26z"/>
<path d="M1760 1439 c-39 -8 -90 -58 -86 -85 5 -30 30 -39 73 -26 40 13 68 42
78 84 8 30 -12 38 -65 27z"/>
<path d="M1568 1414 c-55 -29 -72 -114 -24 -114 44 0 84 44 93 101 4 25 1 29
-19 29 -13 -1 -35 -7 -50 -16z"/>
<path d="M1319 1355 c-36 -19 -52 -58 -34 -82 11 -14 18 -16 32 -7 27 16 47
63 37 84 -8 17 -12 17 -35 5z"/>
<path d="M266 1324 c-18 -48 12 -124 58 -146 37 -16 56 -4 56 37 0 48 -24 91
-60 110 -37 19 -46 19 -54 -1z"/>
<path d="M98 1314 c-15 -8 -32 -23 -37 -33 -9 -16 -5 -21 21 -34 41 -20 86
-13 117 17 24 25 24 26 6 46 -21 24 -68 26 -107 4z"/>
<path d="M805 1292 l-29 -15 23 -18 c37 -30 101 -23 101 11 0 16 -20 29 -56
36 -5 1 -23 -5 -39 -14z"/>
<path d="M1197 1272 c-20 -22 -22 -52 -4 -52 19 0 47 33 47 53 0 22 -23 22
-43 -1z"/>
<path d="M473 1224 c-8 -21 17 -65 36 -62 23 5 26 36 5 59 -21 23 -33 24 -41
3z"/>
<path d="M918 1216 c-25 -35 -31 -71 -18 -110 20 -61 75 -59 86 2 11 53 8 68
-16 102 -26 36 -30 36 -52 6z"/>
<path d="M1787 1192 c-29 -18 -43 -51 -33 -78 16 -42 81 22 68 68 -7 27 -7 27
-35 10z"/>
<path d="M78 1174 c-8 -7 18 -83 35 -105 21 -28 81 -59 114 -59 51 0 63 9 63
45 0 40 -35 86 -84 109 -33 15 -116 22 -128 10z"/>
<path d="M570 1160 c0 -29 27 -78 49 -90 51 -27 83 -2 62 48 -22 52 -111 85
-111 42z"/>
<path d="M403 1159 c-30 -11 -55 -52 -51 -85 8 -66 88 -11 88 60 0 30 -8 36
-37 25z"/>
<path d="M1490 1159 c-24 -10 -40 -26 -40 -42 0 -4 14 -16 31 -26 23 -14 39
-17 65 -11 68 15 83 49 34 75 -33 17 -54 18 -90 4z"/>
<path d="M1856 1124 c-14 -15 -26 -34 -27 -43 0 -9 -2 -27 -3 -41 -4 -30 12
-67 30 -74 55 -21 95 85 59 154 -19 37 -25 37 -59 4z"/>
<path d="M1400 1068 c-8 -13 -18 -30 -21 -38 -7 -18 9 -70 22 -70 20 0 49 42
49 69 0 61 -23 79 -50 39z"/>
<path d="M1236 1061 c-7 -10 3 -41 13 -42 3 0 13 -2 22 -4 33 -6 43 11 20 34
-22 22 -46 27 -55 12z"/>
<path d="M1706 1049 c-34 -49 -11 -125 29 -95 23 17 24 81 2 103 -13 13 -16
12 -31 -8z"/>
<path d="M5 1049 c-7 -11 13 -50 34 -66 22 -17 68 -16 75 2 13 35 -90 96 -109
64z"/>
<path d="M214 945 c-7 -41 17 -88 44 -83 28 5 28 65 1 94 -30 32 -37 30 -45
-11z"/>
<path d="M1170 963 c-26 -10 -50 -35 -50 -54 0 -27 54 -52 93 -43 39 8 87 41
87 59 0 28 -88 53 -130 38z"/>
<path d="M1721 916 c-28 -34 30 -78 87 -65 52 11 59 24 27 53 -31 29 -94 36
-114 12z"/>
<path d="M48 913 c-24 -6 -23 -24 2 -56 34 -44 120 -56 134 -20 19 48 -65 95
-136 76z"/>
<path d="M1521 879 c-42 -26 -40 -53 6 -78 33 -17 82 -13 119 10 27 17 32 24
24 38 -21 40 -106 57 -149 30z"/>
<path d="M213 788 c-26 -13 -29 -21 -10 -35 33 -26 87 -18 87 13 0 11 -42 37
-53 33 -1 0 -12 -5 -24 -11z"/>
<path d="M1832 710 c-13 -6 -29 -24 -37 -42 -12 -29 -12 -34 2 -45 31 -24 93
31 93 82 0 17 -23 18 -58 5z"/>
<path d="M1272 643 c-71 -35 -72 -107 -2 -105 41 1 77 27 102 72 l18 35 -22 7
c-38 10 -61 8 -96 -9z"/>
<path d="M121 636 c-18 -22 28 -79 72 -90 45 -12 62 1 53 38 -11 45 -100 82
-125 52z"/>
<path d="M1653 629 c-34 -12 -36 -27 -8 -55 22 -22 33 -26 67 -21 51 7 54 11
35 41 -19 29 -64 46 -94 35z"/>
<path d="M1426 608 c-19 -27 -12 -38 24 -38 30 0 74 36 64 52 -11 18 -73 8
-88 -14z"/>
<path d="M1543 585 c-8 -22 20 -45 54 -45 20 0 22 2 11 25 -6 14 -15 25 -19
25 -4 0 -14 3 -23 6 -10 4 -18 -1 -23 -11z"/>
<path d="M333 575 c-27 -12 -43 -32 -43 -56 0 -15 54 -10 78 7 24 17 29 49 9
57 -7 3 -27 -1 -44 -8z"/>
<path d="M432 574 c-23 -16 -28 -62 -8 -67 17 -4 49 50 39 67 -8 15 -11 15
-31 0z"/>
</g>
</svg>
