<svg width="38" height="30" viewBox="0 0 38 30" fill="none" xmlns="http://www.w3.org/2000/svg">
<path d="M4.31154 9.70714V1H33.69V8.92664M1 20.2936H11.3215L12.3777 21.5236L13.8169 22.3041M1 9.70714H11.3215L12.3777 8.47636L13.8169 7.69586M27.2431 12.5313H18.4369M18.4369 12.5313V11.1733C18.4369 9.76639 17.3262 8.62645 15.9569 8.62645C15.5369 8.62645 15.1962 8.97641 15.1962 9.40774V20.5923C15.1962 21.0236 15.5369 21.3735 15.9569 21.3735C17.3269 21.3735 18.4369 20.2328 18.4369 18.8267V17.4687H27.2431M18.4369 12.5313V14.1318M4.33231 15H1M4.33231 15L2.75769 13.5725M4.33231 15L2.75769 16.4275M37 15H33.3454M37 15L35.4254 13.5725M37 15L35.4254 16.4275M33.69 21.0741V29H4.31154V20.2936M30.8546 21.0741H37M30.8546 8.92664H37" stroke="white" stroke-width="1.5" stroke-linecap="round" stroke-linejoin="round"/>
</svg>
