<svg width="38" height="38" viewBox="0 0 38 38" fill="none" xmlns="http://www.w3.org/2000/svg">
<path d="M3.21744 31.7281H6.27204V28.6733M30.2005 7.79956V4.74477H33.2553M30.6696 5.29395C31.0321 5.60319 31.3853 5.92935 31.728 6.27207C38.7573 13.3014 38.7573 24.6985 31.728 31.7279C25.3918 38.0641 15.5068 38.6891 8.47074 33.6024M5.7729 31.209C-0.75318 24.1483 -0.58686 13.131 6.27204 6.27207C12.0644 0.479842 20.8223 -0.53968 27.6584 3.21387M26.92 19.0001C26.92 23.3742 23.3741 26.9201 19 26.9201C14.6259 26.9201 11.08 23.3742 11.08 19.0001C11.08 14.626 14.6259 11.0801 19 11.0801C23.3741 11.0801 26.92 14.626 26.92 19.0001ZM31.96 20.8001V17.2001H29.6375C29.3612 15.5633 28.7196 14.0522 27.7934 12.7523L29.4369 11.1087L26.8914 8.56312L25.2478 10.2067C23.948 9.28042 22.4369 8.63908 20.8 8.3626V6.04005H17.2V8.3626C15.5633 8.6389 14.0522 9.28042 12.7524 10.2067L11.1088 8.56312L8.56326 11.1087L10.2068 12.7523C9.28056 14.0522 8.63904 15.5632 8.36274 17.1999H6.0402V20.7999H8.36274C8.63904 22.4368 9.28056 23.9477 10.2068 25.2477L8.56326 26.8913L11.1088 29.4369L12.7524 27.7933C14.0524 28.7196 15.5633 29.3609 17.2002 29.6374V31.9599H20.8002V29.6374C22.4371 29.3611 23.9482 28.7196 25.248 27.7933L26.8916 29.4369L29.4371 26.8913L27.7935 25.2477C28.7198 23.9479 29.3612 22.4368 29.6376 20.7999H31.9602L31.96 20.8001Z" stroke="white" stroke-width="1.5" stroke-linecap="round" stroke-linejoin="round"/>
</svg>
