<svg width="34" height="34" viewBox="0 0 34 34" fill="none" xmlns="http://www.w3.org/2000/svg">
<path fill-rule="evenodd" clip-rule="evenodd" d="M10.4702 2.30121C10.4702 3.01953 11.0531 3.60242 11.7714 3.60242C12.4897 3.60242 13.0726 3.01953 13.0726 2.30121C13.0726 1.5829 12.4897 1 11.7714 1C11.0531 1 10.4702 1.5829 10.4702 2.30121Z" stroke="white" stroke-width="1.5" stroke-miterlimit="22.93"/>
<path fill-rule="evenodd" clip-rule="evenodd" d="M23.5311 2.30121C23.5311 3.01953 22.9482 3.60242 22.2299 3.60242C21.5116 3.60242 20.9287 3.01953 20.9287 2.30121C20.9287 1.5829 21.5116 1 22.2299 1C22.9482 1 23.5311 1.5829 23.5311 2.30121Z" stroke="white" stroke-width="1.5" stroke-miterlimit="22.93"/>
<path fill-rule="evenodd" clip-rule="evenodd" d="M10.4702 31.6987C10.4702 30.9804 11.0531 30.3975 11.7714 30.3975C12.4897 30.3975 13.0726 30.9804 13.0726 31.6987C13.0726 32.417 12.4897 32.9999 11.7714 32.9999C11.0531 32.9999 10.4702 32.417 10.4702 31.6987Z" stroke="white" stroke-width="1.5" stroke-miterlimit="22.93"/>
<path fill-rule="evenodd" clip-rule="evenodd" d="M23.5311 31.6987C23.5311 30.9804 22.9482 30.3975 22.2299 30.3975C21.5116 30.3975 20.9287 30.9804 20.9287 31.6987C20.9287 32.417 21.5116 32.9999 22.2299 32.9999C22.9482 32.9999 23.5311 32.417 23.5311 31.6987Z" stroke="white" stroke-width="1.5" stroke-miterlimit="22.93"/>
<path fill-rule="evenodd" clip-rule="evenodd" d="M2.30121 23.5292C3.01953 23.5292 3.60242 22.9463 3.60242 22.228C3.60242 21.5097 3.01953 20.9268 2.30121 20.9268C1.5829 20.9268 1 21.5097 1 22.228C1 22.9463 1.5829 23.5292 2.30121 23.5292Z" stroke="white" stroke-width="1.5" stroke-miterlimit="22.93"/>
<path fill-rule="evenodd" clip-rule="evenodd" d="M2.30121 13.0731C3.01806 13.0731 3.60242 12.4888 3.60242 11.7719C3.60242 11.0551 3.01806 10.4707 2.30121 10.4707C1.58437 10.4707 1 11.0551 1 11.7719C1 12.4888 1.58437 13.0731 2.30121 13.0731Z" stroke="white" stroke-width="1.5" stroke-miterlimit="22.93"/>
<path fill-rule="evenodd" clip-rule="evenodd" d="M31.6982 23.5292C32.415 23.5292 32.9994 22.9448 32.9994 22.228C32.9994 21.5111 32.415 20.9268 31.6982 20.9268C30.9813 20.9268 30.397 21.5111 30.397 22.228C30.397 22.9448 30.9813 23.5292 31.6982 23.5292Z" stroke="white" stroke-width="1.5" stroke-miterlimit="22.93"/>
<path fill-rule="evenodd" clip-rule="evenodd" d="M31.6982 10.4697C30.9799 10.4697 30.397 11.0526 30.397 11.7709C30.397 12.4893 30.9799 13.0721 31.6982 13.0721C32.4165 13.0721 32.9994 12.4893 32.9994 11.7709C32.9994 11.0526 32.4165 10.4697 31.6982 10.4697Z" stroke="white" stroke-width="1.5" stroke-miterlimit="22.93"/>
<path d="M17.0015 5.4502V10.3709" stroke="white" stroke-width="1.5" stroke-miterlimit="22.93"/>
<path d="M11.7705 3.65918V6.24541L13.7312 8.39594V10.3698" stroke="white" stroke-width="1.5" stroke-miterlimit="22.93"/>
<path d="M22.2287 3.65918V6.24541L20.2681 8.39594V10.3698" stroke="white" stroke-width="1.5" stroke-miterlimit="22.93"/>
<path d="M17.0015 28.4201V23.6289" stroke="white" stroke-width="1.5" stroke-miterlimit="22.93"/>
<path d="M11.7705 30.341V27.7548L13.7312 25.6043V23.6289" stroke="white" stroke-width="1.5" stroke-miterlimit="22.93"/>
<path d="M22.2287 30.341V27.7548L20.2681 25.6043V23.6289" stroke="white" stroke-width="1.5" stroke-miterlimit="22.93"/>
<path d="M5.28711 17H10.3698" stroke="white" stroke-width="1.5" stroke-miterlimit="22.93"/>
<path d="M3.65967 22.2282H6.2459L8.39644 20.2676H10.3703" stroke="white" stroke-width="1.5" stroke-miterlimit="22.93"/>
<path d="M3.65967 11.7705H6.2459L8.39644 13.7312H10.3703" stroke="white" stroke-width="1.5" stroke-miterlimit="22.93"/>
<path d="M28.6203 17H23.6274" stroke="white" stroke-width="1.5" stroke-miterlimit="22.93"/>
<path d="M30.3396 22.2282H27.7533L25.6028 20.2676H23.6274" stroke="white" stroke-width="1.5" stroke-miterlimit="22.93"/>
<path d="M30.3396 11.7705H27.7533L25.6028 13.7312H23.6274" stroke="white" stroke-width="1.5" stroke-miterlimit="22.93"/>
<path d="M26.4429 26.4424L23.6285 23.628M10.3705 10.37L7.55615 7.55566" stroke="white" stroke-width="1.5" stroke-miterlimit="22.93"/>
<path d="M7.55615 26.4419L10.3705 23.6275M23.63 10.3681L26.4443 7.55371" stroke="white" stroke-width="1.5" stroke-miterlimit="22.93"/>
<path fill-rule="evenodd" clip-rule="evenodd" d="M6.25797 26.3629C6.63773 25.9832 7.25449 25.9832 7.63572 26.3629C8.01549 26.7427 8.01549 27.3595 7.63572 27.7407C7.25596 28.1205 6.63921 28.1205 6.25797 27.7407C5.8782 27.3609 5.8782 26.7442 6.25797 26.3629Z" fill="white"/>
<path fill-rule="evenodd" clip-rule="evenodd" d="M26.3639 6.25846C25.9842 6.63822 25.9842 7.25497 26.3639 7.63621C26.7437 8.01597 27.3604 8.01597 27.7417 7.63621C28.1214 7.25644 28.1214 6.63969 27.7417 6.25846C27.3619 5.87869 26.7452 5.87869 26.3639 6.25846Z" fill="white"/>
<path d="M23.629 10.3711H10.3696V23.6305H23.629V10.3711Z" stroke="white" stroke-width="1.5" stroke-miterlimit="22.93"/>
<path d="M19.0639 14.9365H14.9365V19.0639H19.0639V14.9365Z" stroke="white" stroke-width="1.5" stroke-miterlimit="22.93"/>
<path fill-rule="evenodd" clip-rule="evenodd" d="M5.03498 16.0254C5.57225 16.0254 6.00942 16.4611 6.00942 16.9998C6.00942 17.5386 5.57372 17.9743 5.03498 17.9743C4.49625 17.9743 4.06055 17.5386 4.06055 16.9998C4.06055 16.4611 4.49625 16.0254 5.03498 16.0254Z" fill="white"/>
<path fill-rule="evenodd" clip-rule="evenodd" d="M13.2426 12.6411C13.2426 12.9723 12.9747 13.2402 12.6435 13.2402C12.3123 13.2402 12.0444 12.9723 12.0444 12.6411C12.0444 12.3099 12.3123 12.042 12.6435 12.042C12.9747 12.042 13.2426 12.3099 13.2426 12.6411Z" fill="white"/>
<path fill-rule="evenodd" clip-rule="evenodd" d="M21.957 12.6411C21.957 12.9723 21.6891 13.2402 21.3579 13.2402C21.0267 13.2402 20.7588 12.9723 20.7588 12.6411C20.7588 12.3099 21.0267 12.042 21.3579 12.042C21.6891 12.042 21.957 12.3099 21.957 12.6411Z" fill="white"/>
<path fill-rule="evenodd" clip-rule="evenodd" d="M13.2426 21.3579C13.2426 21.6891 12.9747 21.957 12.6435 21.957C12.3123 21.957 12.0444 21.6891 12.0444 21.3579C12.0444 21.0267 12.3123 20.7588 12.6435 20.7588C12.9747 20.7588 13.2426 21.0267 13.2426 21.3579Z" fill="white"/>
<path fill-rule="evenodd" clip-rule="evenodd" d="M21.957 21.3579C21.957 21.6891 21.6891 21.957 21.3579 21.957C21.0267 21.957 20.7588 21.6891 20.7588 21.3579C20.7588 21.0267 21.0267 20.7588 21.3579 20.7588C21.6891 20.7588 21.957 21.0267 21.957 21.3579Z" fill="white"/>
<path fill-rule="evenodd" clip-rule="evenodd" d="M17.9743 5.03401C17.9743 5.57127 17.5386 6.00844 16.9998 6.00844C16.4611 6.00844 16.0254 5.57274 16.0254 5.03401C16.0254 4.49527 16.4611 4.05957 16.9998 4.05957C17.5386 4.05957 17.9743 4.49527 17.9743 5.03401Z" fill="white"/>
<path fill-rule="evenodd" clip-rule="evenodd" d="M7.63572 6.25846C8.01549 6.63822 8.01549 7.25497 7.63572 7.63621C7.25596 8.01597 6.63921 8.01597 6.25797 7.63621C5.8782 7.25644 5.8782 6.63969 6.25797 6.25846C6.63773 5.87869 7.25449 5.87869 7.63572 6.25846Z" fill="white"/>
<path fill-rule="evenodd" clip-rule="evenodd" d="M28.9647 17.9733C29.5005 17.9733 29.9391 17.5361 29.9391 16.9988C29.9391 16.4616 29.5019 16.0244 28.9647 16.0244C28.4274 16.0244 27.9902 16.4616 27.9902 16.9988C27.9902 17.5361 28.4274 17.9733 28.9647 17.9733Z" fill="white"/>
<path fill-rule="evenodd" clip-rule="evenodd" d="M27.7422 26.3629C27.3625 25.9832 26.7457 25.9832 26.3645 26.3629C25.9832 26.7427 25.9847 27.3595 26.3645 27.7407C26.7442 28.1205 27.361 28.1205 27.7422 27.7407C28.122 27.3609 28.122 26.7442 27.7422 26.3629Z" fill="white"/>
<path fill-rule="evenodd" clip-rule="evenodd" d="M17.9743 28.9637C17.9743 28.425 17.5386 27.9893 16.9998 27.9893C16.4611 27.9893 16.0254 28.425 16.0254 28.9637C16.0254 29.5024 16.4611 29.9381 16.9998 29.9381C17.5386 29.9381 17.9743 29.5024 17.9743 28.9637Z" fill="white"/>
</svg>
