<svg width="36" height="33" viewBox="0 0 36 33" fill="none" xmlns="http://www.w3.org/2000/svg">
<path d="M28.1519 27.4843V22.8465M13.4947 22.8465V27.4843M7.72792 22.8465V21.2489C7.72792 20.5263 8.29498 19.9173 8.96898 19.9173H32.5575C33.2315 19.9173 33.7986 20.5263 33.7986 21.2489V22.8465H7.72792ZM7.72792 22.8465H5.38996C2.96671 22.8465 1 20.8229 1 18.3295V8.71705C1 6.33224 2.86099 4.41732 5.17852 4.41732H12.2933V2.82827C12.2933 1.8348 13.0334 1 13.914 1H28.2144C29.0951 1 29.8351 1.8348 29.8351 2.82827V7.6711C29.8351 8.45709 29.2176 9.05512 28.4907 9.05512H26.7823C26.1648 9.05512 25.6194 9.39197 25.2926 9.91555L24.4204 11.374H17.1506L16.2784 9.91555C15.9516 9.39197 15.4061 9.05512 14.7886 9.05512H13.5788C12.8507 9.05512 12.2957 8.44854 12.2957 7.73457V6.73622H6.03512C4.86254 6.73622 3.86777 7.72358 3.86777 8.96602M34.964 32H1V30.7832C1 28.8829 2.42247 27.3622 4.20057 27.3622H32.1551C33.7205 27.3622 35 28.7304 35 30.4036V32M17.4594 13.0827H24.1873" stroke="white" stroke-width="1.5" stroke-linecap="round" stroke-linejoin="round"/>
</svg>
