<svg width="34" height="30" viewBox="0 0 34 30" fill="none" xmlns="http://www.w3.org/2000/svg">
<path d="M8.22581 29V4.23077H1V29H8.22581ZM8.22581 29H33V17.6923H8.22581M33 26.3077H8.22581M10.8065 17.6923V9.07692C10.8065 6.40077 12.8865 4.23077 15.4516 4.23077M15.4516 4.23077C18.0168 4.23077 20.0968 6.40077 20.0968 9.07692V17.6923M15.4516 4.23077V3.15385C15.4516 1.95846 16.3703 1 17.5161 1H24.7419C25.8877 1 26.8065 1.95846 26.8065 3.15385V4.23077M22.1613 17.6923V9.07692C22.1613 6.40077 24.2413 4.23077 26.8065 4.23077M26.8065 4.23077C29.3716 4.23077 31.4516 6.40077 31.4516 9.07692V17.6923M10.8065 12.8462H20.0968M22.1613 12.8462H31.4516M22.1613 15H31.4516M10.8065 15H20.0968M25.7742 20.3846H29.9032V23.6154H25.7742V20.3846ZM18.5484 20.3846H22.6774V23.6154H18.5484V20.3846ZM11.3226 20.3846H15.4516V23.6154H11.3226V20.3846ZM3.06452 6.92308H6.16129V10.1538H3.06452V6.92308ZM3.06452 12.3077H6.16129V15.5385H3.06452V12.3077ZM3.06452 17.6923H6.16129V20.9231H3.06452V17.6923ZM3.06452 23.0769H6.16129V26.3077H3.06452V23.0769Z" stroke="white" stroke-width="1.3" stroke-linecap="round" stroke-linejoin="round"/>
</svg>
