<svg width="38" height="38" viewBox="0 0 38 38" fill="none" xmlns="http://www.w3.org/2000/svg">
<path d="M23.75 30.0833C23.3126 30.0833 22.9583 29.7291 22.9583 29.2917C22.9583 28.8543 23.3126 28.5 23.75 28.5C24.4051 28.5 24.9375 27.9676 24.9375 27.3125C24.9375 26.6574 24.6268 26.2121 24.4882 26.123C24.0766 26.0953 23.75 25.7529 23.75 25.3333C23.75 24.9137 24.1043 24.5417 24.5417 24.5417C25.6144 24.5417 26.5208 25.8103 26.5208 27.3125C26.5208 28.8147 25.2779 30.0833 23.75 30.0833Z" fill="white"/>
<path d="M22.9583 34.0417C22.5209 34.0417 22.1667 33.6874 22.1667 33.25C22.1667 32.8126 22.5209 32.4583 22.9583 32.4583C23.6134 32.4583 24.1458 31.9259 24.1458 31.2708C24.1458 30.6731 23.7896 30.1961 23.6194 30.0734C23.2453 30.0121 22.9583 29.6855 22.9583 29.2917C22.9583 28.8543 23.3126 28.5 23.75 28.5C24.7297 28.5 25.7292 29.8993 25.7292 31.2708C25.7292 32.7988 24.4862 34.0417 22.9583 34.0417Z" fill="white"/>
<path d="M11.7859 38C10.6855 38 9.58313 37.7407 8.59948 37.2479L8.10667 37.0005C7.34073 36.6185 6.48375 36.4147 5.62875 36.4147H0.791667C0.354271 36.4147 0 36.0604 0 35.623C0 35.1856 0.354271 34.8314 0.791667 34.8314H5.63073C6.73115 34.8314 7.83354 35.0906 8.81719 35.5834L9.31 35.8308C10.0759 36.2128 10.9329 36.4167 11.7879 36.4167H22.1686C22.8238 36.4167 23.3561 35.8843 23.3561 35.2292C23.3561 34.6235 23.0078 34.1505 22.8435 34.0338C22.4616 33.9764 22.1686 33.6478 22.1686 33.25C22.1686 32.8126 22.5229 32.4583 22.9603 32.4583C23.9598 32.4583 24.9395 33.8299 24.9395 35.2292C24.9395 36.7571 23.6966 38 22.1686 38H11.7859Z" fill="white"/>
<path d="M24.5417 26.125C24.1043 26.125 23.75 25.7707 23.75 25.3333C23.75 24.8959 24.1043 24.5417 24.5417 24.5417C25.1968 24.5417 25.7292 24.0093 25.7292 23.3542C25.7292 22.6991 25.1968 22.1667 24.5417 22.1667H15.8333C15.5582 22.1667 15.3049 22.0242 15.1604 21.7906C15.0159 21.5571 15.0021 21.2661 15.1248 21.0207C15.7621 19.7442 17.4167 16.0411 17.4167 14.25C17.4167 13.298 17.2623 11.0833 15.8333 11.0833C15.5543 11.0833 14.9011 11.6355 14.2084 13.7077C12.6489 18.3825 6.15323 25.3333 3.95833 25.3333H0.791667C0.354271 25.3333 0 24.9791 0 24.5417C0 24.1043 0.354271 23.75 0.791667 23.75H3.95833C5.06469 23.6293 11.117 17.9788 12.7082 13.209C13.5395 10.7132 14.5627 9.5 15.8333 9.5C17.8165 9.5 19 11.2753 19 14.25C19 16.051 17.8066 18.9743 17.0802 20.5833H24.5417C26.0696 20.5833 27.3125 21.8263 27.3125 23.3542C27.3125 24.8821 26.0696 26.125 24.5417 26.125Z" fill="white"/>
<path d="M30.875 7.125C27.3838 7.125 24.5417 4.28292 24.5417 0.791667C24.5417 0.354271 24.8959 0 25.3333 0C25.7707 0 26.125 0.354271 26.125 0.791667C26.125 3.4101 28.2566 5.54167 30.875 5.54167C31.3124 5.54167 31.6667 5.89594 31.6667 6.33333C31.6667 6.77073 31.3124 7.125 30.875 7.125Z" fill="white"/>
<path d="M25.3333 12.6667C24.8959 12.6667 24.5417 12.3124 24.5417 11.875C24.5417 8.38375 27.3838 5.54167 30.875 5.54167C31.3124 5.54167 31.6667 5.89594 31.6667 6.33333C31.6667 6.77073 31.3124 7.125 30.875 7.125C28.2566 7.125 26.125 9.25656 26.125 11.875C26.125 12.3124 25.7707 12.6667 25.3333 12.6667Z" fill="white"/>
<path d="M19.7917 7.125C19.3543 7.125 19 6.77073 19 6.33333C19 5.89594 19.3543 5.54167 19.7917 5.54167C22.4101 5.54167 24.5417 3.4101 24.5417 0.791667C24.5417 0.354271 24.8959 0 25.3333 0C25.7707 0 26.125 0.354271 26.125 0.791667C26.125 4.28292 23.2829 7.125 19.7917 7.125Z" fill="white"/>
<path d="M25.3333 12.6667C24.8959 12.6667 24.5417 12.3124 24.5417 11.875C24.5417 9.25656 22.4101 7.125 19.7917 7.125C19.3543 7.125 19 6.77073 19 6.33333C19 5.89594 19.3543 5.54167 19.7917 5.54167C23.2829 5.54167 26.125 8.38375 26.125 11.875C26.125 12.3124 25.7707 12.6667 25.3333 12.6667Z" fill="white"/>
<path d="M37.2083 16.625C34.5899 16.625 32.4583 14.4934 32.4583 11.875C32.4583 11.4376 32.8126 11.0833 33.25 11.0833C33.6874 11.0833 34.0417 11.4376 34.0417 11.875C34.0417 13.6206 35.4627 15.0417 37.2083 15.0417C37.6457 15.0417 38 15.3959 38 15.8333C38 16.2707 37.6457 16.625 37.2083 16.625Z" fill="white"/>
<path d="M33.25 20.5833C32.8126 20.5833 32.4583 20.2291 32.4583 19.7917C32.4583 17.1732 34.5899 15.0417 37.2083 15.0417C37.6457 15.0417 38 15.3959 38 15.8333C38 16.2707 37.6457 16.625 37.2083 16.625C35.4627 16.625 34.0417 18.046 34.0417 19.7917C34.0417 20.2291 33.6874 20.5833 33.25 20.5833Z" fill="white"/>
<path d="M29.2917 16.625C28.8543 16.625 28.5 16.2707 28.5 15.8333C28.5 15.3959 28.8543 15.0417 29.2917 15.0417C31.0373 15.0417 32.4583 13.6206 32.4583 11.875C32.4583 11.4376 32.8126 11.0833 33.25 11.0833C33.6874 11.0833 34.0417 11.4376 34.0417 11.875C34.0417 14.4934 31.9101 16.625 29.2917 16.625Z" fill="white"/>
<path d="M33.25 20.5833C32.8126 20.5833 32.4583 20.2291 32.4583 19.7917C32.4583 18.046 31.0373 16.625 29.2917 16.625C28.8543 16.625 28.5 16.2707 28.5 15.8333C28.5 15.3959 28.8543 15.0417 29.2917 15.0417C31.9101 15.0417 34.0417 17.1732 34.0417 19.7917C34.0417 20.2291 33.6874 20.5833 33.25 20.5833Z" fill="white"/>
</svg>
