<svg width="200" height="64" viewBox="0 0 200 64" fill="none" xmlns="http://www.w3.org/2000/svg">
<rect x="76.5" y="0.5" width="47" height="63" stroke="#E9BE92"/>
<path d="M96.6813 35.0332V22.2496C96.6813 21.4045 97.2487 20.6328 98.0619 20.4939C99.1437 20.3125 100.036 21.2309 100.036 22.2959V26.9918M108.195 41.6739H97.3659L94.9073 38.1124C94.5669 37.6841 94.3815 37.1516 94.3815 36.5998V32.6293C94.3815 32.1585 94.5177 31.6993 94.7711 31.3058C95.1797 30.6729 95.6979 30.2176 96.6775 29.7314M108.195 41.6739C108.195 41.6739 108.906 37.8731 108.978 36.0866C109.035 34.655 108.963 29.5655 108.963 29.5655C108.963 28.6472 108.294 27.8523 107.359 28.0105C106.652 28.1301 106.164 28.7977 106.164 29.5269M108.195 41.6739V45H97.3773V41.6739M106.168 28.4465V31.0125M100.036 26.988V31.0125M103.267 30.8967V28.1378C103.267 27.1153 102.408 26.2317 101.368 26.4053C100.581 26.5365 100.036 27.2812 100.036 28.0915V28.9867M106.168 28.489C106.168 27.5706 105.396 26.7757 104.462 26.9339C103.755 27.0536 103.267 27.7211 103.267 28.4504M105.718 21.8444H101.727M105.718 21.8444L103.913 23.685M105.718 21.8444L103.913 20M91 21.8444H94.9792M91 21.8444L92.808 23.685M91 21.8444L92.808 20" stroke="#E9BE92" stroke-width="1.5" stroke-linecap="round" stroke-linejoin="round"/>
<rect opacity="0.4" x="38.5" y="12.5" width="29" height="39" stroke="#E9BE92"/>
<rect opacity="0.4" x="0.5" y="12.5" width="29" height="39" stroke="#E9BE92"/>
<rect opacity="0.4" x="132.5" y="12.5" width="29" height="39" stroke="#E9BE92"/>
<rect opacity="0.4" x="170.5" y="12.5" width="29" height="39" stroke="#E9BE92"/>
</svg>
