<svg width="23" height="18" viewBox="0 0 23 18" fill="none" xmlns="http://www.w3.org/2000/svg">
<g opacity="0.4">
<path d="M21.6117 7.88786C22.1294 8.55214 22.1294 9.44893 21.6117 10.1121C19.9809 12.2004 16.0682 16.5 11.5002 16.5C6.93212 16.5 3.01947 12.2004 1.38865 10.1121C1.13674 9.79407 1 9.40277 1 9C1 8.59723 1.13674 8.20593 1.38865 7.88786C3.01947 5.79964 6.93212 1.5 11.5002 1.5C16.0682 1.5 19.9809 5.79964 21.6117 7.88786Z" stroke="#151B20" stroke-width="2" stroke-linecap="round" stroke-linejoin="round"/>
<path d="M11.5002 12.2143C13.31 12.2143 14.7771 10.7752 14.7771 9C14.7771 7.2248 13.31 5.78571 11.5002 5.78571C9.69037 5.78571 8.22323 7.2248 8.22323 9C8.22323 10.7752 9.69037 12.2143 11.5002 12.2143Z" stroke="#151B20" stroke-width="2" stroke-linecap="round" stroke-linejoin="round"/>
</g>
</svg>
