<svg width="52" height="60" viewBox="0 0 52 60" fill="none" xmlns="http://www.w3.org/2000/svg">
<path d="M36.75 48.4887C36.75 48.0745 36.4142 47.7387 36 47.7387C35.5858 47.7387 35.25 48.0745 35.25 48.4887H36.75ZM40.6634 59.4651C41.0336 59.651 41.4844 59.5016 41.6702 59.1314C41.8561 58.7613 41.7067 58.3105 41.3366 58.1246L40.6634 59.4651ZM16.75 48.4636C16.75 48.0494 16.4142 47.7136 16 47.7136C15.5858 47.7136 15.25 48.0494 15.25 48.4636H16.75ZM10.6634 58.0744C10.2933 58.2603 10.1439 58.7111 10.3298 59.0812C10.5156 59.4514 10.9664 59.6008 11.3366 59.4149L10.6634 58.0744ZM39.75 29.8723H39C39 30.2866 39.3358 30.6223 39.75 30.6223V29.8723ZM14.75 17.3191L15.0289 16.6229C14.7978 16.5304 14.5359 16.5585 14.3297 16.698C14.1235 16.8375 14 17.0702 14 17.3191H14.75ZM12.25 29.8723V30.6223C12.6642 30.6223 13 30.2866 13 29.8723H12.25ZM8.575 32.9855L9.30299 32.8048L9.29988 32.793L8.575 32.9855ZM9.825 38.0194L9.09709 38.2001L9.09821 38.2045L9.825 38.0194ZM12.4625 39.9149L13.2022 39.7911C13.1418 39.4297 12.829 39.1649 12.4625 39.1649V39.9149ZM20.475 50.9868L20.1292 51.6523L20.1306 51.6531L20.475 50.9868ZM31.425 51.037L31.7655 51.7052L31.7662 51.7049L31.425 51.037ZM39.5375 39.9149V39.1649C39.1708 39.1649 38.8579 39.4301 38.7977 39.7918L39.5375 39.9149ZM42.175 38.0194L42.8998 38.2124L42.9029 38.2001L42.175 38.0194ZM43.425 32.9855L42.7 32.793L42.6971 32.8048L43.425 32.9855ZM16.4771 31.8043C16.1575 31.5408 15.6848 31.5863 15.4213 31.9059C15.1578 32.2255 15.2033 32.6982 15.5229 32.9617L16.4771 31.8043ZM22.7271 32.9617C23.0467 32.6982 23.0922 32.2255 22.8287 31.9059C22.5652 31.5863 22.0925 31.5408 21.7729 31.8043L22.7271 32.9617ZM30.2271 31.8043C29.9075 31.5408 29.4348 31.5863 29.1713 31.9059C28.9078 32.2255 28.9533 32.6982 29.2729 32.9617L30.2271 31.8043ZM36.4771 32.9617C36.7967 32.6982 36.8422 32.2255 36.5787 31.9059C36.3152 31.5863 35.8425 31.5408 35.5229 31.8043L36.4771 32.9617ZM33.5 12.2979L33.7381 11.5867L33.5 12.2979ZM16.4697 9.20255C16.1468 8.94313 15.6747 8.99459 15.4153 9.3175C15.1559 9.64041 15.2074 10.1125 15.5303 10.3719L16.4697 9.20255ZM1.75 60V50.7232H0.25V60H1.75ZM1.75 50.7232C1.75 46.9371 2.16891 43.1498 2.98251 39.4482L1.51749 39.1262C0.681085 42.9315 0.25 46.8267 0.25 50.7232H1.75ZM2.98251 39.4482C3.81892 35.643 4.25 31.7477 4.25 27.8513H2.75C2.75 31.6374 2.33109 35.4247 1.51749 39.1262L2.98251 39.4482ZM4.25 27.8513V23.5957H2.75V27.8513H4.25ZM4.25 23.5957C4.25 11.5291 13.9922 1.75 26 1.75V0.25C13.1578 0.25 2.75 10.7067 2.75 23.5957H4.25ZM26 1.75C38.0078 1.75 47.75 11.5291 47.75 23.5957H49.25C49.25 10.7067 38.8422 0.25 26 0.25V1.75ZM47.75 23.5957V27.8513H49.25V23.5957H47.75ZM47.75 27.8513C47.75 31.7477 48.1811 35.643 49.0175 39.4482L50.4825 39.1262C49.6689 35.4247 49.25 31.6374 49.25 27.8513H47.75ZM49.0175 39.4482C49.8311 43.1498 50.25 46.9371 50.25 50.7232H51.75C51.75 46.8267 51.3189 42.9315 50.4825 39.1262L49.0175 39.4482ZM50.25 50.7232V60H51.75V50.7232H50.25ZM35.25 48.4887V52.5183H36.75V48.4887H35.25ZM35.25 52.5183C35.25 55.1104 36.7088 57.4794 39.0135 58.6366L39.6866 57.2961C37.8912 56.3946 36.75 54.5458 36.75 52.5183H35.25ZM39.0135 58.6366L40.6634 59.4651L41.3366 58.1246L39.6866 57.2961L39.0135 58.6366ZM15.25 48.4636V52.4681H16.75V48.4636H15.25ZM15.25 52.4681C15.25 54.4956 14.1088 56.3444 12.3134 57.2459L12.9866 58.5864C15.2912 57.4292 16.75 55.0602 16.75 52.4681H15.25ZM12.3134 57.2459L10.6634 58.0744L11.3366 59.4149L12.9866 58.5864L12.3134 57.2459ZM44.25 32.383C44.25 30.5909 42.7922 29.1223 41 29.1223V30.6223C41.9578 30.6223 42.75 31.4133 42.75 32.383H44.25ZM41 29.1223H39.75V30.6223H41V29.1223ZM40.5 29.8723V26.1064H39V29.8723H40.5ZM40.5 26.1064C40.5 23.1981 39.6417 20.7921 37.969 19.1123C36.2958 17.4321 33.8984 16.5691 31 16.5691V18.0691C33.6016 18.0691 35.5792 18.8382 36.906 20.1707C38.2333 21.5036 39 23.4913 39 26.1064H40.5ZM31 16.5691C28.967 16.5691 27.3386 16.8979 25.7943 17.2118C24.2466 17.5265 22.7901 17.8245 21 17.8245V19.3245C22.9599 19.3245 24.5534 18.9948 26.0932 18.6818C27.6364 18.3681 29.133 18.0691 31 18.0691V16.5691ZM21 17.8245C18.6072 17.8245 17.3017 17.5335 15.0289 16.6229L14.4711 18.0154C16.8983 18.9878 18.3928 19.3245 21 19.3245V17.8245ZM14 17.3191C14 18.5093 13.8523 19.3247 13.646 19.9599C13.4376 20.6017 13.1618 21.0887 12.8446 21.6589C12.529 22.2261 12.182 22.8608 11.9227 23.7184C11.6632 24.5767 11.5 25.6269 11.5 27.0479H13C13 25.7448 13.1493 24.8446 13.3585 24.1525C13.568 23.4598 13.846 22.9443 14.1554 22.3881C14.4632 21.8347 14.8124 21.2249 15.0727 20.4231C15.3352 19.6146 15.5 18.6396 15.5 17.3191H14ZM11.5 27.0479V29.8723H13V27.0479H11.5ZM12.25 29.1223H11V30.6223H12.25V29.1223ZM11 29.1223C9.20779 29.1223 7.75 30.5909 7.75 32.383H9.25C9.25 31.4133 10.0422 30.6223 11 30.6223V29.1223ZM7.75 32.383C7.75 32.6552 7.78194 32.9213 7.85012 33.178L9.29988 32.793C9.26806 32.6732 9.25 32.5375 9.25 32.383H7.75ZM7.84711 33.1663L9.09711 38.2001L10.5529 37.8386L9.30289 32.8048L7.84711 33.1663ZM9.09821 38.2045C9.45391 39.6009 10.7164 40.6649 12.25 40.6649V39.1649C11.4336 39.1649 10.7461 38.597 10.5518 37.8342L9.09821 38.2045ZM12.25 40.6649H12.4625V39.1649H12.25V40.6649ZM11.7228 40.0386C12.5482 44.973 15.6151 49.3066 20.1292 51.6523L20.8208 50.3213C16.7349 48.1981 13.9518 44.2717 13.2022 39.7911L11.7228 40.0386ZM20.1306 51.6531C21.9013 52.5683 23.883 53.2181 26 53.2181V51.7181C24.192 51.7181 22.4487 51.1627 20.8194 50.3205L20.1306 51.6531ZM26 53.2181C28.1151 53.2181 30.0205 52.5946 31.7655 51.7052L31.0845 50.3688C29.4795 51.1867 27.8099 51.7181 26 51.7181V53.2181ZM31.7662 51.7049C36.3322 49.3727 39.4516 45.0003 40.2773 40.038L38.7977 39.7918C38.0484 44.2946 35.2178 48.2575 31.0838 50.3691L31.7662 51.7049ZM39.5375 40.6649H39.75V39.1649H39.5375V40.6649ZM39.75 40.6649C41.2748 40.6649 42.5307 39.5982 42.8997 38.2124L41.4503 37.8264C41.2443 38.5996 40.5502 39.1649 39.75 39.1649V40.6649ZM42.9029 38.2001L44.1529 33.1663L42.6971 32.8048L41.4471 37.8386L42.9029 38.2001ZM44.1499 33.178C44.2185 32.9195 44.25 32.6407 44.25 32.383H42.75C42.75 32.527 42.7315 32.6749 42.7001 32.793L44.1499 33.178ZM15.5229 32.9617C16.6395 33.8823 17.8591 34.3852 19.125 34.3852C20.3909 34.3852 21.6105 33.8823 22.7271 32.9617L21.7729 31.8043C20.8645 32.5533 19.9716 32.8852 19.125 32.8852C18.2784 32.8852 17.3855 32.5533 16.4771 31.8043L15.5229 32.9617ZM29.2729 32.9617C30.3895 33.8823 31.6091 34.3852 32.875 34.3852C34.1409 34.3852 35.3605 33.8823 36.4771 32.9617L35.5229 31.8043C34.6145 32.5533 33.7216 32.8852 32.875 32.8852C32.0284 32.8852 31.1355 32.5533 30.2271 31.8043L29.2729 32.9617ZM40.5 26.1064C40.5 22.3205 40.1864 19.1635 39.1898 16.7205C38.1724 14.2266 36.4495 12.4943 33.7381 11.5867L33.2619 13.0091C35.538 13.771 36.9401 15.177 37.8009 17.287C38.6824 19.4479 39 22.3604 39 26.1064H40.5ZM33.7381 11.5867C29.7943 10.2665 26.791 10.9323 24.1933 11.2392C22.8874 11.3935 21.6943 11.4602 20.4662 11.2099C19.2494 10.962 17.9507 10.3923 16.4697 9.20255L15.5303 10.3719C17.1743 11.6928 18.6881 12.3784 20.1667 12.6797C21.6338 12.9787 23.0189 12.8884 24.3692 12.7289C27.084 12.4081 29.7057 11.8186 33.2619 13.0091L33.7381 11.5867Z" fill="white"/>
</svg>
