<svg width="46" height="42" viewBox="0 0 46 42" fill="none" xmlns="http://www.w3.org/2000/svg">
<path d="M6.84825 17.694L9.246 17.6359L10.281 19.3484H6.8425V17.694H6.84825ZM3.40975 11.1458L3.91575 10.2054L5.44525 12.7364C5.819 13.3576 6.41125 13.7871 7.107 13.9613C7.80275 14.1296 8.52725 14.0194 9.13675 13.642L11.4137 12.243C12.6788 11.4651 13.0813 9.79323 12.3108 8.5161L10.7812 5.98507L11.8392 5.96185L14.8062 10.873L13.225 13.7988C13.087 14.06 13.0928 14.3735 13.2423 14.6231L16.1 19.3542H12.1957L10.396 16.3762C10.2465 16.1266 9.9705 15.9757 9.67725 15.9815L6.37675 16.0627L3.40975 11.1516V11.1458ZM38.1915 1.64865C38.7205 1.64865 39.1517 2.08404 39.1517 2.61811V10.9833L38.7378 11.6683C38.594 11.9121 38.3582 12.0804 38.088 12.1501C37.812 12.2198 37.5303 12.1733 37.2887 12.0224L35.0117 10.6234C34.5173 10.3157 34.3563 9.65971 34.661 9.16047L36.9265 5.41037C37.076 5.16075 37.0875 4.84727 36.9437 4.58604C36.8057 4.32481 36.5355 4.16227 36.248 4.15646L33.7467 4.09841C33.1833 4.0868 32.6543 4.37706 32.3553 4.86469L29.3595 9.82806C29.0663 10.3157 29.049 10.9252 29.3193 11.4245L30.6877 13.9613L27.4275 19.3601H18.0147L14.881 14.1761L16.2495 11.6451C16.5198 11.1458 16.5082 10.5305 16.2092 10.0487L13.2135 5.08528C12.9202 4.59765 12.3855 4.30739 11.822 4.31901L9.32075 4.37706C9.0275 4.38286 8.763 4.5454 8.625 4.80663C8.487 5.06786 8.49275 5.38134 8.64225 5.63096L10.9077 9.38106C11.2125 9.8803 11.0515 10.5363 10.557 10.844L8.28 12.243C8.0385 12.3881 7.75675 12.4346 7.48075 12.3707C7.2105 12.3068 6.9805 12.1385 6.83675 11.9005V2.61811C6.83675 2.08404 7.268 1.64865 7.797 1.64865H38.1915ZM41.6587 9.9906L42.1647 10.931L39.1977 15.8422L35.8973 15.7609C35.604 15.7609 35.3338 15.906 35.1785 16.1556L33.2465 19.3484H29.3422L32.3322 14.4025C32.4818 14.1529 32.4932 13.8394 32.3495 13.5782L30.7682 10.6524L33.7352 5.74126L34.7932 5.76448L33.2637 8.29551C32.4932 9.57263 32.8957 11.2445 34.1607 12.0224L36.4377 13.4214C37.053 13.7988 37.7717 13.9149 38.4675 13.7407C39.1632 13.5724 39.7555 13.137 40.1292 12.5158L41.6587 9.9848V9.9906ZM39.1517 19.3484H35.167L36.3342 17.4211L39.1575 17.4908V19.3542L39.1517 19.3484ZM43.4125 19.3484H40.7847V16.382L43.5793 11.7612C43.8725 11.2735 43.8897 10.664 43.6195 10.1648L42.4235 7.9472C42.2855 7.68597 42.021 7.52343 41.7277 7.51762C41.4345 7.51182 41.1642 7.66275 41.009 7.91237L40.7905 8.27809V2.61811C40.7905 1.17844 39.629 0 38.1973 0H7.8085C6.3825 0 5.21525 1.17263 5.21525 2.61811V9.1895L4.577 8.13297C4.4275 7.88335 4.15725 7.73241 3.85825 7.73822C3.565 7.74402 3.3005 7.90657 3.1625 8.1678L1.96075 10.3853C1.6905 10.8846 1.70775 11.4941 2.001 11.9818L5.0025 16.9451C5.06575 17.0496 5.13475 17.1425 5.21525 17.2238V19.3542H2.59325C1.16725 19.3542 0 20.5269 0 21.9724V35.4344C0 39.0568 2.91525 42 6.50325 42H35C35 42 35 41.6285 35 41.1757C35 40.7229 35 40.5 35 40.3513H6.50325C3.818 40.3513 1.633 38.1454 1.633 35.4344V21.9724C1.633 21.4383 2.06425 21.0029 2.59325 21.0029H43.4067C43.9357 21.0029 44.367 21.4383 44.367 21.9724V35.4344C44.367 38.1454 42.182 40.3513 39.4967 40.3513H35C35 41 35 40.7229 35 41.1757C35 41.6285 35 41.5 35 42H39.4967C43.0848 42 46 39.0568 46 35.4344V21.9724C46 20.5327 44.8385 19.3542 43.4067 19.3542L43.4125 19.3484Z" fill="white"/>
<path d="M32.4415 28.1664H13.5585C12.8742 28.1664 12.3165 27.6033 12.3165 26.9125C12.3165 26.2217 12.8742 25.6586 13.5585 25.6586H32.4415C33.1257 25.6586 33.6835 26.2217 33.6835 26.9125C33.6835 27.6033 33.1257 28.1664 32.4415 28.1664ZM32.4415 24.01H13.5585C11.9715 24.01 10.6835 25.3103 10.6835 26.9125C10.6835 28.5147 11.9715 29.8151 13.5585 29.8151H32.4415C34.0285 29.8151 35.3165 28.5147 35.3165 26.9125C35.3165 25.3103 34.0285 24.01 32.4415 24.01Z" fill="white"/>
</svg>
