<svg width="34" height="42" viewBox="0 0 34 42" fill="none" xmlns="http://www.w3.org/2000/svg">
<path d="M6.09091 4.57143H1V41H33V4.57143H27.9091M14.8182 3.85714V4.57143H19.1818V3.85714M8.27273 16.7143L10.4545 18.8571L14.0909 13.1429M17.0055 13.1429H28.6364M17 16H22.8182M17.0055 26.7107H28.6364M17.0055 29.5714H22.8182M10.7345 13.1429H5.36364V21.7143H14.0909V18.8571M25 7.42857V5.28571C25 4.49643 24.3491 3.85714 23.5455 3.85714V1H10.4545V3.85714C9.65091 3.85714 9 4.49643 9 5.28571V7.42857H25ZM14.0909 26.7143H5.36364V35.2857H14.0909V26.7143Z" stroke="white" stroke-width="1.5" stroke-linecap="round" stroke-linejoin="round"/>
</svg>
