<svg width="44" height="42" viewBox="0 0 44 42" fill="none" xmlns="http://www.w3.org/2000/svg">
<path d="M37.488 12.7506C38.3002 15.389 38.2203 19.2856 34.7732 22.6727C30.908 26.471 32.3986 27.0718 28.055 30.1556M29.5053 8.68226C25.098 6.51133 18.2739 11.2429 13.5938 16.7805M26.9449 15.46C24.6035 21.4548 17.0812 21.3104 15.5529 26.2436M10.3477 23.7214C8.96659 26.9736 5.99878 27.6573 5.86685 32.0633M22.044 30.9846C20.2348 30.5368 18.7756 34.6043 12.1345 35.2837M8.69916 11.3993C-2.19122 25.4821 1.43531 39.2094 2.15775 39.8974C2.88018 40.5854 17.293 44.0392 32.0809 33.6675C44.0401 25.2796 46.0684 12.1284 38.6923 5.1028C31.3163 -1.92193 17.5075 0.00882403 8.70005 11.3985L8.69916 11.3993Z" stroke="white" stroke-width="1.5" stroke-linecap="round" stroke-linejoin="round"/>
</svg>
