<svg width="41" height="48" viewBox="0 0 41 48" fill="none" xmlns="http://www.w3.org/2000/svg">
<path d="M17.7556 1.8421L18.3333 1H31.3333L40 13.6129V45.5161C40 46.336 39.3536 47 38.5556 47H11.1111C10.3149 47 9.66667 46.336 9.66667 45.5161V13.6129L13.7039 7.73677M26.3013 6.60347C27.1517 7.11911 27.7222 8.0725 27.7222 9.16129C27.7222 10.801 26.4294 12.129 24.8333 12.129C23.2372 12.129 21.9444 10.801 21.9444 9.16129M6.75611 12.973C3.30569 12.194 1 10.7769 1 9.16129C1 6.70177 6.33542 4.70968 12.9167 4.70968C19.4979 4.70968 24.8333 6.70177 24.8333 9.16129M25.2631 37.2009C15.2892 37.2695 15.4444 24.7772 15.4444 24.7772M25.2631 37.2009C27.381 27.1885 15.4444 24.7772 15.4444 24.7772M25.2631 37.2009C25.366 38.6217 24.8333 41.8065 24.8333 41.8065M15.4444 24.7772C15.4444 24.7772 19.7778 33.6452 25.5556 36.6129M32.5268 18.1109C32.5268 18.1109 31.3333 31.4194 24.8333 36.6129M22.8111 28.5703C24.0335 21.7779 32.525 18.1109 32.525 18.1109C32.525 18.1109 39.5017 34.2257 25.1493 37.238" stroke="white" stroke-width="1.24138" stroke-linecap="round" stroke-linejoin="round"/>
</svg>
