<svg width="104" height="91" viewBox="0 0 104 91" fill="none" xmlns="http://www.w3.org/2000/svg">
<g clip-path="url(#clip0_95_3115)">
<path d="M5.40732 70.0036V68.1551H8.22345V65.1415H5.40732V62.1387H2.68419C2.68419 64.4494 1.40807 65.1415 0 65.1415V68.1551H1.40807V72.3719C1.40807 74.295 2.72312 75.56 5.16291 75.56C5.1867 75.56 5.20833 75.56 5.23212 75.56H8.19966V72.5444H7.0533C5.51763 72.5444 5.40732 72.1014 5.40732 71.3837V70.0058V70.0036Z" fill="#151B20"/>
<path d="M14.4376 72.5465H15.8457V75.56H9.03027V72.5465H10.4383V68.1657H9.03027V65.1522H14.4376V66.9092C14.7015 66.447 15.2833 64.9307 17.4787 64.9307C19.9379 64.9307 20.0699 67.3713 20.0699 68.1657V69.7736H16.54C16.54 68.8493 16.5767 67.8334 15.6012 67.8888C14.7382 67.925 14.4376 68.7939 14.4376 69.7736V72.5465Z" fill="#151B20"/>
<path d="M62.349 64.8945C65.4463 64.8945 67.9618 67.3352 67.9618 70.3295C67.9618 73.3047 65.4268 75.7453 62.3295 75.7453C59.2322 75.7453 56.6973 73.3047 56.6973 70.3104C56.6973 67.316 59.2322 64.8945 62.349 64.8945ZM60.9215 70.3104C60.9215 72.0674 61.3908 72.9725 62.3295 72.9725C63.2682 72.9725 63.7376 72.0844 63.7376 70.3104C63.7376 68.5534 63.2682 67.6674 62.3295 67.6674C61.4103 67.6674 60.9215 68.5555 60.9215 70.3104Z" fill="#151B20"/>
<path d="M104 65.7996C104 66.3213 103.574 66.7345 103.033 66.7345C102.492 66.7345 102.06 66.3213 102.06 65.7996C102.06 65.2778 102.492 64.8689 103.039 64.8689C103.587 64.8689 104.002 65.2778 104.002 65.7996H104ZM102.302 65.7996C102.302 66.2127 102.618 66.5428 103.039 66.5428C103.448 66.5492 103.76 66.2149 103.76 65.806C103.76 65.3928 103.448 65.0584 103.029 65.0584C102.609 65.0584 102.304 65.3928 102.304 65.8017L102.302 65.7996ZM102.884 66.2809H102.665V65.3502C102.752 65.3396 102.873 65.3225 103.029 65.3225C103.208 65.3225 103.288 65.3502 103.351 65.3971C103.409 65.4375 103.448 65.5057 103.448 65.5951C103.448 65.6846 103.362 65.7825 103.254 65.8166V65.8273C103.347 65.8549 103.392 65.9295 103.42 66.053C103.448 66.1957 103.472 66.2468 103.489 66.2788H103.26C103.232 66.2447 103.215 66.1659 103.184 66.053C103.167 65.9572 103.109 65.9103 102.987 65.9103H102.884V66.2788V66.2809ZM102.89 65.7591H102.994C103.115 65.7591 103.212 65.7186 103.212 65.6228C103.212 65.5376 103.15 65.4801 103.011 65.4801C102.953 65.4801 102.914 65.4865 102.89 65.4908V65.757V65.7591Z" fill="#151B20"/>
<path d="M28.5722 72.0908C28.2931 72.6296 27.7546 72.9725 26.9089 72.9725C25.0314 72.9725 24.8065 71.586 24.8065 70.9024H32.0718C32.2037 67.6482 29.725 64.8945 26.2146 64.8945C23.0978 64.8945 20.3379 67.1499 20.3379 70.1996C20.3379 73.3601 23.0415 75.7645 26.2146 75.7645C30.562 75.7645 31.6305 73.3409 31.8922 72.0929H28.5722V72.0908ZM26.2146 66.9646C27.1533 66.9646 27.6226 67.8527 27.6226 69.0538H24.8065C24.8065 67.8527 25.2759 66.9646 26.2146 66.9646Z" fill="#151B20"/>
<path d="M40.7753 72.0908C40.4963 72.6296 39.9577 72.9725 39.112 72.9725C37.2346 72.9725 37.0096 71.586 37.0096 70.9024H44.2749C44.4068 67.6482 41.9281 64.8945 38.4177 64.8945C35.3009 64.8945 32.541 67.1499 32.541 70.1996C32.541 73.3601 35.2447 75.7645 38.4177 75.7645C42.7652 75.7645 43.8337 73.3409 44.0954 72.0929H40.7753V72.0908ZM38.4177 66.9646C39.3564 66.9646 39.8258 67.8527 39.8258 69.0538H37.0096C37.0096 67.8527 37.479 66.9646 38.4177 66.9646Z" fill="#151B20"/>
<path d="M99.8192 72.0908C99.5402 72.6296 99.0016 72.9725 98.1559 72.9725C96.2785 72.9725 96.0536 71.586 96.0536 70.9024H103.319C103.451 67.6482 100.972 64.8945 97.4616 64.8945C94.3449 64.8945 91.585 67.1499 91.585 70.1996C91.585 73.3601 94.2886 75.7645 97.4616 75.7645C101.809 75.7645 102.878 73.3409 103.139 72.0929H99.8192V72.0908ZM97.4616 66.9646C98.4003 66.9646 98.8697 67.8527 98.8697 69.0538H96.0536C96.0536 67.8527 96.5229 66.9646 97.4616 66.9646Z" fill="#151B20"/>
<path d="M79.6653 72.5447V65.1504H74.2818V68.1639H75.6855V70.9368C75.6855 72.1763 75.2529 73.0069 74.2775 73.0069C73.3388 73.0069 73.3388 72.1379 73.3388 70.9368V68.0532C73.3388 65.6956 72.0756 65.1504 69.904 65.1504H67.9336V68.1639H68.1131C68.8226 68.1639 69.3417 68.3961 69.3417 69.7292V72.5447C69.3417 74.3571 70.2241 75.7989 72.6271 75.7989C74.1736 75.7989 75.0453 75.1685 75.5817 73.9652L75.6877 73.7097C75.6877 73.7097 75.8261 75.5582 77.643 75.5582H80.4548V72.5447H79.6675H79.6653Z" fill="#151B20"/>
<path d="M56.541 72.5402C55.8316 72.5402 55.3125 72.308 55.3125 70.9749V68.1594C55.3125 66.347 54.43 64.9052 52.027 64.9052C51.0277 64.9052 50.3118 65.1693 49.7862 65.6804C49.3882 65.9871 49.1503 66.3342 49.0335 66.5813V62.1409H43.6543V65.1437H45.0559V75.5537H50.1928V72.5572H49.0357V69.5778C49.0357 69.22 49.0703 68.8963 49.1416 68.6173C49.3493 68.0423 49.7494 67.6951 50.3788 67.6951C51.3175 67.6951 51.3175 68.564 51.3175 69.7652V72.6488C51.3175 75.0064 52.5807 75.5516 54.7523 75.5516H56.7227V72.5381H56.5432L56.541 72.5402Z" fill="#151B20"/>
<path d="M87.737 68.8109L85.8596 68.3488C85.0896 68.1635 84.4948 67.9782 84.4883 67.5544C84.4818 66.9538 85.0896 66.9389 85.5914 66.9453C86.8221 66.9602 87.737 68.1124 87.737 68.1124H90.4406V64.9285H87.9619V66.0742C87.2676 65.1499 85.8596 64.9285 85.0139 64.9285C82.7601 64.9285 81.166 66.0742 81.166 68.385C81.166 69.7714 82.4421 71.1025 84.9209 71.6754L86.3289 71.9905C87.4363 72.2482 87.9619 72.4165 87.9619 72.9148C87.9619 73.4686 87.2482 73.5239 86.8913 73.5239C85.1069 73.5239 83.9821 72.5421 83.9821 72.5421H81.2612V75.5578H83.7377V74.3928C83.887 74.6505 84.9209 75.7984 87.0232 75.7984C89.7463 75.7984 91.4356 74.6335 91.4356 72.2674C91.4356 70.0674 89.4262 69.2177 87.737 68.8109Z" fill="#151B20"/>
<path d="M17.5978 86.4359C17.2798 86.7341 16.7348 87.0003 16.1465 87.0003C15.1018 87.0003 14.3145 86.3337 14.3145 85.2135C14.3145 84.0805 15.0996 83.416 16.1465 83.416C17.0614 83.416 17.5718 83.9186 17.5934 84.7322L16.7932 84.8962C16.7888 84.4766 16.5899 84.2104 16.1378 84.2104C15.5971 84.2104 15.2229 84.5746 15.2229 85.2135C15.2229 85.8439 15.5971 86.2081 16.1702 86.2081C16.5812 86.2081 16.9446 86.0228 17.1955 85.7991L17.6021 86.4402L17.5978 86.4359Z" fill="#151B20"/>
<path d="M19.918 83.4648H20.9432L22.2864 86.949H21.4017L21.1616 86.308H19.6779L19.4335 86.949H18.5488L19.918 83.4648ZM19.8963 85.6776H20.941L20.4306 84.3146L19.8942 85.6776H19.8963Z" fill="#151B20"/>
<path d="M23.4873 86.949V83.4648H24.3611V86.1994H26.1196V86.9469H23.4873V86.949Z" fill="#151B20"/>
<path d="M27.3916 83.4648H28.2654V86.949H27.3916V83.4648Z" fill="#151B20"/>
<path d="M30.7204 85.8118V86.949H29.8877V83.4648H32.6238V84.2188H30.7204V85.0579H32.3426V85.8118H30.7204Z" fill="#151B20"/>
<path d="M35.5588 83.4141C36.6035 83.4141 37.3843 84.1829 37.3843 85.2115C37.3843 86.2317 36.6035 86.9983 35.5588 86.9983C34.5228 86.9983 33.7441 86.2295 33.7441 85.2115C33.7441 84.1829 34.525 83.4141 35.5588 83.4141ZM35.5632 86.1912C36.1363 86.1912 36.5257 85.7653 36.5257 85.2137C36.5257 84.6493 36.1363 84.2297 35.5632 84.2297C35.0073 84.2297 34.6007 84.6493 34.6007 85.2137C34.6007 85.7674 35.0073 86.1912 35.5632 86.1912Z" fill="#151B20"/>
<path d="M38.8076 83.4648H40.4882C41.1739 83.4648 41.8465 83.7971 41.8465 84.6127C41.8465 85.1601 41.4572 85.5562 40.9208 85.6627C41.2387 85.9502 41.5502 86.2569 41.879 86.2569C41.9936 86.2569 42.145 86.2356 42.2532 86.1909L42.3354 86.866C42.1904 86.9384 41.9763 87.0001 41.7362 87.0001C40.9251 87.0001 40.3325 86.0056 39.8696 85.6946H39.6814V86.949H38.8076V83.4648ZM39.6814 84.2124V85.0728H40.4731C40.7586 85.0728 40.9403 84.8981 40.9403 84.6426C40.9403 84.387 40.7586 84.2124 40.4731 84.2124H39.6814Z" fill="#151B20"/>
<path d="M44.4051 84.8325V86.9473H43.5312V83.4631H44.2904L46.0705 85.5779V83.4631H46.9443V86.9473H46.1895L44.4051 84.8325Z" fill="#151B20"/>
<path d="M48.5732 83.4648H49.4471V86.949H48.5732V83.4648Z" fill="#151B20"/>
<path d="M51.9971 83.4648H53.0223L54.3655 86.949H53.4808L53.2407 86.308H51.757L51.5126 86.949H50.6279L51.9971 83.4648ZM51.9754 85.6776H53.0201L52.5097 84.3146L51.9733 85.6776H51.9754Z" fill="#151B20"/>
<path d="M58.4424 83.4648H59.4676L60.8108 86.949H59.9261L59.6861 86.308H58.2023L57.9579 86.949H57.0732L58.4424 83.4648ZM58.4207 85.6776H59.4654L58.955 84.3146L58.4186 85.6776H58.4207Z" fill="#151B20"/>
<path d="M62.0137 86.949V83.4648H62.8875V86.1994H64.646V86.9469H62.0137V86.949Z" fill="#151B20"/>
<path d="M69.0696 84.8172L68.0032 86.078H67.8518L66.7898 84.8172V86.949H65.916V83.4648H66.6709L67.9297 84.9194L69.1885 83.4648H69.9434V86.949H69.0696V84.8172Z" fill="#151B20"/>
<path d="M73.1672 83.4141C74.2119 83.4141 74.9927 84.1829 74.9927 85.2115C74.9927 86.2317 74.2119 86.9983 73.1672 86.9983C72.1225 86.9983 71.3525 86.2295 71.3525 85.2115C71.3525 84.1829 72.1334 83.4141 73.1672 83.4141ZM73.1716 86.1912C73.7447 86.1912 74.1341 85.7653 74.1341 85.2137C74.1341 84.6493 73.7447 84.2297 73.1716 84.2297C72.5984 84.2297 72.2091 84.6493 72.2091 85.2137C72.2091 85.7674 72.6157 86.1912 73.1716 86.1912Z" fill="#151B20"/>
<path d="M77.2898 84.8325V86.9473H76.416V83.4631H77.1752L78.9553 85.5779V83.4631H79.8291V86.9473H79.0743L77.2898 84.8325Z" fill="#151B20"/>
<path d="M81.458 83.4653H83.0456C84.0903 83.4695 84.8711 84.0807 84.8711 85.2116C84.8711 86.334 84.0903 86.9473 83.0456 86.9473H81.458V83.4631V83.4653ZM82.3318 84.2128V86.1998H83.0088C83.582 86.1998 83.9713 85.8463 83.9713 85.2116C83.9713 84.5663 83.582 84.2128 83.0088 84.2128H82.3318Z" fill="#151B20"/>
<path d="M86.9211 85.4476C86.3696 85.2985 86.1035 84.9876 86.1035 84.5041C86.1035 83.8993 86.588 83.418 87.5505 83.418C88.0545 83.418 88.5541 83.5521 88.831 83.6948L88.5822 84.4573C88.3119 84.289 87.8858 84.1548 87.5159 84.1548C87.146 84.1548 86.9946 84.272 86.9946 84.4424C86.9946 84.5957 87.0985 84.6575 87.3169 84.7192L87.942 84.9045C88.593 85.094 88.8894 85.3858 88.8894 85.8671C88.8894 86.538 88.3162 87.0001 87.4337 87.0001C86.9081 87.0001 86.3933 86.8255 86.1641 86.6977L86.3674 85.9182C86.6334 86.0971 87.0552 86.2611 87.4489 86.2611C87.8036 86.2611 87.9961 86.1184 87.9961 85.9289C87.9961 85.7755 87.8403 85.6925 87.5851 85.6222L86.9254 85.4476H86.9211Z" fill="#151B20"/>
<path d="M78.9101 56.2049C78.8798 56.1942 78.3023 55.9919 78.3001 55.9898C68.7595 52.6376 59.6514 51.7943 51.601 51.8219C43.3343 51.7943 33.9493 52.6823 24.1275 56.2666C24.1275 56.2666 23.9912 56.3795 23.9912 56.5712C23.9912 56.7628 24.1275 56.848 24.1275 56.848C31.3084 55.4126 43.8469 54.5458 51.601 54.5458C58.4099 54.5458 69.0406 55.2146 76.427 56.3497C76.4919 56.3603 77.8243 56.5733 78.3867 56.6755C78.5597 56.7096 78.7306 56.7415 78.9058 56.7756C78.9058 56.7756 79.0485 56.6947 79.0463 56.5052C79.0463 56.3135 78.9101 56.2027 78.9101 56.2027V56.2049Z" fill="#72A434"/>
<path d="M72.8142 12.1775C73.4004 12.9591 75.1091 12.5949 75.8077 11.6004C76.0521 11.2596 76.2273 10.8741 76.3376 10.4716C75.9483 10.314 75.5287 10.2139 75.1069 10.1948C73.8806 10.1309 72.5482 11.249 72.8121 12.1754L72.8142 12.1775Z" fill="#72A434"/>
<path d="M58.461 20.3616C59.0818 20.7109 60.107 19.9761 60.2736 19.1157C60.3341 18.8197 60.3341 18.513 60.2887 18.2148C59.9837 18.2234 59.6766 18.2766 59.3911 18.3873C58.5605 18.6983 58.009 19.8228 58.461 20.3616Z" fill="#72A434"/>
<path d="M53.0189 3.45434C53.8084 3.67796 54.7493 2.5833 54.6973 1.57808C54.6822 1.23094 54.6 0.890188 54.4659 0.568604C54.1263 0.658051 53.7997 0.800741 53.5121 1.00093C52.6707 1.57169 52.3657 2.97303 53.0189 3.45434Z" fill="#72A434"/>
<path d="M69.717 40.2921C69.5137 40.9673 70.474 41.7808 71.363 41.7446C71.6701 41.734 71.9729 41.6658 72.2563 41.5529C72.1784 41.2612 72.0551 40.98 71.8821 40.7309C71.3846 40.0068 70.1452 39.7342 69.717 40.29V40.2921Z" fill="#72A434"/>
<path d="M35.0842 40.5111C34.3986 40.3088 33.568 41.2502 33.6026 42.1255C33.6113 42.4279 33.6805 42.726 33.7929 43.0072C34.0893 42.9326 34.3748 42.8112 34.6278 42.6408C35.3654 42.1531 35.6487 40.935 35.0842 40.5111Z" fill="#72A434"/>
<path d="M62.2747 26.1547C61.7772 25.4306 60.5378 25.158 60.1096 25.7138C59.9062 26.389 60.8666 27.2025 61.7555 27.1663C62.0627 27.1557 62.3655 27.0875 62.6488 26.9746C62.571 26.6829 62.4477 26.4017 62.2747 26.1526V26.1547Z" fill="#72A434"/>
<path d="M65.7671 40.586C66.217 41.3441 67.7851 41.1823 68.5097 40.3581C68.7628 40.077 68.9574 39.7469 69.098 39.3976C68.7628 39.2187 68.3994 39.0866 68.0209 39.0313C66.9286 38.8566 65.62 39.7298 65.765 40.5881L65.7671 40.586Z" fill="#72A434"/>
<path d="M30.2393 41.363C29.9971 41.691 29.8197 42.0658 29.7051 42.4555C30.0836 42.6153 30.4902 42.7196 30.9012 42.743C32.0973 42.8218 33.4145 41.7506 33.1701 40.8412C32.6077 40.0703 30.9358 40.4025 30.2393 41.3609V41.363Z" fill="#72A434"/>
<path d="M40.2298 13.3216C40.9068 13.7007 42.0207 12.9021 42.2024 11.965C42.2673 11.6434 42.2694 11.3091 42.2197 10.9854C41.8866 10.9939 41.5535 11.0514 41.242 11.1728C40.3379 11.5114 39.7366 12.736 40.2298 13.3216Z" fill="#72A434"/>
<path d="M43.6084 7.58799C44.0432 6.9789 43.3575 5.8459 42.4556 5.58821C42.1463 5.49663 41.8175 5.46468 41.4952 5.48385C41.4736 5.80118 41.5017 6.12489 41.5904 6.43157C41.8413 7.32391 42.9898 8.00541 43.6084 7.59012V7.58799Z" fill="#72A434"/>
<path d="M37.3016 22.3957C37.9115 21.957 37.6347 20.6664 36.8646 20.1361C36.6008 19.9508 36.3001 19.8166 35.9887 19.7314C35.8632 20.0253 35.7853 20.3384 35.768 20.6579C35.714 21.5822 36.577 22.5916 37.2994 22.3957H37.3016Z" fill="#72A434"/>
<path d="M28.8439 31.8601C29.7567 31.4427 29.7372 29.6857 28.8721 28.7955C28.5757 28.4867 28.221 28.2354 27.836 28.0437C27.5959 28.3951 27.4078 28.7848 27.3039 29.198C26.9903 30.3906 27.849 31.9325 28.8461 31.8601H28.8439Z" fill="#72A434"/>
<path d="M30.0646 34.8626C29.9824 34.0192 28.5419 33.5379 27.5686 33.9702C27.2312 34.1172 26.9262 34.328 26.6602 34.5772C26.8786 34.869 27.1447 35.1267 27.4518 35.3269C28.3364 35.9147 29.8418 35.6719 30.0646 34.8626Z" fill="#72A434"/>
<path d="M24.2546 27.9973C24.6634 27.0091 23.3418 25.644 21.9987 25.5652C21.5358 25.5354 21.0686 25.595 20.623 25.7207C20.6944 26.17 20.8372 26.613 21.0621 27.0134C21.7023 28.1783 23.5235 28.7725 24.2546 27.9973Z" fill="#72A434"/>
<path d="M52.0283 12.6546C53.1206 12.3649 53.4386 10.4205 52.6556 9.27261C52.3895 8.87435 52.0435 8.52934 51.6563 8.24609C51.3211 8.58898 51.0399 8.9851 50.8431 9.42169C50.2634 10.6825 50.9144 12.5481 52.0283 12.6567V12.6546Z" fill="#72A434"/>
<path d="M65.3314 28.7341C66.4086 28.7724 67.2543 27.0899 66.8693 25.827C66.7395 25.3904 66.5232 24.9815 66.2529 24.6152C65.8505 24.8346 65.4785 25.1178 65.1757 25.4607C64.2868 26.4468 64.3473 28.3273 65.3314 28.7341Z" fill="#72A434"/>
<path d="M61.7268 19.4288C62.6569 19.7567 63.8703 18.5194 63.8898 17.3097C63.9006 16.8923 63.827 16.477 63.6929 16.083C63.2798 16.1639 62.8754 16.3109 62.5141 16.526C61.4608 17.1436 60.9806 18.8026 61.7268 19.4288Z" fill="#72A434"/>
<path d="M46.4208 19.7547C46.0574 19.5418 46.7193 19.9336 46.4208 19.7547V19.7547Z" fill="#72A434"/>
<path d="M49.3943 19.0859C49.2558 18.1232 47.5752 17.644 46.4808 18.1914C46.1023 18.3767 45.7605 18.6344 45.4707 18.9346C45.7367 19.2562 46.0569 19.5395 46.4202 19.7546C47.4671 20.3828 49.1801 20.025 49.3943 19.0859Z" fill="#72A434"/>
<path d="M69.2455 17.7552C70.3876 18.4793 72.4056 17.1887 72.8122 15.5765C72.9571 15.0228 72.9917 14.4413 72.9355 13.8706C72.3558 13.8535 71.7675 13.926 71.216 14.1049C69.6089 14.6117 68.4453 16.6882 69.2477 17.7552H69.2455Z" fill="#72A434"/>
<path d="M50.8501 6.45089C52.1176 5.68845 51.7888 3.11791 50.37 1.95509C49.8833 1.55045 49.3188 1.24164 48.724 1.02441C48.4298 1.58027 48.2222 2.18297 48.14 2.80484C47.8826 4.60444 49.4053 6.72136 50.8523 6.45302L50.8501 6.45089Z" fill="#72A434"/>
<path d="M27.6959 18.0744C27.2265 16.8008 24.7976 16.6241 23.4652 17.6783C23.0023 18.0382 22.613 18.4854 22.3037 18.9795C22.7623 19.3437 23.2792 19.6397 23.8372 19.8293C25.4486 20.3915 27.6786 19.4182 27.698 18.0765L27.6959 18.0744Z" fill="#72A434"/>
<path d="M49.7841 21.2118C50.0782 20.6559 49.5353 21.6696 49.7841 21.2118V21.2118Z" fill="#72A434"/>
<path d="M51.0571 25.5545C52.515 25.267 53.1011 22.7412 52.1732 21.1694C51.8574 20.6242 51.4357 20.1429 50.9512 19.7383C50.4818 20.16 50.0773 20.6562 49.781 21.212C48.9115 22.8157 49.6037 25.3181 51.055 25.5545H51.0571Z" fill="#72A434"/>
<path d="M56.4651 30.2821C56.8998 31.7345 59.597 32.1008 61.1586 31.0147C61.6993 30.6441 62.1665 30.1713 62.545 29.6432C62.0606 29.2066 61.5025 28.8403 60.8947 28.5911C59.1363 27.8542 56.5775 28.787 56.4629 30.2821H56.4651Z" fill="#72A434"/>
<path d="M59.5798 41.382C60.5444 42.5618 63.1789 41.8888 64.2019 40.2979C64.5588 39.7527 64.8076 39.1415 64.9546 38.509C64.336 38.2875 63.6807 38.1576 63.021 38.1555C61.109 38.1342 59.1061 39.9551 59.5776 41.382H59.5798Z" fill="#72A434"/>
<path d="M70.9775 24.5571C71.4793 24.2802 71.9249 23.9075 72.3012 23.4816C71.9162 23.0599 71.4642 22.6957 70.958 22.4295C69.4937 21.6415 67.1902 22.2378 66.9609 23.5284C67.214 24.8275 69.5262 25.3706 70.9775 24.5571Z" fill="#72A434"/>
<path d="M72.7924 39.6316C72.667 40.7752 74.4492 41.8039 75.8638 41.4929C76.3526 41.3886 76.8198 41.1905 77.2415 40.9307C77.0317 40.4856 76.7506 40.0682 76.398 39.7189C75.3836 38.6988 73.3158 38.6157 72.7924 39.6316Z" fill="#72A434"/>
<path d="M25.7961 21.7764C24.9093 21.6869 24.0095 21.7721 23.1465 21.9872C23.2546 22.8561 23.5012 23.7144 23.9035 24.496C25.0542 26.7748 28.5149 28.0292 29.9662 26.5895C30.8162 24.7196 28.3678 22.0128 25.7939 21.7785L25.7961 21.7764Z" fill="#72A434"/>
<path d="M74.2029 16.7922C75.213 17.8421 77.6679 16.9987 78.5179 15.4079C78.8164 14.8627 79.0024 14.2599 79.0933 13.6487C78.4877 13.4847 77.8539 13.4102 77.2267 13.4592C75.4055 13.5848 73.6427 15.4696 74.2051 16.7922H74.2029Z" fill="#72A434"/>
<path d="M57.265 16.1898C58.3659 17.4208 61.1842 16.5625 62.2116 14.7927C62.5706 14.1858 62.8085 13.5106 62.9362 12.8206C62.257 12.6098 61.5411 12.5012 60.8273 12.531C58.7595 12.6013 56.681 14.6671 57.265 16.1877V16.1898Z" fill="#72A434"/>
<path d="M68.3438 32.5058C68.5644 34.0136 71.1988 34.7568 72.9118 33.8964C73.5045 33.6047 74.0366 33.1979 74.4929 32.7251C74.0733 32.2204 73.5715 31.7774 73.0027 31.4452C71.3589 30.4634 68.6768 31.032 68.3438 32.5058Z" fill="#72A434"/>
<path d="M54.3325 9.11685C56.0996 9.54918 58.0917 7.05317 57.897 4.83403C57.8364 4.06947 57.6245 3.31768 57.3044 2.61914C56.5603 2.84489 55.8487 3.18564 55.2258 3.64991C53.4089 4.97885 52.8487 8.10737 54.3325 9.11898V9.11685Z" fill="#72A434"/>
<path d="M34.6413 13.3447C36.0753 12.2394 35.3075 9.15773 33.4128 7.93955C32.7639 7.51361 32.0307 7.21545 31.2758 7.03442C30.999 7.75 30.8324 8.51244 30.8194 9.28126C30.7632 11.5089 32.9196 13.8729 34.6413 13.3447Z" fill="#72A434"/>
<path d="M79.6946 23.8056C78.5331 25.3454 78.8597 28.0629 80.337 28.5314C81.903 28.4547 82.913 25.9097 82.195 24.1293C81.9527 23.5138 81.5872 22.9452 81.1459 22.449C80.5901 22.8174 80.0883 23.2732 79.6925 23.8077L79.6946 23.8056Z" fill="#72A434"/>
<path d="M66.6068 9.57315C68.1597 9.59871 69.3299 7.15169 68.7394 5.34357C68.5404 4.71957 68.2181 4.1339 67.8158 3.61426C67.2427 3.94223 66.7149 4.35965 66.2888 4.86226C65.0386 6.30833 65.1771 9.01304 66.6068 9.57315Z" fill="#72A434"/>
<path d="M45.7071 17.1393C47.1671 16.6175 47.3725 13.9192 46.1656 12.439C45.7547 11.9258 45.2399 11.4934 44.6775 11.1484C44.2601 11.6574 43.9205 12.2303 43.7042 12.8501C43.0597 14.6411 44.1714 17.118 45.7092 17.1393H45.7071Z" fill="#72A434"/>
<path d="M26.5776 32.5329C26.8523 31.1742 24.8256 29.7494 23.0931 29.9773C22.4962 30.0497 21.9143 30.2392 21.3779 30.5076C21.5812 31.0656 21.8754 31.5937 22.2604 32.0495C23.3678 33.3827 25.84 33.6979 26.5776 32.5329Z" fill="#72A434"/>
<path d="M31.2882 17.3272C30.7258 16.9758 30.0964 16.7372 29.4497 16.5967C29.2269 17.2122 29.0993 17.866 29.1036 18.5198C29.0993 20.4195 30.9832 22.3937 32.441 21.9124C33.6414 20.9434 32.9277 18.3324 31.2903 17.3293L31.2882 17.3272Z" fill="#72A434"/>
<path d="M61.8142 5.95673C62.939 6.34434 64.3925 4.83864 64.4054 3.3798C64.4141 2.87719 64.3232 2.37458 64.1567 1.89966C63.6571 2.00188 63.1726 2.18078 62.7378 2.44486C61.4703 3.2009 60.9101 5.20708 61.8142 5.9546V5.95673Z" fill="#72A434"/>
<path d="M77.0737 24.2596C77.9778 24.5727 79.1458 23.3609 79.1566 22.1895C79.1631 21.7849 79.0895 21.3824 78.9576 20.999C78.5575 21.0821 78.166 21.2248 77.8178 21.4377C76.799 22.0447 76.3491 23.6569 77.0759 24.2596H77.0737Z" fill="#72A434"/>
<path d="M79.7946 36.3049C78.4773 36.6947 77.4997 38.3665 78.1356 39.246C79.0548 39.853 80.716 38.8329 81.0728 37.5252C81.2004 37.0759 81.2351 36.6031 81.1983 36.1388C80.7268 36.1175 80.2466 36.1665 79.7946 36.3049Z" fill="#72A434"/>
<path d="M78.661 32.0258C79.1628 31.8661 79.63 31.6084 80.0432 31.2911C79.7749 30.846 79.4354 30.4392 79.0266 30.1112C77.8543 29.1486 75.6784 29.2806 75.2393 30.3987C75.2306 31.6084 77.2097 32.5008 78.6589 32.0258H78.661Z" fill="#72A434"/>
<path d="M75.4686 29.1362C76.4787 29.0638 77.0908 27.4048 76.5998 26.2654C76.4333 25.8714 76.1889 25.5115 75.8969 25.1963C75.5443 25.4433 75.2264 25.7436 74.9798 26.095C74.2531 27.1066 74.5061 28.8551 75.4686 29.1362Z" fill="#72A434"/>
<path d="M64.5887 11.82C65.4408 11.1364 64.9391 9.28778 63.7819 8.57433C63.3861 8.32516 62.9405 8.15478 62.482 8.05469C62.3241 8.48915 62.2332 8.95129 62.2354 9.41556C62.2289 10.7594 63.5591 12.1586 64.5908 11.82H64.5887Z" fill="#72A434"/>
<path d="M38.3415 11.8582C39.2694 11.4365 39.25 9.65608 38.374 8.75309C38.0755 8.43789 37.7143 8.18446 37.325 7.98853C37.0805 8.34419 36.8902 8.74031 36.7842 9.15773C36.4641 10.3674 37.3336 11.9306 38.3415 11.8582Z" fill="#72A434"/>
<path d="M32.32 25.9568C33.3928 26.3571 34.829 24.943 34.8766 23.5396C34.8982 23.0561 34.8204 22.5705 34.6733 22.1084C34.1909 22.1957 33.7194 22.3554 33.2955 22.6004C32.0583 23.2989 31.4678 25.2156 32.32 25.9568Z" fill="#72A434"/>
<path d="M28.2558 15.4146C28.9544 14.682 28.2601 13.0379 27.1051 12.5225C26.7093 12.3415 26.2767 12.2393 25.842 12.2009C25.7511 12.6205 25.7252 13.0571 25.7857 13.4851C25.9479 14.7246 27.3495 15.8534 28.2579 15.4146H28.2558Z" fill="#72A434"/>
<path d="M40.2033 15.6792C40.5948 14.6399 39.1759 13.2641 37.7787 13.2279C37.2963 13.2109 36.814 13.2876 36.3555 13.4324C36.4463 13.8988 36.6085 14.3524 36.8551 14.7592C37.5581 15.9497 39.4701 16.5055 40.2033 15.6771V15.6792Z" fill="#72A434"/>
<path d="M42.3845 25.3794C43.148 24.3423 41.9995 22.3766 40.4552 21.9102C39.9252 21.744 39.3629 21.6823 38.807 21.7057C38.7616 22.2509 38.8005 22.8068 38.9454 23.3371C39.3542 24.8768 41.3095 26.078 42.3845 25.3816V25.3794Z" fill="#72A434"/>
<path d="M26.0288 38.4157C25.4729 38.3901 24.9127 38.4732 24.3828 38.6351C24.4801 39.1739 24.664 39.702 24.943 40.1748C25.7411 41.5591 27.943 42.2257 28.7995 41.278C29.2645 40.0832 27.6445 38.4732 26.0288 38.4136V38.4157Z" fill="#72A434"/>
<path d="M40.1304 4.17408C40.2537 3.23489 38.8046 2.35958 37.6344 2.59385C37.23 2.67052 36.8428 2.82599 36.4902 3.0347C36.6568 3.40526 36.8796 3.7524 37.1651 4.04417C37.9827 4.90031 39.6827 5.00254 40.1304 4.17408Z" fill="#72A434"/>
<path d="M43.9656 4.18267C44.6404 3.33292 43.7363 1.64407 42.4494 1.20323C42.0082 1.04776 41.5366 0.979608 41.0673 0.981738C41.011 1.43962 41.0262 1.90816 41.1322 2.35752C41.4285 3.66516 43.0355 4.7364 43.9634 4.18054L43.9656 4.18267Z" fill="#72A434"/>
<path d="M82.4327 31.3917C77.0578 35.8002 73.7939 36.0919 72.8704 36.2623L62.9404 34.0836C62.9404 34.0836 70.0369 30.067 71.8365 29.1491L74.2741 23.9888C74.445 23.646 74.6072 23.4202 74.4774 23.2605C74.3022 23.0475 74.2568 22.9517 74.2568 22.9517C73.4846 23.1966 70.5539 27.9842 70.5539 27.9842C70.5539 27.9842 55.3571 34.9163 55.3571 34.6842C55.3528 33.8706 54.9137 30.5249 55.2339 29.8072C55.701 28.7658 55.8568 27.9011 56.6441 27.0833C58.2273 25.437 59.1444 24.9366 61.2836 24.0378C63.453 23.1242 65.7651 21.6547 68.0751 21.1755C70.569 20.6601 73.1386 20.4067 76.3851 19.7955C78.6973 19.3589 81.2149 18.4708 80.2005 17.4187C79.1775 18.0512 78.1371 18.4325 76.8653 18.6433C76.145 18.7626 72.1436 19.3461 70.409 19.3227C69.9569 19.3163 67.7118 19.4505 67.3506 19.1417C66.9872 18.8286 66.8726 16.2772 66.9461 15.7682C67.0542 15.0079 67.3333 14.0559 68.1876 13.2807C69.3707 12.2052 70.4587 11.0616 71.6418 9.98608C72.7211 9.00642 73.8675 8.33343 73.171 7.61359C73.171 7.61359 66.2799 13.0869 65.7305 14.2157C65.2006 15.3018 64.8308 17.391 64.8351 18.5986C64.8394 20.017 63.6022 20.4259 61.9324 21.0584C61.2641 21.3118 58.2684 22.6024 57.6996 22.0125C57.4746 21.7782 55.5994 17.7254 55.3918 16.0706C55.3896 16.0515 55.3874 16.0323 55.3874 16.0131C55.3571 15.8342 55.3247 15.5829 55.3874 15.2017C55.4501 14.8205 55.647 14.1731 55.6816 14.1177C55.8222 13.8877 57.0226 12.6887 57.1243 12.6056C57.293 12.4352 57.4638 12.2712 57.6282 12.1179C58.037 11.7388 58.4155 11.4194 58.6794 11.1872C60.639 9.46643 60.3578 9.69218 60.4206 7.6285C60.4422 6.89163 59.895 2.58538 58.515 3.59911C59.5575 5.56056 59.9036 8.21843 58.1495 9.95626C57.0226 11.0722 55.714 11.8304 54.5958 12.9527C54.399 13.1508 54.1935 13.3553 54.0442 13.5661C53.8669 13.8174 53.5879 15.1825 53.3218 16.0685C52.5259 15.4211 50.3175 13.5555 49.7833 12.2542C49.5692 11.7303 45.0897 0.274653 45.0897 0.274653C44.7242 -0.193881 44.0472 0.0254778 44.1186 0.29382C44.4235 1.43534 46.4848 7.03219 46.2923 8.09916C46.2923 8.09916 43.2058 8.71039 42.0789 8.3313C41.3868 8.09916 38.1013 5.84807 37.4676 5.26241C36.5765 6.15688 37.5692 6.32726 38.2917 6.99385C39.2152 7.8436 41.8086 9.37698 41.8086 9.37698C42.3796 9.65384 46.2209 9.64746 46.8287 10.0202C47.2116 10.2565 48.5374 14.2668 49.6816 15.6873C50.8626 17.1546 52.8525 18.8456 53.6008 20.132C54.0205 20.8539 54.3622 23.4202 54.0096 24.1358C53.5706 25.0303 52.6751 25.9354 51.877 26.5637C51.2649 27.0471 50.5749 27.292 49.6968 26.7383C49.2685 26.4678 48.864 25.5819 48.5699 25.173C47.6485 23.893 43.2037 17.8638 42.7105 17.6274C42.0854 17.3271 35.9341 16.7138 35.5577 16.5392C34.5368 16.0685 30.5678 12.5928 29.6746 11.9028C28.4633 10.9657 28.4395 10.5015 27.1764 11.3895C28.1259 12.2095 34.2254 17.8191 35.1879 18.179C36.8663 18.8052 40.5497 19.1629 41.3435 19.902C41.7631 20.2938 43.2599 22.5066 43.66 23.367C44.5685 25.322 44.9232 25.9162 45.8165 27.8777C47.3738 31.2873 47.8496 33.3467 47.6463 37.1184C47.0753 37.0695 45.9614 37.0695 44.5555 37.0929V28.6614L37.8136 24.8791L31.0718 28.6614V37.2441C29.2744 37.0609 24.9464 35.8917 22.3963 34.3605C22.3963 34.3605 22.1778 34.7843 22.3617 35.1911C22.3617 35.1911 28.1151 38.4112 29.6032 38.7839C32.4604 39.3291 40.9975 39.9744 42.6045 40.0872C43.5432 40.1533 47.0796 40.3492 47.6009 41.1074C48.3579 42.2042 48.0075 45.4903 47.9145 46.8341C47.8064 48.4165 46.554 52.2073 45.6153 53.351H59.3088C56.2526 48.6273 56.391 41.1798 56.3975 40.871C56.8236 37.7531 62.4905 36.6776 63.0247 36.7415C63.0247 36.7415 72.1739 38.2429 73.171 38.0811C73.171 38.0811 78.8703 36.701 82.7831 32.0987C82.7831 32.0987 82.6468 31.5258 82.4327 31.3895V31.3917ZM41.6009 37.1589C40.2859 37.193 38.8886 37.2313 37.5303 37.2611V30.5611H41.6009V37.1589Z" fill="#72A434"/>
<path d="M43.8988 41.9506L43.9139 41.3778L42.9492 41.3522L43.2131 36.9693L42.6313 36.9246L42.2744 41.3352L39.4799 41.2606L39.7676 37.7211L39.1317 37.4762L38.8418 41.2436L37.7604 41.2159L37.7452 41.7888L38.7986 41.8165L38.6407 43.8802L37.689 43.8056L37.6436 44.3785L38.5974 44.453L38.4785 46.012L37.6328 45.8906L37.5484 46.4592L38.433 46.5849L38.286 48.5037L37.0444 48.4058L36.999 48.9787L38.2449 49.0766L38.1108 50.8145L37.2564 50.7868L37.2369 51.3597L38.0653 51.3852L37.8426 54.2901L38.4244 54.3348L38.6623 51.4044L41.4547 51.4917L41.2038 54.5819L42.1792 54.1687L42.3393 51.5194L43.3883 51.5535L43.4078 50.9806L42.3739 50.9486L42.4669 49.4089L43.1331 49.4621L43.1785 48.8892L42.4993 48.836L42.5988 47.1812L43.6392 47.3303L43.7236 46.7616L42.6356 46.6062L42.7459 44.781L43.7798 44.8619L43.8252 44.2891L42.7805 44.206L42.9168 41.9272L43.8988 41.9528V41.9506ZM41.5001 50.9167L38.7077 50.8294L38.8462 49.1192L41.6277 49.3386L41.5001 50.9167ZM41.6753 48.7657L38.8937 48.5463L39.0452 46.6679L41.8115 47.0619L41.6731 48.7657H41.6753ZM41.8591 46.489L39.0927 46.095L39.2225 44.4978L42.004 44.7171L41.8613 46.489H41.8591ZM42.0495 44.1442L39.2679 43.9249L39.4388 41.8293L42.2333 41.9038L42.0516 44.1442H42.0495Z" fill="#72A434"/>
</g>
<defs>
<clipPath id="clip0_95_3115">
<rect width="104" height="91" fill="white"/>
</clipPath>
</defs>
</svg>
