<svg width="97" height="76" viewBox="0 0 97 76" fill="none" xmlns="http://www.w3.org/2000/svg">
<path d="M5.03949 64.6032V62.847H7.66406V59.9841H5.03949V57.1313H2.5016C2.5016 59.3266 1.31228 59.9841 0 59.9841V62.847H1.31228V66.853C1.31228 68.68 2.53789 69.8818 4.81171 69.8818C4.83388 69.8818 4.85404 69.8818 4.87621 69.8818H7.64188V67.0169H6.57351C5.1423 67.0169 5.03949 66.5961 5.03949 65.9142V64.6052V64.6032Z" fill="white"/>
<path d="M13.4555 67.0188H14.7678V69.8817H8.41602V67.0188H9.7283V62.857H8.41602V59.9941H13.4555V61.6633C13.7014 61.2242 14.2437 59.7837 16.2897 59.7837C18.5817 59.7837 18.7046 62.1023 18.7046 62.857V64.3845H15.4149C15.4149 63.5065 15.4491 62.5414 14.54 62.594C13.7357 62.6284 13.4555 63.4539 13.4555 64.3845V67.0188Z" fill="white"/>
<path d="M58.1071 59.7495C60.9937 59.7495 63.3381 62.0681 63.3381 64.9128C63.3381 67.7393 60.9756 70.0579 58.089 70.0579C55.2024 70.0579 52.8398 67.7393 52.8398 64.8946C52.8398 62.0499 55.2024 59.7495 58.1071 59.7495ZM56.7767 64.8946C56.7767 66.5638 57.2141 67.4237 58.089 67.4237C58.9638 67.4237 59.4013 66.58 59.4013 64.8946C59.4013 63.2254 58.9638 62.3838 58.089 62.3838C57.2323 62.3838 56.7767 63.2275 56.7767 64.8946Z" fill="white"/>
<path d="M96.9254 60.6093C96.9254 61.1049 96.5282 61.4975 96.0243 61.4975C95.5203 61.4975 95.1172 61.1049 95.1172 60.6093C95.1172 60.1136 95.5204 59.7251 96.0303 59.7251C96.5403 59.7251 96.9274 60.1136 96.9274 60.6093H96.9254ZM95.343 60.6093C95.343 61.0018 95.6373 61.3154 96.0303 61.3154C96.4113 61.3214 96.7016 61.0038 96.7016 60.6153C96.7016 60.2228 96.4113 59.9052 96.0203 59.9052C95.6292 59.9052 95.345 60.2228 95.345 60.6113L95.343 60.6093ZM95.8852 61.0665H95.6816V60.1823C95.7622 60.1722 95.8751 60.156 96.0203 60.156C96.1876 60.156 96.2622 60.1823 96.3206 60.2269C96.375 60.2653 96.4113 60.33 96.4113 60.415C96.4113 60.5 96.3307 60.5931 96.2299 60.6254V60.6356C96.3166 60.6619 96.3589 60.7327 96.3851 60.85C96.4113 60.9856 96.4335 61.0341 96.4496 61.0645H96.236C96.2098 61.0321 96.1936 60.9573 96.1654 60.85C96.1493 60.759 96.0949 60.7145 95.982 60.7145H95.8852V61.0645V61.0665ZM95.8913 60.5708H95.988C96.1009 60.5708 96.1916 60.5324 96.1916 60.4413C96.1916 60.3604 96.1332 60.3058 96.0041 60.3058C95.9497 60.3058 95.9134 60.3118 95.8913 60.3159V60.5688V60.5708Z" fill="white"/>
<path d="M26.6282 66.586C26.3682 67.0979 25.8663 67.4237 25.0781 67.4237C23.3284 67.4237 23.1187 66.1065 23.1187 65.4571H29.8898C30.0128 62.3656 27.7027 59.7495 24.431 59.7495C21.5263 59.7495 18.9541 61.8921 18.9541 64.7894C18.9541 67.7919 21.4738 70.0761 24.431 70.0761C28.4828 70.0761 29.4786 67.7737 29.7225 66.5881H26.6282V66.586ZM24.431 61.7161C25.3059 61.7161 25.7433 62.5598 25.7433 63.7009H23.1187C23.1187 62.5598 23.5562 61.7161 24.431 61.7161Z" fill="white"/>
<path d="M38.0013 66.586C37.7412 67.0979 37.2393 67.4237 36.4511 67.4237C34.7014 67.4237 34.4918 66.1065 34.4918 65.4571H41.2628C41.3858 62.3656 39.0757 59.7495 35.8041 59.7495C32.8993 59.7495 30.3271 61.8921 30.3271 64.7894C30.3271 67.7919 32.8469 70.0761 35.8041 70.0761C39.8558 70.0761 40.8516 67.7737 41.0955 66.5881H38.0013V66.586ZM35.8041 61.7161C36.6789 61.7161 37.1164 62.5598 37.1164 63.7009H34.4918C34.4918 62.5598 34.9292 61.7161 35.8041 61.7161Z" fill="white"/>
<path d="M93.0286 66.586C92.7686 67.0979 92.2667 67.4237 91.4785 67.4237C89.7288 67.4237 89.5191 66.1065 89.5191 65.4571H96.2902C96.4131 62.3656 94.103 59.7495 90.8314 59.7495C87.9267 59.7495 85.3545 61.8921 85.3545 64.7894C85.3545 67.7919 87.8742 70.0761 90.8314 70.0761C94.8832 70.0761 95.879 67.7737 96.1229 66.5881H93.0286V66.586ZM90.8314 61.7161C91.7063 61.7161 92.1437 62.5598 92.1437 63.7009H89.5191C89.5191 62.5598 89.9566 61.7161 90.8314 61.7161Z" fill="white"/>
<path d="M74.2452 67.0164V59.9917H69.2279V62.8546H70.5361V65.4888C70.5361 66.6664 70.133 67.4554 69.2239 67.4554C68.349 67.4554 68.349 66.63 68.349 65.4888V62.7494C68.349 60.5097 67.1718 59.9917 65.1479 59.9917H63.3115V62.8546H63.4788C64.14 62.8546 64.6238 63.0751 64.6238 64.3417V67.0164C64.6238 68.7382 65.4463 70.1079 67.6858 70.1079C69.1271 70.1079 69.9395 69.509 70.4394 68.3659L70.5382 68.1231C70.5382 68.1231 70.6672 69.8793 72.3604 69.8793H74.981V67.0164H74.2472H74.2452Z" fill="white"/>
<path d="M52.6947 67.0128C52.0335 67.0128 51.5497 66.7923 51.5497 65.5257V62.851C51.5497 61.1292 50.7273 59.7595 48.4877 59.7595C47.5564 59.7595 46.8892 60.0103 46.3993 60.4959C46.0284 60.7873 45.8067 61.1171 45.6979 61.3518V57.1333H40.6846V59.9861H41.9908V69.8757H46.7783V67.029H45.6999V64.1985C45.6999 63.8586 45.7321 63.551 45.7986 63.286C45.9922 62.7397 46.3651 62.4099 46.9517 62.4099C47.8265 62.4099 47.8265 63.2354 47.8265 64.3765V67.116C47.8265 69.3557 49.0038 69.8736 51.0276 69.8736H52.864V67.0108H52.6967L52.6947 67.0128Z" fill="white"/>
<path d="M81.7685 63.4701L80.0188 63.0311C79.3012 62.855 78.7468 62.679 78.7408 62.2764C78.7347 61.7058 79.3012 61.6917 79.7688 61.6977C80.9158 61.7119 81.7685 62.8065 81.7685 62.8065H84.2883V59.7817H81.9782V60.8702C81.3311 59.9922 80.0188 59.7817 79.2306 59.7817C77.1302 59.7817 75.6445 60.8702 75.6445 63.0655C75.6445 64.3826 76.8338 65.6471 79.144 66.1914L80.4562 66.4908C81.4883 66.7356 81.9782 66.8955 81.9782 67.3689C81.9782 67.8949 81.313 67.9475 80.9803 67.9475C79.3173 67.9475 78.2691 67.0148 78.2691 67.0148H75.7332V69.8797H78.0413V68.773C78.1804 69.0178 79.144 70.1084 81.1033 70.1084C83.6412 70.1084 85.2155 69.0016 85.2155 66.7538C85.2155 64.6638 83.3429 63.8565 81.7685 63.4701Z" fill="white"/>
<path d="M16.4008 75.4642C16.1045 75.7474 15.5965 76.0003 15.0482 76.0003C14.0746 76.0003 13.3408 75.3671 13.3408 74.3028C13.3408 73.2265 14.0726 72.5952 15.0482 72.5952C15.9009 72.5952 16.3766 73.0727 16.3968 73.8456L15.6509 74.0014C15.6469 73.6028 15.4614 73.3499 15.0401 73.3499C14.5362 73.3499 14.1875 73.6959 14.1875 74.3028C14.1875 74.9017 14.5362 75.2477 15.0704 75.2477C15.4534 75.2477 15.792 75.0717 16.0259 74.8592L16.4048 75.4682L16.4008 75.4642Z" fill="white"/>
<path d="M18.5641 72.6411H19.5196L20.7714 75.9511H19.9469L19.7232 75.3421H18.3403L18.1125 75.9511H17.2881L18.5641 72.6411ZM18.5439 74.7433H19.5176L19.0418 73.4484L18.5419 74.7433H18.5439Z" fill="white"/>
<path d="M21.8906 75.9511V72.6411H22.705V75.239H24.3438V75.9491H21.8906V75.9511Z" fill="white"/>
<path d="M25.5283 72.6411H26.3427V75.9511H25.5283V72.6411Z" fill="white"/>
<path d="M28.6306 74.8707V75.9511H27.8545V72.6411H30.4045V73.3573H28.6306V74.1545H30.1424V74.8707H28.6306Z" fill="white"/>
<path d="M33.1405 72.5928C34.1141 72.5928 34.8418 73.3232 34.8418 74.3004C34.8418 75.2695 34.1141 75.9979 33.1405 75.9979C32.1749 75.9979 31.4492 75.2675 31.4492 74.3004C31.4492 73.3232 32.1769 72.5928 33.1405 72.5928ZM33.1445 75.2311C33.6787 75.2311 34.0415 74.8264 34.0415 74.3024C34.0415 73.7663 33.6787 73.3677 33.1445 73.3677C32.6264 73.3677 32.2475 73.7663 32.2475 74.3024C32.2475 74.8285 32.6264 75.2311 33.1445 75.2311Z" fill="white"/>
<path d="M36.168 72.6411H37.7342C38.3733 72.6411 39.0002 72.9567 39.0002 73.7316C39.0002 74.2516 38.6373 74.6279 38.1374 74.7291C38.4337 75.0022 38.724 75.2936 39.0304 75.2936C39.1372 75.2936 39.2783 75.2733 39.3791 75.2309L39.4557 75.8722C39.3207 75.941 39.1211 75.9997 38.8974 75.9997C38.1414 75.9997 37.5891 75.0548 37.1577 74.7594H36.9824V75.9511H36.168V72.6411ZM36.9824 73.3513V74.1687H37.7201C37.9862 74.1687 38.1555 74.0028 38.1555 73.76C38.1555 73.5172 37.9862 73.3513 37.7201 73.3513H36.9824Z" fill="white"/>
<path d="M41.3847 73.9406V75.9497H40.5703V72.6396H41.2779L42.9369 74.6487V72.6396H43.7512V75.9497H43.0477L41.3847 73.9406Z" fill="white"/>
<path d="M45.2695 72.6411H46.0839V75.9511H45.2695V72.6411Z" fill="white"/>
<path d="M48.4606 72.6411H49.4161L50.6679 75.9511H49.8434L49.6196 75.3421H48.2368L48.009 75.9511H47.1846L48.4606 72.6411ZM48.4404 74.7433H49.414L48.9383 73.4484L48.4384 74.7433H48.4404Z" fill="white"/>
<path d="M54.4674 72.6411H55.4229L56.6747 75.9511H55.8502L55.6265 75.3421H54.2437L54.0159 75.9511H53.1914L54.4674 72.6411ZM54.4472 74.7433H55.4209L54.9452 73.4484L54.4452 74.7433H54.4472Z" fill="white"/>
<path d="M57.7949 75.9511V72.6411H58.6093V75.239H60.2481V75.9491H57.7949V75.9511Z" fill="white"/>
<path d="M64.3707 73.9259L63.3769 75.1236H63.2358L62.246 73.9259V75.9511H61.4316V72.6411H62.1352L63.3083 74.023L64.4815 72.6411H65.1851V75.9511H64.3707V73.9259Z" fill="white"/>
<path d="M68.1912 72.5928C69.1649 72.5928 69.8926 73.3232 69.8926 74.3004C69.8926 75.2695 69.1649 75.9979 68.1912 75.9979C67.2176 75.9979 66.5 75.2675 66.5 74.3004C66.5 73.3232 67.2277 72.5928 68.1912 72.5928ZM68.1953 75.2311C68.7295 75.2311 69.0923 74.8264 69.0923 74.3024C69.0923 73.7663 68.7295 73.3677 68.1953 73.3677C67.6611 73.3677 67.2983 73.7663 67.2983 74.3024C67.2983 74.8285 67.6772 75.2311 68.1953 75.2311Z" fill="white"/>
<path d="M72.0331 73.9406V75.9497H71.2188V72.6396H71.9263L73.5853 74.6487V72.6396H74.3997V75.9497H73.6962L72.0331 73.9406Z" fill="white"/>
<path d="M75.918 72.6417H77.3976C78.3712 72.6457 79.0989 73.2264 79.0989 74.3007C79.0989 75.367 78.3712 75.9497 77.3976 75.9497H75.918V72.6396V72.6417ZM76.7324 73.3518V75.2395H77.3633C77.8975 75.2395 78.2603 74.9037 78.2603 74.3007C78.2603 73.6877 77.8975 73.3518 77.3633 73.3518H76.7324Z" fill="white"/>
<path d="M81.01 74.5248C80.496 74.3832 80.248 74.0878 80.248 73.6285C80.248 73.0539 80.6996 72.5967 81.5966 72.5967C82.0663 72.5967 82.5319 72.7241 82.79 72.8597L82.5581 73.584C82.3062 73.4242 81.9091 73.2967 81.5644 73.2967C81.2197 73.2967 81.0786 73.408 81.0786 73.5699C81.0786 73.7155 81.1753 73.7742 81.3789 73.8329L81.9615 74.0089C82.5682 74.189 82.8444 74.4662 82.8444 74.9234C82.8444 75.5607 82.3102 75.9998 81.4878 75.9998C80.9979 75.9998 80.5182 75.8339 80.3045 75.7125L80.494 74.972C80.7419 75.1419 81.135 75.2977 81.5019 75.2977C81.8325 75.2977 82.0119 75.1621 82.0119 74.9821C82.0119 74.8364 81.8667 74.7575 81.6289 74.6907L81.0141 74.5248H81.01Z" fill="white"/>
<path d="M73.5425 53.3939C73.5142 53.3838 72.976 53.1916 72.974 53.1896C64.0823 50.005 55.5938 49.2038 48.091 49.2301C40.3866 49.2038 31.6401 50.0475 22.4864 53.4526C22.4864 53.4526 22.3594 53.5599 22.3594 53.7419C22.3594 53.924 22.4864 54.005 22.4864 54.005C29.1788 52.6413 40.8644 51.8178 48.091 51.8178C54.4367 51.8178 64.3444 52.4531 71.2283 53.5315C71.2888 53.5416 72.5305 53.744 73.0546 53.8411C73.2159 53.8735 73.3751 53.9038 73.5384 53.9362C73.5384 53.9362 73.6715 53.8593 73.6694 53.6792C73.6694 53.4971 73.5425 53.3919 73.5425 53.3919V53.3939Z" fill="#72A434"/>
<path d="M67.8616 11.5678C68.4079 12.3103 70.0003 11.9643 70.6514 11.0195C70.8792 10.6957 71.0425 10.3295 71.1453 9.94715C70.7825 9.79743 70.3914 9.70234 69.9983 9.68413C68.8554 9.62343 67.6136 10.6856 67.8596 11.5657L67.8616 11.5678Z" fill="#72A434"/>
<path d="M54.4852 19.3431C55.0637 19.675 56.0192 18.9769 56.1744 18.1595C56.2308 17.8783 56.2308 17.587 56.1885 17.3037C55.9043 17.3118 55.618 17.3624 55.3519 17.4676C54.5779 17.763 54.0639 18.8313 54.4852 19.3431Z" fill="#72A434"/>
<path d="M49.4129 3.28055C50.1486 3.49299 51.0255 2.45305 50.9771 1.49808C50.963 1.16829 50.8864 0.844572 50.7614 0.539062C50.445 0.624039 50.1406 0.759596 49.8725 0.94978C49.0883 1.49201 48.8041 2.8233 49.4129 3.28055Z" fill="#72A434"/>
<path d="M64.9749 38.2768C64.7854 38.9181 65.6804 39.691 66.5089 39.6566C66.7951 39.6465 67.0774 39.5818 67.3414 39.4745C67.2689 39.1973 67.154 38.9303 66.9927 38.6936C66.5291 38.0056 65.374 37.7467 64.9749 38.2747V38.2768Z" fill="#72A434"/>
<path d="M32.6982 38.4853C32.0592 38.2931 31.2851 39.1874 31.3174 40.019C31.3254 40.3063 31.39 40.5895 31.4948 40.8566C31.7709 40.7858 32.037 40.6704 32.2729 40.5086C32.9603 40.0453 33.2243 38.888 32.6982 38.4853Z" fill="#72A434"/>
<path d="M58.0386 24.8464C57.575 24.1585 56.4199 23.8995 56.0208 24.4276C55.8313 25.0689 56.7263 25.8418 57.5548 25.8074C57.841 25.7973 58.1232 25.7326 58.3873 25.6253C58.3147 25.3481 58.1999 25.0811 58.0386 24.8444V24.8464Z" fill="#72A434"/>
<path d="M61.2945 38.5559C61.7138 39.2762 63.1753 39.1225 63.8506 38.3395C64.0864 38.0724 64.2678 37.7588 64.3989 37.427C64.0864 37.257 63.7478 37.1316 63.395 37.079C62.377 36.9131 61.1575 37.7426 61.2925 38.558L61.2945 38.5559Z" fill="#72A434"/>
<path d="M28.1825 39.2941C27.9567 39.6057 27.7914 39.9618 27.6846 40.332C28.0373 40.4837 28.4163 40.5829 28.7993 40.6051C29.914 40.68 31.1417 39.6623 30.9139 38.7984C30.3898 38.066 28.8316 38.3816 28.1825 39.2921V39.2941Z" fill="#72A434"/>
<path d="M37.4941 12.6541C38.125 13.0142 39.1632 12.2555 39.3325 11.3653C39.393 11.0598 39.395 10.7421 39.3486 10.4346C39.0382 10.4427 38.7278 10.4973 38.4375 10.6126C37.5949 10.9343 37.0345 12.0977 37.4941 12.6541Z" fill="#72A434"/>
<path d="M40.6419 7.20813C41.0471 6.62949 40.4081 5.55312 39.5675 5.30831C39.2792 5.22131 38.9728 5.19096 38.6725 5.20917C38.6523 5.51063 38.6785 5.81817 38.7612 6.10951C38.995 6.95725 40.0654 7.60469 40.6419 7.21016V7.20813Z" fill="#72A434"/>
<path d="M34.7645 21.2757C35.3329 20.8589 35.0749 19.6328 34.3573 19.129C34.1113 18.953 33.8311 18.8256 33.5409 18.7446C33.424 19.0238 33.3514 19.3213 33.3353 19.6247C33.2849 20.5028 34.0892 21.4618 34.7624 21.2757H34.7645Z" fill="#72A434"/>
<path d="M26.8822 30.2663C27.7328 29.8697 27.7147 28.2005 26.9084 27.3548C26.6322 27.0615 26.3016 26.8227 25.9428 26.6406C25.7191 26.9745 25.5437 27.3447 25.4469 27.7372C25.1546 28.8702 25.9549 30.3351 26.8842 30.2663H26.8822Z" fill="#72A434"/>
<path d="M28.0195 33.119C27.9429 32.3178 26.6004 31.8605 25.6933 32.2712C25.3788 32.4109 25.0946 32.6112 24.8467 32.8479C25.0503 33.1251 25.2982 33.3699 25.5845 33.5601C26.4089 34.1185 27.8119 33.8878 28.0195 33.119Z" fill="#72A434"/>
<path d="M22.6052 26.5965C22.9862 25.6578 21.7546 24.3609 20.5027 24.286C20.0714 24.2577 19.636 24.3143 19.2207 24.4337C19.2872 24.8606 19.4203 25.2814 19.6299 25.6618C20.2266 26.7685 21.9239 27.333 22.6052 26.5965Z" fill="#72A434"/>
<path d="M48.4896 12.0211C49.5076 11.746 49.8039 9.89874 49.0742 8.80821C48.8263 8.42986 48.5038 8.1021 48.1429 7.83301C47.8305 8.15875 47.5684 8.53507 47.385 8.94984C46.8448 10.1476 47.4515 11.92 48.4896 12.0231V12.0211Z" fill="#72A434"/>
<path d="M60.8866 27.2967C61.8905 27.3332 62.6787 25.7348 62.3198 24.535C62.1989 24.1202 61.9973 23.7318 61.7453 23.3838C61.3704 23.5922 61.0237 23.8613 60.7415 24.187C59.913 25.1238 59.9694 26.9103 60.8866 27.2967Z" fill="#72A434"/>
<path d="M57.5284 18.4568C58.3952 18.7684 59.5261 17.5929 59.5442 16.4437C59.5543 16.0472 59.4858 15.6526 59.3608 15.2783C58.9758 15.3552 58.5988 15.4948 58.2622 15.6992C57.2805 16.2859 56.833 17.862 57.5284 18.4568Z" fill="#72A434"/>
<path d="M43.2629 18.7668C42.9238 18.564 43.5415 18.9371 43.2629 18.7668V18.7668Z" fill="#72A434"/>
<path d="M46.0346 18.1317C45.9056 17.2172 44.3393 16.7619 43.3193 17.2819C42.9665 17.4579 42.648 17.7027 42.3779 17.988C42.6259 18.2935 42.9242 18.5626 43.2629 18.767C44.2385 19.3638 45.835 19.0239 46.0346 18.1317Z" fill="#72A434"/>
<path d="M64.5356 16.8665C65.5999 17.5544 67.4807 16.3283 67.8596 14.7967C67.9947 14.2707 68.027 13.7184 67.9745 13.1761C67.4343 13.1599 66.886 13.2287 66.372 13.3987C64.8743 13.8802 63.7898 15.8529 64.5376 16.8665H64.5356Z" fill="#72A434"/>
<path d="M47.3914 6.12739C48.5726 5.40307 48.2662 2.96101 46.9439 1.85632C46.4903 1.47191 45.9642 1.17854 45.4098 0.972168C45.1357 1.50023 44.9422 2.07281 44.8656 2.6636C44.6257 4.37324 46.0448 6.38434 47.3934 6.12941L47.3914 6.12739Z" fill="#72A434"/>
<path d="M25.8125 17.1706C25.3751 15.9607 23.1113 15.7928 21.8696 16.7943C21.4382 17.1362 21.0754 17.5611 20.7871 18.0305C21.2145 18.3764 21.6962 18.6577 22.2163 18.8377C23.7181 19.3719 25.7964 18.4473 25.8145 17.1726L25.8125 17.1706Z" fill="#72A434"/>
<path d="M46.3978 20.1506C46.6723 19.6213 46.1656 20.5866 46.3978 20.1506V20.1506Z" fill="#72A434"/>
<path d="M47.5849 24.276C48.9436 24.0028 49.4899 21.6033 48.6251 20.1101C48.3308 19.5922 47.9377 19.1349 47.4862 18.7505C47.0487 19.1511 46.6718 19.6225 46.3956 20.1506C45.5853 21.6741 46.2303 24.0514 47.5829 24.276H47.5849Z" fill="#72A434"/>
<path d="M52.6241 28.7674C53.0293 30.1473 55.543 30.4953 56.9984 29.4634C57.5023 29.1114 57.9377 28.6622 58.2905 28.1605C57.839 27.7457 57.3189 27.3977 56.7524 27.161C55.1136 26.4609 52.7289 27.3471 52.6221 28.7674H52.6241Z" fill="#72A434"/>
<path d="M55.527 39.3125C56.4261 40.4333 58.8813 39.794 59.8348 38.2826C60.1674 37.7647 60.3992 37.184 60.5363 36.5831C59.9598 36.3727 59.349 36.2493 58.7341 36.2472C56.9522 36.227 55.0856 37.9569 55.525 39.3125H55.527Z" fill="#72A434"/>
<path d="M66.1506 23.329C66.6182 23.066 67.0335 22.7119 67.3842 22.3073C67.0254 21.9067 66.6041 21.5607 66.1324 21.3078C64.7677 20.5592 62.6209 21.1257 62.4072 22.3518C62.6431 23.586 64.798 24.1019 66.1506 23.329Z" fill="#72A434"/>
<path d="M67.8418 37.6495C67.7249 38.736 69.3859 39.7132 70.7042 39.4178C71.1598 39.3187 71.5952 39.1305 71.9883 38.8837C71.7927 38.4608 71.5307 38.0642 71.2021 37.7324C70.2567 36.7633 68.3296 36.6844 67.8418 37.6495Z" fill="#72A434"/>
<path d="M24.0426 20.6867C23.2161 20.6017 22.3775 20.6827 21.5732 20.887C21.674 21.7125 21.9038 22.5279 22.2788 23.2704C23.3512 25.4353 26.5764 26.627 27.929 25.2592C28.7213 23.4828 26.4394 20.9113 24.0406 20.6887L24.0426 20.6867Z" fill="#72A434"/>
<path d="M69.1558 15.952C70.0971 16.9494 72.3851 16.1482 73.1773 14.6369C73.4555 14.1189 73.6288 13.5463 73.7135 12.9657C73.1491 12.8099 72.5584 12.7391 71.9738 12.7856C70.2765 12.905 68.6337 14.6955 69.1578 15.952H69.1558Z" fill="#72A434"/>
<path d="M53.3705 15.38C54.3965 16.5494 57.0231 15.734 57.9806 14.0527C58.3152 13.4761 58.537 12.8347 58.6559 12.1792C58.0229 11.9789 57.3557 11.8757 56.6905 11.904C54.7634 11.9708 52.8262 13.9333 53.3705 15.3779V15.38Z" fill="#72A434"/>
<path d="M63.6953 30.8795C63.9009 32.3119 66.3562 33.018 67.9527 32.2006C68.505 31.9235 69.0009 31.537 69.4262 31.0879C69.0352 30.6083 68.5675 30.1875 68.0373 29.8719C66.5053 28.9392 64.0057 29.4794 63.6953 30.8795Z" fill="#72A434"/>
<path d="M50.637 8.66021C52.2839 9.07093 54.1404 6.69969 53.959 4.59148C53.9026 3.86513 53.705 3.15093 53.4067 2.4873C52.7133 2.70177 52.0501 3.02549 51.4695 3.46655C49.7762 4.72906 49.2541 7.7012 50.637 8.66224V8.66021Z" fill="#72A434"/>
<path d="M32.2846 12.6765C33.6211 11.6264 32.9055 8.69881 31.1396 7.54152C30.5349 7.13687 29.8515 6.85362 29.148 6.68164C28.89 7.36145 28.7348 8.08577 28.7227 8.81616C28.6703 10.9325 30.68 13.1783 32.2846 12.6765Z" fill="#72A434"/>
<path d="M74.2738 22.615C73.1914 24.0778 73.4958 26.6594 74.8725 27.1045C76.332 27.0317 77.2734 24.6139 76.6041 22.9225C76.3783 22.3378 76.0377 21.7976 75.6265 21.3262C75.1084 21.6762 74.6407 22.1092 74.2718 22.617L74.2738 22.615Z" fill="#72A434"/>
<path d="M62.0759 9.09316C63.5233 9.11744 64.6138 6.79273 64.0635 5.075C63.878 4.48219 63.5777 3.9258 63.2027 3.43213C62.6686 3.74371 62.1767 4.14026 61.7796 4.61775C60.6145 5.99153 60.7435 8.56105 62.0759 9.09316Z" fill="#72A434"/>
<path d="M42.5982 16.2822C43.9588 15.7865 44.1503 13.2231 43.0255 11.8169C42.6425 11.3293 42.1628 10.9186 41.6387 10.5908C41.2496 11.0744 40.9331 11.6186 40.7316 12.2074C40.1308 13.9089 41.167 16.262 42.6002 16.2822H42.5982Z" fill="#72A434"/>
<path d="M24.7698 30.9064C25.0258 29.6156 23.137 28.262 21.5224 28.4785C20.966 28.5473 20.4237 28.7274 19.9238 28.9823C20.1133 29.5124 20.3875 30.0142 20.7463 30.4471C21.7784 31.7137 24.0824 32.0131 24.7698 30.9064Z" fill="#72A434"/>
<path d="M29.1601 16.4601C28.636 16.1263 28.0494 15.8996 27.4467 15.7661C27.239 16.3508 27.1201 16.972 27.1241 17.5931C27.1201 19.3978 28.8759 21.2734 30.2345 20.8161C31.3533 19.8955 30.6881 17.4151 29.1621 16.4621L29.1601 16.4601Z" fill="#72A434"/>
<path d="M57.6092 5.65799C58.6574 6.02622 60.0121 4.59578 60.0242 3.20986C60.0322 2.73238 59.9476 2.25489 59.7923 1.80371C59.3267 1.90083 58.8751 2.07078 58.47 2.32166C57.2887 3.03991 56.7666 4.9458 57.6092 5.65596V5.65799Z" fill="#72A434"/>
<path d="M71.8308 23.0458C72.6734 23.3432 73.7619 22.192 73.772 21.0792C73.7781 20.6948 73.7095 20.3124 73.5866 19.9482C73.2136 20.0271 72.8488 20.1627 72.5242 20.365C71.5748 20.9417 71.1555 22.4732 71.8328 23.0458H71.8308Z" fill="#72A434"/>
<path d="M74.3664 34.489C73.1388 34.8593 72.2276 36.4475 72.8203 37.2831C73.677 37.8597 75.2251 36.8906 75.5577 35.6483C75.6767 35.2214 75.7089 34.7723 75.6747 34.3312C75.2352 34.311 74.7877 34.3575 74.3664 34.489Z" fill="#72A434"/>
<path d="M73.3111 30.4243C73.7788 30.2725 74.2142 30.0277 74.5992 29.7263C74.3492 29.3034 74.0327 28.917 73.6518 28.6054C72.5592 27.6909 70.5313 27.8163 70.1221 28.8785C70.114 30.0277 71.9585 30.8755 73.3091 30.4243H73.3111Z" fill="#72A434"/>
<path d="M70.3346 27.679C71.276 27.6102 71.8464 26.0341 71.3888 24.9517C71.2336 24.5774 71.0058 24.2355 70.7337 23.936C70.4051 24.1707 70.1088 24.456 69.879 24.7898C69.2017 25.7509 69.4376 27.412 70.3346 27.679Z" fill="#72A434"/>
<path d="M60.1962 11.228C60.9904 10.5785 60.5227 8.82234 59.4443 8.14455C59.0754 7.90783 58.6601 7.74597 58.2328 7.65088C58.0856 8.06362 58.0009 8.50266 58.003 8.94373C57.9969 10.2204 59.2366 11.5497 60.1982 11.228H60.1962Z" fill="#72A434"/>
<path d="M35.7339 11.2641C36.5987 10.8635 36.5806 9.17209 35.7642 8.31423C35.486 8.01479 35.1494 7.77403 34.7865 7.58789C34.5587 7.92577 34.3813 8.3021 34.2826 8.69865C33.9842 9.84785 34.7946 11.3329 35.7339 11.2641Z" fill="#72A434"/>
<path d="M30.1218 24.6584C31.1217 25.0388 32.4602 23.6954 32.5045 22.3621C32.5247 21.9028 32.4521 21.4415 32.315 21.0024C31.8655 21.0854 31.4261 21.2371 31.031 21.4698C29.8779 22.1334 29.3276 23.9544 30.1218 24.6584Z" fill="#72A434"/>
<path d="M26.3346 14.6429C26.9857 13.9469 26.3386 12.385 25.2621 11.8954C24.8933 11.7234 24.4901 11.6263 24.0849 11.5898C24.0003 11.9884 23.9761 12.4032 24.0325 12.8099C24.1837 13.9874 25.4899 15.0597 26.3366 14.6429H26.3346Z" fill="#72A434"/>
<path d="M37.4699 14.894C37.8348 13.9066 36.5124 12.5996 35.2102 12.5652C34.7607 12.549 34.3111 12.6219 33.8838 12.7594C33.9685 13.2025 34.1196 13.6335 34.3494 14.0199C35.0046 15.1509 36.7865 15.679 37.4699 14.8919V14.894Z" fill="#72A434"/>
<path d="M39.5012 24.1099C40.2128 23.1246 39.1424 21.2571 37.7031 20.814C37.2093 20.6562 36.6852 20.5975 36.1671 20.6198C36.1248 21.1377 36.1611 21.6658 36.2961 22.1696C36.6771 23.6324 38.4994 24.7735 39.5012 24.1119V24.1099Z" fill="#72A434"/>
<path d="M24.2577 36.4941C23.7396 36.4698 23.2175 36.5487 22.7236 36.7025C22.8143 37.2144 22.9857 37.7161 23.2457 38.1653C23.9896 39.4804 26.0416 40.1137 26.8399 39.2133C27.2733 38.0783 25.7635 36.5487 24.2577 36.4921V36.4941Z" fill="#72A434"/>
<path d="M37.4014 3.96451C37.5163 3.07226 36.1657 2.24071 35.0751 2.46327C34.6982 2.5361 34.3374 2.6838 34.0088 2.88208C34.164 3.23412 34.3716 3.56391 34.6377 3.84109C35.3997 4.65444 36.9841 4.75155 37.4014 3.96451Z" fill="#72A434"/>
<path d="M40.9753 3.97262C41.6042 3.16534 40.7616 1.56091 39.5622 1.1421C39.151 0.994407 38.7115 0.929663 38.2741 0.931687C38.2217 1.36668 38.2358 1.8118 38.3346 2.2387C38.6107 3.48097 40.1085 4.49866 40.9732 3.97059L40.9753 3.97262Z" fill="#72A434"/>
<path d="M76.8258 29.8216C71.8165 34.0097 68.7747 34.2869 67.9139 34.4487L58.6594 32.379C58.6594 32.379 65.2732 28.5631 66.9504 27.6911L69.2222 22.7888C69.3814 22.463 69.5326 22.2486 69.4117 22.0968C69.2484 21.8945 69.2061 21.8035 69.2061 21.8035C68.4864 22.0361 65.755 26.5844 65.755 26.5844C65.755 26.5844 51.592 33.17 51.592 32.9495C51.588 32.1766 51.1788 28.9981 51.4771 28.3163C51.9125 27.3269 52.0577 26.5055 52.7914 25.7286C54.267 24.1646 55.1217 23.6891 57.1153 22.8353C59.1372 21.9674 61.292 20.5713 63.4449 20.1161C65.7691 19.6265 68.1639 19.3857 71.1896 18.805C73.3445 18.3903 75.6909 17.5466 74.7455 16.5471C73.792 17.148 72.8224 17.5102 71.6371 17.7105C70.9658 17.8238 67.2366 18.3781 65.62 18.3559C65.1987 18.3498 63.1063 18.4773 62.7696 18.1839C62.431 17.8865 62.3241 15.4626 62.3927 14.9791C62.4935 14.2568 62.7535 13.3524 63.5497 12.6159C64.6524 11.5942 65.6663 10.5077 66.769 9.48598C67.7748 8.55529 68.8432 7.91594 68.1941 7.23209C68.1941 7.23209 61.7718 12.4318 61.2598 13.5041C60.7659 14.536 60.4212 16.5208 60.4253 17.668C60.4293 19.0154 59.2762 19.4039 57.7201 20.0048C57.0972 20.2456 54.3053 21.4717 53.7751 20.9112C53.5655 20.6887 51.8178 16.8384 51.6243 15.2664C51.6223 15.2482 51.6202 15.23 51.6202 15.2118C51.592 15.0418 51.5618 14.8031 51.6202 14.4409C51.6787 14.0787 51.8621 13.4637 51.8944 13.4111C52.0254 13.1926 53.1442 12.0535 53.2389 11.9746C53.3962 11.8127 53.5554 11.6569 53.7086 11.5112C54.0896 11.1511 54.4424 10.8476 54.6883 10.6271C56.5146 8.9923 56.2526 9.20677 56.311 7.24625C56.3312 6.54621 55.8212 2.45521 54.5351 3.41828C55.5067 5.28168 55.8292 7.80669 54.1944 9.45765C53.1442 10.5178 51.9246 11.2381 50.8825 12.3044C50.699 12.4925 50.5075 12.6867 50.3684 12.887C50.2031 13.1258 49.9431 14.4227 49.6952 15.2644C48.9534 14.6493 46.8952 12.8769 46.3973 11.6407C46.1978 11.143 42.023 0.259996 42.023 0.259996C41.6824 -0.185117 41.0514 0.0232765 41.118 0.278205C41.4022 1.36266 43.3232 6.67974 43.1438 7.69338C43.1438 7.69338 40.2673 8.27405 39.2171 7.91392C38.572 7.69338 35.51 5.55482 34.9194 4.99843C34.0889 5.84819 35.0141 6.01005 35.6874 6.64332C36.5481 7.4506 38.9651 8.90733 38.9651 8.90733C39.4973 9.17035 43.0773 9.16428 43.6437 9.51835C44.0005 9.74293 45.2362 13.5527 46.3026 14.9022C47.4032 16.2962 49.2577 17.9027 49.9552 19.1247C50.3463 19.8106 50.6648 22.2486 50.3362 22.9284C49.927 23.7782 49.0924 24.638 48.3486 25.2349C47.7781 25.6942 47.1351 25.9268 46.3167 25.4008C45.9176 25.1438 45.5406 24.3022 45.2665 23.9137C44.4077 22.6977 40.2653 16.9699 39.8057 16.7454C39.2231 16.4601 33.4902 15.8774 33.1394 15.7115C32.188 15.2644 28.489 11.9624 27.6565 11.3069C26.5276 10.4167 26.5055 9.9756 25.3282 10.8193C26.2132 11.5982 31.8977 16.9275 32.7947 17.2694C34.359 17.8642 37.7919 18.2041 38.5317 18.9062C38.9228 19.2785 40.3177 21.3806 40.6906 22.198C41.5372 24.0553 41.8678 24.6198 42.7004 26.4832C44.1517 29.7224 44.5952 31.6789 44.4057 35.2621C43.8735 35.2155 42.8354 35.2155 41.5251 35.2378V27.2278L35.2419 23.6345L28.9587 27.2278V35.3814C27.2835 35.2074 23.2499 34.0967 20.8733 32.642C20.8733 32.642 20.6697 33.0446 20.8411 33.431C20.8411 33.431 26.2031 36.4902 27.5899 36.8442C30.2528 37.3622 38.2092 37.9752 39.7069 38.0825C40.5818 38.1452 43.8776 38.3313 44.3634 39.0516C45.0689 40.0936 44.7424 43.2154 44.6557 44.4921C44.5549 45.9954 43.3877 49.5967 42.5129 50.6832H55.2749C52.4266 46.1957 52.5556 39.1204 52.5616 38.827C52.9587 35.865 58.2401 34.8433 58.738 34.904C58.738 34.904 67.2648 36.3303 68.1941 36.1766C68.1941 36.1766 73.5057 34.8655 77.1523 30.4933C77.1523 30.4933 77.0253 29.949 76.8258 29.8196V29.8216ZM38.7716 35.3005C37.546 35.3329 36.2438 35.3693 34.9778 35.3976V29.0325H38.7716V35.3005Z" fill="#72A434"/>
<path d="M40.9128 39.853L40.9269 39.3087L40.0279 39.2844L40.2738 35.1206L39.7316 35.0781L39.3989 39.2683L36.7945 39.1974L37.0626 35.8348L36.47 35.6021L36.1999 39.1813L35.192 39.155L35.1779 39.6992L36.1596 39.7255L36.0124 41.686L35.1255 41.6152L35.0831 42.1595L35.9721 42.2303L35.8612 43.7113L35.0731 43.596L34.9944 44.1362L35.8189 44.2556L35.6818 46.0785L34.5248 45.9854L34.4824 46.5297L35.6435 46.6227L35.5185 48.2737L34.7223 48.2474L34.7042 48.7917L35.4762 48.8159L35.2686 51.5756L35.8108 51.6181L36.0326 48.8341L38.635 48.9171L38.4011 51.8528L39.3103 51.4603L39.4594 48.9434L40.4371 48.9758L40.4552 48.4315L39.4917 48.4012L39.5784 46.9384L40.1992 46.9889L40.2416 46.4447L39.6086 46.3941L39.7013 44.8221L40.6709 44.9637L40.7495 44.4235L39.7356 44.2758L39.8384 42.5419L40.8019 42.6187L40.8443 42.0745L39.8706 41.9956L39.9976 39.8307L40.9128 39.855V39.853ZM38.6773 48.3708L36.0749 48.2879L36.2039 46.6632L38.7962 46.8716L38.6773 48.3708ZM38.8406 46.3273L36.2483 46.119L36.3894 44.3345L38.9676 44.7088L38.8386 46.3273H38.8406ZM39.0119 44.1645L36.4337 43.7902L36.5547 42.2728L39.147 42.4812L39.0139 44.1645H39.0119ZM39.1893 41.9369L36.597 41.7285L36.7562 39.7377L39.3606 39.8085L39.1913 41.9369H39.1893Z" fill="#72A434"/>
</svg>
