<svg width="331" height="128" viewBox="0 0 331 128" fill="none" xmlns="http://www.w3.org/2000/svg">
<g clip-path="url(#clip0_4292_81750)">
<path d="M344.468 10.6616H679V0L164 -1V128C187.165 127.898 205.477 120.318 219.985 104.846C232.531 91.4671 240.146 74.5254 246.866 59.5738L246.871 59.563L246.939 59.4125C249.511 53.6941 251.94 48.2945 254.439 43.5934C272.55 9.54362 326.68 10.6342 344.468 10.6616Z" fill="white"/>
<path d="M-15.1289 10.579H-366V0H165V128C141.878 127.899 123.601 120.378 109.12 105.025C96.5976 91.7502 88.9973 74.9397 82.2897 60.104L82.2849 60.0935L82.2173 59.944C79.6495 54.27 77.2248 48.9123 74.731 44.2477C56.6581 10.4689 2.64804 10.5517 -15.1179 10.579L-15.1289 10.579Z" fill="white"/>
</g>
<defs>
<clipPath id="clip0_4292_81750">
<rect width="331" height="128" fill="white"/>
</clipPath>
</defs>
</svg>
