<svg width="360" height="116" viewBox="0 0 360 116" fill="none" xmlns="http://www.w3.org/2000/svg">
<g clip-path="url(#clip0_4361_63804)">
<g clip-path="url(#clip1_4361_63804)">
<rect x="-783" width="1920" height="46" fill="#151B20"/>
<path fill-rule="evenodd" clip-rule="evenodd" d="M123.804 97.3708C94.7053 75.4615 64.507 47 28.0825 47H-790.5C-803.479 47 -814 36.4787 -814 23.5V23.5C-814 10.5213 -803.479 0 -790.5 0H29.0753C65.16 0 95.1517 -27.9462 124.05 -49.5558C139.537 -61.1361 158.758 -68 179.5 -68C200.242 -68 219.463 -61.1361 234.95 -49.5558C263.848 -27.9462 293.84 0 329.925 0H1148.5C1161.48 0 1172 10.5213 1172 23.5V23.5C1172 36.4787 1161.48 47 1148.5 47H330.917C294.493 47 264.295 75.4615 235.196 97.3708C219.668 109.063 200.352 116 179.5 116C158.648 116 139.332 109.063 123.804 97.3708Z" fill="#151B20"/>
</g>
</g>
<defs>
<clipPath id="clip0_4361_63804">
<rect width="360" height="116" fill="white"/>
</clipPath>
<clipPath id="clip1_4361_63804">
<rect width="360" height="116" fill="white"/>
</clipPath>
</defs>
</svg>
