<svg width="51" height="62" viewBox="0 0 51 62" fill="none" xmlns="http://www.w3.org/2000/svg">
<path d="M8.45399 30.302L19.176 27.5728L27.5238 21.0796C28.3606 20.4291 28.5539 19.2244 27.9631 18.337C27.3393 17.4005 26.0809 17.1635 25.1717 17.8162L16.9095 23.7283L5.88441 25.2192C3.43781 25.55 1.60835 27.6734 1.60835 30.1857V43.1811C1.60835 45.3895 2.57909 47.4838 4.25261 48.8898L5.84487 50.2264C6.52351 50.7964 7.07696 51.5049 7.46789 52.3051L11.711 60.9978M12.2798 29.3297V44.1601L18.1547 61M4.25481 48.8898L1 61M9.06015 55.564L7.08574 61M39.0782 44.7167L29.8957 42.3787C28.9031 42.1261 28.0333 41.5137 27.4513 40.6576L22.4418 33.2859C22.064 32.7316 22.0113 32.0119 22.3034 31.4061C22.9052 30.1544 24.5919 29.9913 25.4154 31.1044L30.6732 38.2257L41.6478 39.6339C44.0943 39.9647 45.9238 42.0881 45.9238 44.6004V57.5958C45.9238 58.7961 45.6383 59.9606 45.109 61M35.2545 43.7444V58.5748L34.409 61M25.231 27.1124L31.8811 35.3624L34.0971 35.7268M24.1592 35.8117L22.1189 52.3722M25.8108 22.414L24.8049 30.5724M26.4213 17.4519L28.3057 2.16321C36.5811 -1.36391 40.0972 4.41181 50 2.77118C50 2.77118 48.3528 6.6604 45.1068 8.56031C45.9743 11.2805 48.6845 13.4353 48.6845 13.4353C38.7839 15.0736 35.2677 9.30016 26.9901 12.8273M9.21389 16.4595C10.8764 19.1082 11.1048 21.1489 9.57407 22.1435C7.6348 23.4042 5.14647 22.4162 3.67061 20.0648C2.69329 18.5069 3.13912 16.4371 4.66989 15.4402C6.20066 14.4456 8.23437 14.8993 9.21389 16.4572V16.4595ZM39.3088 30.2059C36.8512 32.108 35.9442 33.9431 37.0445 35.4161C38.4369 37.2802 41.1075 37.2266 43.2905 35.5368C44.7356 34.4169 45.0168 32.3181 43.9187 30.8451C42.8183 29.3744 40.7561 29.0883 39.3088 30.2059Z" stroke="white" stroke-width="1.5" stroke-linecap="round" stroke-linejoin="round"/>
</svg>
