<svg width="464" height="335" viewBox="0 0 464 335" fill="none" xmlns="http://www.w3.org/2000/svg">
<g opacity="0.4" clip-path="url(#clip0_3169_49078)">
<path d="M330.498 282.975C327.02 283.341 323.694 284.347 320.46 285.567C315.578 286.086 310.788 287.916 306.364 289.868C300.75 292.338 295.593 295.754 290.712 299.445C280.612 307.07 271.581 315.762 264.777 326.498C251.383 347.573 249.155 374.169 257.637 397.47C260.475 405.278 264.441 412.842 268.774 419.918C272.71 426.384 277.348 433.826 274.937 441.664C274.846 442 275.273 442.152 275.456 441.908C275.67 441.573 275.883 441.268 276.066 440.932C276.097 440.932 276.127 440.871 276.158 440.841C277.805 438.309 279.087 436.022 280.002 433.124C280.979 430.013 281.406 426.689 281.741 423.456C282.443 416.472 282.504 409.457 282.718 402.472C282.931 395.213 283.358 387.985 284.823 380.848C285.799 375.999 287.447 371.454 289.491 367.032C289.705 366.666 289.888 366.3 290.01 365.934C290.742 364.409 291.505 362.884 292.329 361.389C295.471 355.564 298.828 349.86 301.421 343.791C304.045 337.691 305.143 331.317 305.51 324.729C305.906 318.08 305.418 311.37 307.127 304.874C308.622 299.231 312.466 295.571 317.531 292.948C321.711 290.783 326.257 289.41 330.62 287.641C332.665 287.458 335.044 286.635 334.739 284.439C334.495 282.609 331.749 282.914 330.498 283.036L330.498 282.975Z" fill="#FBE6D1"/>
<path d="M329.156 287.183C320.918 289.989 313.931 291.026 308.408 298.987C304.96 303.958 304.533 308.167 304.35 314.054C304.045 323.661 303.862 330.554 302.458 336.105C301.207 340.924 297.272 348.61 295.014 353.001C294.281 350.928 291.841 345.59 290.498 343.913C288.881 341.93 287.02 340.131 285.403 338.118C284.548 337.05 283.816 335.891 283.236 334.671C282.962 334.092 282.809 333.512 282.687 332.902C284.121 329.242 285.708 325.613 287.416 322.075C292.207 312.01 302.031 299.078 311.276 291.514C311.49 291.362 307.279 294.168 307.096 294.32C298.4 301.274 291.596 311.4 286.226 320.946C280.307 331.499 276.921 343.516 274.663 355.38C274.022 358.674 273.534 359.04 273.198 362.365C270.269 366.604 263.77 371.515 260.536 375.51C259.438 376.883 256.844 381.702 255.837 383.715C255.837 383.562 255.166 379.933 255.074 379.018C255.654 377.432 257.851 374.321 258.705 372.857C260.048 370.478 262.245 368.282 263.984 366.147C264.136 365.964 263.892 365.72 263.74 365.872C261.604 367.977 256.295 373.223 254.586 377.615C254.495 375.754 254.495 371.027 254.525 369.166C254.861 368.434 257.027 366.726 257.454 366.055C258.217 364.805 259.438 363.707 260.536 362.761C260.75 362.578 260.475 362.212 260.231 362.365C258.919 363.188 255.227 366.757 254.19 367.824C254.647 360.016 256.6 348.915 259.285 341.595C263.557 329.913 268.744 321.617 277.653 313.078C283.633 307.344 289.339 301.64 296.326 297.248C299.651 295.174 307.066 291.24 310.635 289.623C312.893 288.617 315.365 287.915 317.989 287.336C323.176 285.292 328.82 283.523 334.434 283.645C333.641 282.608 331.566 282.822 330.498 282.944C327.02 283.31 323.694 284.316 320.46 285.536C315.578 286.055 310.788 287.885 306.364 289.837C300.75 292.307 295.593 295.723 290.712 299.414C280.612 307.039 271.581 315.731 264.777 326.467C251.383 347.542 249.155 374.138 257.637 397.439C260.475 405.247 264.441 412.811 268.774 419.887C272.71 426.353 277.348 433.795 274.937 441.633C274.846 441.969 275.273 442.121 275.456 441.877C275.67 441.542 275.883 441.237 276.066 440.901C276.097 440.901 276.127 440.84 276.158 440.81C277.805 438.278 279.087 435.991 280.002 433.093C280.979 429.982 281.406 426.658 281.741 423.425C282.443 416.441 282.504 409.426 282.718 402.441C282.931 395.182 283.358 387.954 284.823 380.817C285.799 375.968 287.447 371.423 289.491 367.001C289.705 366.635 289.888 366.269 290.01 365.903C290.742 364.378 291.505 362.853 292.329 361.358C295.471 355.533 298.828 349.83 301.421 343.76C304.045 337.66 305.143 331.286 305.51 324.698C305.906 318.049 305.418 311.339 307.127 304.843C308.622 299.2 312.466 295.54 317.531 292.917C321.711 290.752 326.257 289.379 330.62 287.61C331.627 287.519 332.726 287.244 333.549 286.756C332.085 286.756 330.62 286.939 329.156 287.214L329.156 287.183ZM281.284 412.903C281.253 417.203 280.49 425.164 280.002 429.433C279.728 431.843 278.11 435.899 276.432 438.766C277.134 429.311 270.635 420.406 267.737 415.007C262.58 405.369 258.705 396.433 256.6 385.667C256.661 385.179 259.834 377.523 263.557 373.985C266.12 371.545 271.245 367.367 273.32 364.53C272.71 371.972 272.069 382.251 272.679 389.753C273.137 395.274 273.229 400.581 273.961 406.071C274.724 411.896 275.181 417.081 275.975 422.876C276.005 423.181 276.524 423.12 276.493 422.815C276.005 417.539 275.67 412.262 275.12 406.986C274.632 402.441 274.266 397.897 274.022 393.322C275.425 395.426 277.134 397.409 278.355 399.574C278.843 400.428 281.253 403.722 281.497 404.668C281.467 408.724 281.345 408.938 281.314 412.933L281.284 412.903ZM290.254 361.999C288.484 357.729 284.121 350.043 282.809 346.902C282.748 346.749 282.504 346.841 282.535 346.993C283.389 350.592 285.433 353.581 286.867 356.936C287.416 358.217 289.369 362.06 289.613 363.432C287.722 367.123 286.257 369.654 284.976 373.589C282.199 382.129 281.802 393.474 281.619 402.502C280.948 401.343 278.019 396.677 277.226 395.609C276.097 394.115 275.029 392.559 273.9 391.065C273.9 390.638 273.839 390.211 273.839 389.784C273.29 378.316 273.9 366.696 276.066 355.411C277.409 348.427 279.453 341.564 281.955 334.915C283.053 337.416 285.22 339.795 286.684 341.442C288.362 343.303 290.101 345.102 291.352 347.268C292.237 348.854 294.159 352.483 294.159 354.343C293.092 356.387 291.352 359.925 290.284 361.968L290.254 361.999Z" fill="#E9BE92"/>
<path d="M104.623 136.881C104.623 136.668 104.5 136.485 104.317 136.332C99.9848 133.435 94.2182 135.936 90.0076 137.888C87.4752 139.077 84.7292 139.718 82.3188 141.09C79.1456 142.89 75.9419 144.75 72.8603 146.672C60.8694 154.205 51.777 165.795 47.719 179.367C44.0271 191.811 45.3086 204.895 49.5497 216.973C51.4414 222.372 53.6687 227.679 55.0112 233.26C55.4078 234.968 55.6519 236.676 55.835 238.414C56.0181 238.597 56.1401 238.841 56.1706 239.177C56.3537 240.763 55.7435 246.71 58.1233 246.222C60.1371 242.867 61.5711 238.963 62.4559 235.364C63.7679 229.966 63.2187 224.171 63.1577 218.681C63.0967 213.13 63.4933 207.762 65.5071 202.547C67.5208 197.301 71.4568 192.726 74.6605 188.182C77.8336 183.668 80.5186 178.696 81.617 173.267C82.868 167.045 82.4103 160.579 83.7528 154.358C84.6071 150.423 86.1632 146.641 89.0008 143.744C90.3433 142.371 91.9604 141.273 93.608 140.297C95.1945 139.352 99.6492 139.901 102.7 138.894C104.897 138.406 104.592 137.491 104.867 136.851C104.806 136.851 104.745 136.851 104.684 136.851L104.623 136.881Z" fill="#FBE6D1"/>
<path d="M92.8151 139.504C90.9845 140.267 89.4894 141.182 88.1164 142.615C85.3704 145.482 84.6991 146.977 83.3566 150.331C81.2514 155.608 81.6175 163.66 80.5801 169.211C79.4207 175.402 78.8715 179.032 75.5153 184.369C73.7151 187.236 69.0469 193.519 67.2162 196.386C67.0636 195.989 66.2093 190.957 66.0262 190.56C65.1719 188.456 64.043 186.535 63.4023 184.369C62.9141 182.692 62.8226 180.892 62.8226 179.123C63.2802 177.934 63.7379 176.714 64.2566 175.555C67.6128 167.747 71.4878 159.817 76.6442 153.076C77.1324 152.466 83.5397 145.452 86.0416 142.463C82.3193 145.208 78.6884 149.325 75.7593 152.832C70.1453 159.542 66.2398 168.021 62.731 176.012C59.8019 182.722 58.4289 186.504 57.7882 193.732C56.0796 196.172 52.5098 199.131 50.8927 201.693C50.2824 202.699 48.1772 206.298 47.9331 207.335C47.0482 201.51 46.438 193.031 47.2923 187.266C49.3366 173.237 58.3374 160.061 68.8943 151.063C69.9622 150.148 72.6777 148.532 78.1697 144.72C80.8547 142.859 91.7778 137.918 94.7069 136.912C96.8732 136.088 98.9174 135.997 101.206 136.546C101.328 136.515 101.45 136.515 101.572 136.546C101.816 136.393 102.06 136.271 102.396 136.271C102.945 136.271 99.9853 133.038 89.6115 137.796C87.079 138.955 84.6686 139.809 82.2582 141.182C79.0851 142.981 75.8814 144.842 72.7998 146.763C60.8088 154.296 51.7165 165.886 47.6585 179.459C43.9666 191.902 45.2481 204.987 49.4891 217.065C51.3808 222.463 53.6082 227.77 54.9507 233.351C55.5609 235.852 55.8355 238.414 55.8965 241.007C56.0185 242.593 56.0796 244.148 56.3237 245.734C56.4762 246.771 56.5983 247.534 57.5746 247.107C59.863 243.569 61.4496 239.36 62.3954 235.456C63.7074 230.057 63.1582 224.262 63.0972 218.773C63.0361 213.222 63.4328 207.854 65.4465 202.638C67.4603 197.392 71.3962 192.817 74.5999 188.273C77.7731 183.759 80.4581 178.788 81.5565 173.359C82.8074 167.137 82.3498 160.671 83.6923 154.449C84.5466 150.514 86.1027 146.733 88.9402 143.835C90.2827 142.463 91.8998 141.365 93.5474 140.389C94.9814 139.535 98.7648 139.901 101.724 139.23C101.785 138.071 96.2629 138.132 92.8151 139.596L92.8151 139.504ZM64.4702 201.601C62.0903 206.664 62.0293 210.141 61.9072 215.692C61.7547 221.304 61.9988 226.184 61.9072 231.796C61.8462 235.364 60.0155 240.458 57.7272 244.362C57.6967 238.262 55.3473 229.386 53.8217 224.415C52.3877 219.81 49.7943 214.106 48.6653 209.409C48.9399 206.237 51.5944 202.638 53.6387 200.076C54.6455 198.826 57.1475 196.203 58.0018 195.013C57.9713 195.501 57.6356 199.222 57.6356 199.71C57.4526 204.011 57.5136 207.61 57.6967 211.91C57.8797 216.211 57.3 219.535 57.3305 223.835C57.3305 224.201 57.8492 224.201 57.8797 223.835C58.1848 219.81 58.49 215.936 58.3984 211.849C58.3374 207.854 58.2764 203.889 58.4595 199.893C58.7341 193.58 59.985 187.51 61.9682 181.624C62.0293 183.363 62.3344 185.101 62.9446 186.809C63.6464 188.73 64.6838 190.499 65.2635 192.482C65.355 192.787 66.4534 196.599 66.5144 196.935C65.7516 198.185 65.1414 200.259 64.5007 201.601L64.4702 201.601Z" fill="#E9BE92"/>
<path d="M96.445 130.079C91.136 127.578 86.2847 124.04 82.3182 119.679C80.2435 117.391 78.5043 114.921 77.0703 112.237C75.6973 109.248 74.7514 106.198 74.4768 102.69C74.1412 97.9325 74.782 93.1745 76.155 88.6301C77.4669 84.2382 79.7553 80.3037 81.4944 76.0948C83.1726 72.0078 84.1794 67.6159 84.5151 63.1934C85.1558 54.9281 82.5318 46.9982 78.1382 40.0748C75.8193 36.4453 72.9818 33.1209 69.9002 30.1014C67.7644 28.0274 65.5371 26.4109 63.0962 25.13C62.8521 25.2825 62.547 25.374 62.1503 25.313C60.8993 25.069 59.3128 24.215 58.0313 24.4285C57.1465 24.581 57.4211 25.4045 57.6957 26.0449C57.7567 26.1059 57.8482 26.1974 57.9092 26.2584C58.4889 27.4784 58.9161 28.7289 59.2517 30.2539C59.7704 32.6634 59.4348 35.2863 58.9771 37.6653C57.9703 42.9417 57.4821 47.8217 57.9397 53.1896C58.2754 56.9105 59.0381 60.601 58.2143 64.3219C57.4211 67.9209 55.5294 71.2453 54.0648 74.6003C51.8985 79.5717 50.9221 85.2141 51.0137 90.6431C51.1662 101.287 56.5667 110.681 65.0489 116.934C70.846 121.204 77.8026 123.156 83.6912 127.151C88.2679 130.232 92.1124 133.8 97.0247 135.965C99.2825 137.368 102.303 138.832 103.188 136.057C104.164 133.007 98.3977 131.055 96.4144 130.11L96.445 130.079Z" fill="#FBE6D1"/>
<path d="M98.8854 135.448C93.4544 133.038 88.5421 128.86 83.6298 125.688C77.9547 122.028 70.8455 119.1 65.445 115.074C55.9865 108.029 51.5929 96.4999 53.0575 84.971C53.3016 83.019 53.6982 79.8166 54.3084 78.0171C55.1017 80.1521 57.9088 83.4765 59.3123 85.1845C61.0209 87.228 61.9668 89.0885 64.2551 91.4979C64.3771 91.6504 65.1704 92.0164 65.2009 92.6874C65.5366 101.014 66.9401 108.029 72.6457 114.922C72.8593 115.166 73.561 115.318 73.378 115.044C68.5877 107.876 65.9332 99.5498 66.3604 90.9489C66.6655 84.8795 68.0385 79.0846 69.5336 73.2897C70.632 71.9477 71.7914 70.7887 73.3475 69.7517C75.2086 68.5012 77.1919 67.4033 79.0531 66.1223C79.7548 65.6343 82.4093 63.2248 83.0195 62.6148C82.8975 63.8348 82.4398 68.2572 82.1652 69.4772C81.1889 73.8997 78.4123 79.2371 76.4596 83.2935C74.5679 87.2585 74.3848 88.1125 73.6831 92.4434C71.3032 107.297 77.1919 115.257 78.1682 116.752C80.9143 120.991 82.9585 122.394 87.047 125.322C90.3117 127.67 94.3697 130.202 98.0006 131.849C98.8854 132.245 101.784 134.38 102.211 134.655C102.577 134.899 102.943 135.082 103.31 135.234C103.126 132.642 98.2752 130.964 96.5055 130.11C91.1965 127.609 86.3453 124.071 82.3788 119.71C80.304 117.423 78.5649 114.952 77.1309 112.268C75.7578 109.279 74.812 106.229 74.5374 102.722C74.2018 97.9638 74.8425 93.2059 76.2155 88.6615C77.5275 84.2695 79.8158 80.3351 81.555 76.1261C83.2331 72.0392 84.24 67.6473 84.5756 63.2248C85.2163 54.9594 82.5924 47.0295 78.1987 40.1061C75.8799 36.4767 73.0423 33.1522 69.9607 30.1328C66.7265 26.9608 63.2482 24.8868 59.2207 23.4228C58.641 23.3923 58.0613 23.4228 57.6036 23.6668C57.1155 23.9413 57.5121 25.1613 57.8477 26.1373C57.8782 26.1678 57.9393 26.2288 57.9698 26.2593C58.5495 27.4793 58.9767 28.7298 59.3123 30.2548C59.831 32.6642 59.4953 35.2872 59.0377 37.6662C58.0308 42.9426 57.5426 47.8225 58.0003 53.1904C58.3359 56.9114 59.0987 60.6018 58.2749 64.3228C57.4816 67.9217 55.5899 71.2462 54.1254 74.6012C51.9591 79.5726 50.9827 85.215 51.0742 90.6439C51.2268 101.288 56.6273 110.682 65.1094 116.935C70.9066 121.205 77.8631 123.156 83.7518 127.152C88.3285 130.232 92.1729 133.801 97.0852 135.966C98.3972 136.79 99.9838 137.613 101.265 137.613C100.991 137.461 100.502 136.241 98.9159 135.509L98.8854 135.448ZM82.6839 60.3579C82.5924 60.5103 80.9753 62.0963 80.8532 62.2488C79.5412 64.1703 77.3749 65.4818 75.4527 66.7018C73.8051 67.7388 71.7609 68.9587 70.2048 70.4837C70.6014 68.9587 70.9981 67.4643 71.3642 65.9393C73.2254 58.1924 74.1713 49.927 72.3406 42.1191C71.3947 38.1846 69.5641 34.5247 67.1232 31.3222C66.757 30.8342 60.7768 25.4663 60.2581 24.9173C71.2117 29.2178 83.1111 47.9445 82.6534 60.3579L82.6839 60.3579ZM67.1537 33.1827C69.5641 37.0867 71.7304 42.0581 72.0965 46.633C72.2796 48.951 71.9439 53.9529 71.7304 56.2709C71.0286 54.7459 69.0759 51.635 68.0385 50.232C66.574 48.28 64.9874 46.4195 63.6754 44.3456C62.699 42.7596 60.9294 40.1366 60.6853 38.4591C62.3939 33.3962 60.0445 27.5403 59.5564 26.2593C61.265 27.7233 66.0248 31.3222 67.1842 33.2132L67.1537 33.1827ZM56.3832 72.7407C57.5426 75.8821 61.0514 80.6706 62.1193 83.6595C62.1803 83.8425 62.4549 83.7205 62.4244 83.5375C61.9362 81.4026 61.0209 79.4811 60.0751 77.5291C59.2513 75.8516 57.7257 73.2287 57.2375 71.4902C57.9393 69.7212 58.458 68.6842 58.9461 66.8238C59.953 62.8893 59.0072 54.5629 58.9461 48.158C58.9156 44.1931 59.7394 40.8381 59.9835 40.0451C60.6243 42.3631 63.4008 45.779 64.7738 47.67C67.1537 50.9335 70.5709 54.5019 71.6083 58.0704C70.8455 63.0113 69.32 69.7212 68.069 74.4487C66.4824 80.5181 65.1704 85.2455 65.2009 91.3759C64.2551 90.0339 62.2414 87.8075 61.5091 86.984C59.1597 84.361 55.5289 80.1826 54.7051 76.8276C55.1627 75.5771 55.834 73.9607 56.3222 72.7407L56.3832 72.7407Z" fill="#E9BE92"/>
<path d="M100.047 134.38C99.1314 133.983 97.6059 134.166 96.6295 134.136C94.9514 134.075 93.2733 134.044 91.5951 134.014C90.6798 134.014 89.795 133.983 88.8796 133.922C88.8796 133.77 88.8491 133.587 88.6356 133.556C83.2045 132.611 77.621 131.635 73.0138 128.494C68.9558 125.749 65.8742 121.662 62.9146 117.819C60.2906 114.372 57.7276 110.773 54.4324 107.937C51.8695 105.71 48.7878 104.002 45.7672 102.447C39.0853 99.031 31.7015 96.652 25.8434 91.8026C23.1889 89.6066 20.4429 86.3736 19.8632 82.8662C19.8632 82.7137 19.8632 82.5307 19.8327 82.3782C19.7106 82.2257 19.6191 82.0427 19.5886 81.8292C19.1004 79.2977 20.7785 77.3153 21.5718 75.0278C22.4261 72.5878 17.5138 74.6923 16.751 75.3938C15.5916 76.4918 14.5542 77.6508 13.2422 78.5962C11.7472 81.3412 10.9844 84.6047 11.2285 87.5326C11.6861 92.87 15.1644 97.9025 18.2156 102.111C21.6938 106.869 25.6908 111.231 29.1691 115.989C36.1562 125.535 44.5163 136.057 57.0564 137.704C63.7384 138.589 70.2678 135.813 76.8887 136.149C84.6386 136.545 92.1138 139.199 99.9552 138.924C100.443 138.924 100.718 138.467 100.84 138.07C101.115 137.033 101.328 134.99 100.016 134.441L100.047 134.38Z" fill="#FBE6D1"/>
<path d="M100.046 134.38C99.1306 133.984 97.6051 134.167 96.6287 134.136C94.9506 134.075 88.8178 133.587 88.6347 133.557C83.2037 132.611 77.6202 131.635 73.013 128.494C68.955 125.749 65.8733 121.662 62.9137 117.819C60.2898 114.372 57.7268 110.773 54.4316 107.937C51.8687 105.711 48.787 104.003 45.7664 102.447C39.0844 99.0311 31.7007 96.6521 25.8426 91.8027C23.1881 89.6067 20.4421 86.3738 19.8623 82.8663C19.7708 82.4088 19.7708 81.9208 19.8013 81.4328C19.7098 80.3348 19.8929 79.2979 20.32 78.1389C20.6556 77.2239 24.2255 73.6859 21.571 73.4724C18.825 73.2589 16.201 74.7534 14.3398 76.8579C12.143 79.8469 10.9225 83.9643 11.2582 87.5023C11.7158 92.8397 15.1941 97.8721 18.2452 102.081C21.7235 106.839 25.7205 111.2 29.1988 115.958C36.1859 125.505 44.546 136.027 57.0861 137.674C63.7681 138.559 70.2975 135.783 76.9184 136.119C84.6683 136.515 92.1435 139.169 99.9849 138.894C100.473 138.894 100.748 138.437 100.87 138.04C101.144 137.003 101.358 134.96 100.046 134.411L100.046 134.38ZM37.864 100.312C37.864 100.312 39.9998 102.356 40.7321 103.088C43.173 105.589 44.3324 109.492 45.0647 112.878C45.7054 115.836 46.3461 118.642 47.7802 120.96C46.4682 119.954 45.1562 118.917 43.9052 117.788C42.3186 116.385 40.7931 114.921 39.2675 113.488C37.803 110.499 37.7114 106.747 36.4605 103.667C35.9113 102.295 32.9822 98.6346 31.9753 97.4451C33.3483 98.1771 36.5825 99.6106 37.8945 100.312L37.864 100.312ZM14.4924 79.6334C16.7807 73.7164 20.5946 74.8144 20.9608 74.5704C20.6251 75.0584 19.4962 76.6749 19.2521 77.2544C17.8181 80.5483 17.4825 82.6528 19.0691 85.6418C21.0218 89.3322 24.2865 92.9007 27.7343 95.2796C31.4261 98.0856 34.6908 101.929 36.2164 106.442C36.9181 108.486 37.5894 110.651 38.3522 112.664C35.6367 110.072 32.9517 107.479 29.9921 105.101C25.1103 101.166 20.259 96.9876 17.2079 91.4367C15.5603 88.4172 13.8821 83.5373 14.4924 79.6944L14.4924 79.6334ZM28.1614 111.597C25.2323 107.784 21.4794 104.003 18.7944 100.038C15.8959 95.7676 9.91567 87.7462 13.3634 81.3718C13.455 81.8903 14.0042 86.6483 14.1262 87.1363C15.8959 93.5412 20.2895 98.4211 25.1713 102.752C30.2972 107.296 35.3316 111.902 40.3964 116.538C38.0471 115.714 35.4841 115.409 33.0737 114.555C31.2125 113.915 29.5954 112.878 28.1919 111.597L28.1614 111.597ZM87.933 136.424C80.6713 135.234 72.6773 134.868 65.3241 135.692C61.7848 136.088 59.6185 136.79 56.0792 136.271C50.3736 135.417 46.6512 132.062 43.3865 129.988C37.6809 126.359 34.7824 120.96 30.9684 115.44C30.7854 115.165 30.5718 114.86 30.3582 114.586C33.8365 116.629 38.1691 116.263 41.7389 117.758C47.1699 122.607 53.2722 126.267 60.1372 128.768C60.4423 128.89 60.6559 128.433 60.3508 128.28C56.6284 126.664 53.1196 124.742 49.8244 122.455C46.5902 118.703 46.9869 113.671 45.5223 108.76C45.0647 107.174 42.5932 103.362 41.5559 102.112C43.7832 103.24 47.292 104.948 49.3667 106.29C53.6383 109.035 56.9946 112.603 60.1372 116.477C63.5545 120.686 66.8192 125.718 70.9992 129.256C74.0504 131.818 84.5462 134.868 89.6416 135.234C91.3197 135.356 93.0284 135.448 94.7065 135.539C95.3472 135.57 98.856 135.448 99.1306 136.088C99.8629 137.766 89.2755 136.607 87.9025 136.393L87.933 136.424Z" fill="#E9BE92"/>
<path d="M91.1666 133.283C88.3901 133.13 85.4 133.1 82.6845 133.771C81.5861 134.045 80.2131 134.442 79.0231 135.082L78.9621 135.082C77.9247 135.479 77.4976 136.028 76.6433 136.699C75.3618 137.675 73.5616 138.468 72.0056 138.925C69.5341 139.627 67.0322 139.932 64.4998 140.359C59.6485 141.213 54.8582 142.463 50.3731 144.507C45.3997 146.764 40.8535 149.722 37.1312 153.687C33.3173 157.713 30.2966 162.349 26.5132 166.375C19.8618 173.451 9.97614 177.385 4.60615 185.651C3.23314 187.786 -1.7707 199.101 1.61605 200.016C2.22627 199.68 2.8365 199.345 3.44672 199.009C6.31478 196.082 11.5627 193.337 15.6512 191.842C16.0784 191.751 16.475 191.598 16.9022 191.415C17.1768 191.324 17.4209 191.232 17.6955 191.171C22.0586 189.89 26.4522 188.731 30.7238 187.176C39.8467 183.821 49.0001 179.825 56.6584 173.817C60.5333 170.797 64.1336 167.351 67.0017 163.355C69.9308 159.269 71.6394 154.846 73.6532 150.302C75.6669 145.757 78.0468 141.182 82.9286 139.047C88.8783 136.424 94.828 137.827 100.625 140.115C100.869 140.206 101.022 140.023 100.991 139.81C101.357 140.084 101.968 140.023 102.12 139.474C103.554 134.32 94.4008 133.466 91.2277 133.313L91.1666 133.283Z" fill="#FBE6D1"/>
<path d="M91.168 133.283C88.3915 133.13 85.4014 133.1 82.6859 133.771C81.5875 134.045 80.2145 134.442 79.0246 135.082L78.9635 135.082C77.9262 135.479 77.499 136.028 76.6447 136.699C75.3632 137.675 73.563 138.468 72.007 138.925C69.5356 139.627 67.0336 139.932 64.5012 140.359C59.6499 141.213 54.8596 142.463 50.3745 144.507C45.4011 146.764 40.855 149.722 37.1326 153.687C33.3187 157.713 30.115 161.586 26.3316 165.612C19.6801 172.688 9.2758 177.629 3.93632 185.925C2.5328 188.121 -2.74565 200.138 1.86156 200.107C2.34974 199.863 2.80741 199.528 3.26507 199.192C6.10262 196.173 12.1744 193.337 16.3239 191.812C16.7511 191.72 28.5589 188.609 32.8305 187.054C41.9534 183.699 49.7643 179.978 57.4226 174C61.2975 170.98 64.7453 167.503 67.6133 163.508C70.5424 159.421 71.7934 156.158 73.8071 151.583C75.8209 147.038 78.4754 141.243 83.3267 139.108C89.2764 136.485 94.7379 137.827 100.566 140.084C100.81 140.176 101.908 139.993 102.061 139.444C103.495 134.289 94.3412 133.435 91.168 133.283ZM12.7541 178.636C16.0798 175.982 18.9174 174.183 22.1821 171.499C25.8739 168.449 27.7656 166.497 30.8168 162.867C31.366 162.227 32.9831 160.458 33.5323 159.818C34.6917 159.269 37.6208 158.903 38.9328 158.72C40.916 158.476 42.8992 158.598 44.913 158.506C46.408 158.445 47.9031 158.323 49.2456 157.927C48.8794 158.323 48.5133 158.75 48.1472 159.147C43.3874 164.667 38.4446 169.211 32.0067 172.841C28.6505 174.732 25.2027 176.44 21.8159 178.3C19.4055 178.941 16.9951 179.429 14.4932 179.886C13.883 180.008 10.0996 181.289 9.51989 181.472C9.79449 181.259 12.449 178.819 12.7236 178.605L12.7541 178.636ZM1.83105 199.467C-0.0606535 197.24 3.23456 190.134 3.96683 188.548C5.12626 186.108 6.37723 184.431 8.29944 182.509C10.6488 181.472 14.6153 180.771 17.2392 180.344C17.819 180.252 18.3987 180.13 18.9479 180.008C17.7579 180.74 16.568 181.472 15.4086 182.296C12.8761 184.065 10.4352 185.986 8.36046 188.243C6.22467 190.592 1.89207 196.813 1.80053 199.467L1.83105 199.467ZM23.5551 188.304C23.2194 188.426 19.1004 189.585 18.7953 189.677C20.7785 187.389 24.8671 182.845 25.8739 179.978C25.9655 179.703 25.5993 180.039 25.4468 180.313C24.3179 182.784 22.5177 184.858 20.4429 186.657C19.375 187.603 18.3987 189.402 17.1172 190.165C11.7472 192.178 6.22467 195.533 2.10565 199.07C2.62434 198.247 3.6007 196.021 3.69223 195.838C5.4924 192.086 8.2079 189.25 10.8929 186.627C13.2118 184.4 16.2019 182.418 18.9479 180.71C23.4635 177.904 29.3217 175.159 33.9289 172.475C32.8915 174.244 30.9388 177.599 30.054 179.002C27.9487 182.296 26.6062 185.956 23.5551 188.274L23.5551 188.304ZM100.627 139.2C100.627 139.2 100.627 139.322 100.657 139.383C95.5312 137.065 90.4358 135.906 85.1268 137.156C80.5806 138.224 78.5059 140.298 75.8819 144.019C72.9223 148.258 70.4509 155.426 67.8269 159.848C65.0199 164.545 61.9077 168.296 57.6667 171.804C49.5507 178.544 37.0716 184.858 24.684 188.091C25.4773 187.237 28.8335 182.57 29.4437 181.564C30.7557 179.398 32.2508 177.019 33.4407 174.793C34.3255 173.146 35.8816 172.566 37.0105 171.194C41.5262 168.022 45.2791 164.24 48.9099 160C49.9778 158.75 51.0762 157.5 52.2052 156.341C52.4187 156.158 52.6018 155.975 52.8154 155.761C53.9443 154.663 55.1342 153.657 56.5072 152.803C59.0397 151.186 61.7247 149.783 64.3181 148.258C64.4402 148.197 64.3181 148.014 64.1961 148.045C61.145 149.265 58.0633 150.485 55.3478 152.345C53.8528 153.382 52.5408 154.511 51.2898 155.761C48.1166 157.988 44.7604 157.713 40.8855 157.866C39.9396 157.896 35.1188 158.72 34.112 158.903C36.0342 156.737 39.726 152.345 42.1059 150.668C46.0114 147.892 50.2829 145.391 54.8901 143.958C59.2533 142.585 63.3418 142.311 67.7659 141.182C69.7491 140.694 70.2373 140.664 72.6782 139.932C73.0444 139.84 75.3937 138.681 75.6378 138.468C77.438 137.217 78.4449 135.845 80.6417 135.082C81.2519 134.869 82.4113 134.411 83.0826 134.32C85.1268 133.984 87.9033 133.771 90.0086 133.832C92.9682 133.923 104.349 135.784 100.627 139.2Z" fill="#E9BE92"/>
<path d="M238.658 135.936C238.383 132.825 237.651 129.744 237.132 126.664C236.858 125.139 236.583 123.522 236.614 121.906C237.925 120.442 239.054 118.825 240 117.117C240.61 115.989 241.099 114.769 241.434 113.488C245.492 106.016 240.488 94.5478 237.986 87.2889C233.593 74.5401 228.253 61.9742 219.893 51.2689C211.777 40.899 200.397 33.7316 187.673 30.4987C178.795 28.2417 167.689 27.4182 158.627 30.7122C147.978 33.4266 141.449 45.7484 139.038 55.6913C135.743 69.3551 138.184 84.5744 143.585 97.3537C148.802 109.737 158.84 119.771 169.672 127.396C179.771 134.472 192.403 140.785 205.034 140.358C209.306 140.206 213.455 139.138 217.391 137.461C219.588 136.515 221.541 135.265 223.341 133.831C223.707 133.953 224.043 134.197 224.348 134.594C225.202 135.783 225.507 137.461 225.874 138.833C226.24 140.236 226.575 141.67 227.033 143.042C227.491 144.506 228.589 145.757 229.413 146.977C229.748 147.495 230.298 147.739 230.908 147.587C236.827 146.123 239.176 141.761 238.658 135.875L238.658 135.936Z" fill="#FBE6D1"/>
<path d="M214.736 94.03C215.53 97.446 216.292 101.411 218.672 104.156C220.991 106.809 224.103 108.304 226.971 110.256C228.802 111.476 230.358 113.214 231.212 115.288C231.914 116.996 230.358 118.247 229.656 119.68C229.473 120.077 229.717 120.473 230.145 120.504C233.318 120.748 234.843 117.881 234.325 115.075C233.623 111.354 229.138 108.7 226.117 107.114C224.103 106.047 222.212 105.04 220.534 103.454C218.276 101.35 217.421 98.1475 216.598 95.311C215.286 90.8581 214.309 86.4966 211.746 82.5317C211.624 82.3487 211.411 82.5317 211.472 82.6842C213.089 86.3136 213.882 90.1871 214.767 94.0605L214.736 94.03Z" fill="#E9BE92"/>
<path d="M237.864 87.2283C233.471 74.4795 228.131 61.9137 219.771 51.2083C211.655 40.8385 200.274 33.6711 187.582 30.4381C178.703 28.1811 167.597 27.3577 158.535 30.6516C147.886 33.3661 141.357 45.6879 138.947 55.6308C135.651 69.2946 138.092 84.5139 143.493 97.2932C148.71 109.676 158.748 119.71 169.58 127.335C179.679 134.411 192.311 140.725 204.943 140.298C209.214 140.145 213.364 139.078 217.3 137.4C219.496 136.455 221.449 135.204 223.249 133.771C223.615 133.893 223.951 134.137 224.256 134.533C225.11 135.723 225.416 137.4 225.782 138.773C226.148 140.176 226.483 141.609 226.941 142.982C227.399 144.446 228.497 145.696 229.321 146.916C229.657 147.435 230.206 147.679 230.816 147.526C236.735 146.062 239.085 141.701 238.566 135.814C238.291 132.703 237.559 129.623 237.04 126.542C236.766 125.017 236.491 123.401 236.522 121.784C237.834 120.32 238.963 118.704 239.908 116.996C240.519 115.867 241.007 114.647 241.342 113.366C245.4 105.894 240.397 94.4262 237.895 87.1673L237.864 87.2283ZM229.931 145.33C228.619 141.853 228.131 137.4 226.117 134.289C225.507 133.344 225.995 132.612 225.141 132.185C226.361 131.087 227.551 129.928 228.711 128.769C230.175 127.305 233.379 124.834 235.027 123.492C235.24 131.148 241.495 144.842 229.931 145.361L229.931 145.33ZM230.267 124.773C227.033 127.335 225.599 131.209 212.235 133.771C206.926 134.777 200.915 133.405 200.793 133.405C193.47 132.642 186.483 128.647 180.076 124.895C167.2 117.392 159.786 105.254 150.877 93.9382C150.602 93.6027 150.083 93.8467 150.297 94.2432C157.162 106.992 167.261 119.344 179.893 127.366C186.209 131.392 193.348 133.923 200.64 134.93C204.027 135.418 216.11 134.472 219.74 134.137C203.844 143.927 185.812 135.265 175.896 129.684C163.813 122.882 154.019 112.207 147.307 100.008C140.472 87.5638 138.55 69.7826 141.357 55.9053C142.791 48.7379 147.429 41.2655 153.073 35.9585C161.83 33.7931 172.845 36.904 180.198 40.869C190.846 46.6334 199.969 54.1363 206.804 64.2012C210.679 69.9046 212.57 77.743 215.103 84.1479C217.3 89.7293 219.313 95.5852 223.036 100.343C225.843 103.912 229.962 106.016 233.287 109.036C234.599 110.225 242.441 115.044 230.236 124.773L230.267 124.773ZM239.786 113.336C237.925 110.195 231.274 104.918 228.619 102.57C223.463 98.0252 220.046 91.7118 217.574 85.4289C214.95 78.7495 214.523 72.131 210.74 66.0921C203.722 54.9598 194.142 46.3284 182.639 40.137C177.849 37.5445 172.753 35.379 167.414 34.1286C164.546 33.4576 157.833 33.4576 154.66 33.7016C157.192 32.8781 161.617 31.0176 164.393 30.7431C170.16 30.1941 176.964 29.8891 182.608 31.1091C194.66 33.7321 207.017 40.1675 215.194 49.3479C223.676 58.8637 229.107 68.2271 233.41 80.0914C235.545 85.9779 237.895 91.3458 239.695 97.3542C239.908 98.0252 241.159 103.637 241.312 104.308C241.8 108.883 240.549 111.262 239.786 113.366L239.786 113.336Z" fill="#E9BE92"/>
<path d="M151.121 46.6329C152.31 43.9489 154.599 41.5699 154.965 38.6115C154.965 38.3675 154.812 38.1235 154.538 38.215C151.426 39.13 149.748 42.4239 148.436 45.1384C146.788 48.5848 146.696 52.3973 146.91 56.1487C146.91 56.4232 147.307 56.4842 147.398 56.2097C148.375 52.9158 149.717 49.8048 151.09 46.6634L151.121 46.6329Z" fill="#E9BE92"/>
<path d="M158.656 38.4296C158.289 38.9786 158.717 39.7411 159.296 39.8936C160.639 40.2291 161.92 40.5646 163.232 41.0526C164.117 41.3881 166.436 41.3576 166.314 39.8936C166.039 36.4471 160.456 35.8981 158.686 38.4296L158.656 38.4296Z" fill="#E9BE92"/>
<path d="M170.007 40.9918C169.916 40.6258 169.702 40.4123 169.336 40.2598C169.061 40.1378 168.695 40.1378 168.421 40.2293C167.719 40.4428 167.505 41.5408 168.238 41.8763C168.543 42.0288 168.817 42.0898 169.153 42.0898C169.458 42.0898 169.794 41.8763 169.946 41.6018C170.099 41.4188 170.16 41.1748 170.038 40.9308L170.007 40.9918Z" fill="#E9BE92"/>
<path d="M203.02 129.745C206.773 130.477 210.739 131.026 214.553 130.385C218.306 129.745 223.371 128.281 225.324 124.743C225.446 124.499 225.232 124.163 224.958 124.255C221.479 125.475 218.428 127.518 214.767 128.372C211.105 129.196 207.078 128.769 203.386 128.25C196.887 127.366 188.741 126.115 183.92 121.266C183.798 121.144 183.615 121.297 183.706 121.449C187.49 127.366 196.735 128.525 203.02 129.745Z" fill="#E9BE92"/>
<path d="M199.969 124.042C199.724 123.95 199.511 124.347 199.724 124.499C204.088 127.823 209.976 127.732 215.133 126.817C217.909 126.329 220.747 125.506 223.401 124.499C225.384 123.737 228.161 122.578 228.497 120.229C228.558 119.741 228.13 119.436 227.673 119.619C225.903 120.382 224.439 121.876 222.669 122.791C220.442 123.92 217.909 124.499 215.499 125.079C210.251 126.39 205.033 125.689 199.938 124.042L199.969 124.042Z" fill="#E9BE92"/>
<path d="M222.76 121.021C224.438 120.259 226.024 118.978 226.451 117.087C226.543 116.721 226.146 116.447 225.811 116.63C224.377 117.362 223.095 118.399 221.661 119.192C220.441 119.893 218.824 120.289 217.786 121.235C217.664 121.357 217.664 121.631 217.847 121.723C219.342 122.394 221.326 121.662 222.729 121.021L222.76 121.021Z" fill="#E9BE92"/>
<path d="M231.73 137.004C231.028 134.9 229.686 132.765 227.428 132.185C227.245 132.124 227.031 132.368 227.153 132.551C228.435 134.259 229.533 135.906 230.113 138.011C230.54 139.536 230.143 141.793 231.333 142.952C231.455 143.074 231.669 143.074 231.791 142.952C233.286 141.64 232.248 138.59 231.73 137.004Z" fill="#E9BE92"/>
<path d="M342.244 340.923C345.447 343.18 349.383 344.614 353.319 343.729C356.126 343.089 358.11 341.259 359.879 339.185C359.269 337.355 358.689 335.494 358.018 333.695C354.845 324.85 349.75 313.23 351.58 303.653C352.221 300.298 352.557 297.004 351.123 293.862C350.634 292.764 349.078 292.429 348.316 293.466C347.522 294.564 346.637 295.662 345.875 296.821C342.701 290.66 342.64 283.34 341.176 276.661C339.406 268.548 336.508 260.709 333.273 253.054C330.222 245.826 326.134 238.963 323.693 231.491C321.466 224.659 323.174 217.369 320.276 210.66C319.787 209.562 318.445 209.44 317.682 210.294C317.194 210.843 316.645 211.483 316.096 212.215C312.404 205.139 306.363 199.405 301.298 193.305C295.256 186.046 288.605 179.336 281.252 173.42C273.685 167.35 265.447 162.013 256.873 157.499C253.09 155.516 249.215 153.686 245.279 152.039C244.486 151.704 243.723 151.368 242.93 151.033C240.824 148.562 239.421 144.872 235.882 144.048C233.746 143.56 231.335 144.536 229.169 145.177C222.64 143.133 215.683 142.279 209.062 141.486C203.601 140.846 198.2 139.504 192.739 138.802C187.155 138.07 181.541 137.766 175.927 137.705C164.15 137.552 152.372 138.528 140.564 138.619C134.798 138.65 129.092 138.497 123.325 139.046C119.237 139.412 114.508 139.839 110.358 138.741C110.297 138.589 110.206 138.467 110.053 138.345C107.887 136.332 106.453 133.984 103.737 132.581C102.791 132.093 101.876 133.069 101.937 133.953C101.968 134.594 101.937 135.204 101.937 135.844C99.0995 134.99 96.6281 136.454 95.2246 139.595C94.9805 140.114 95.2856 140.693 95.7738 140.937C101.907 143.865 108.07 145.634 114.843 146.122C121.403 146.61 127.994 146.214 134.523 145.878C149.87 145.146 166.56 144.902 181.694 147.678C197.498 150.575 212.144 152.222 227.521 157.102C238.597 160.64 249.459 166.557 259.436 172.657C264.013 175.463 268.437 178.635 272.373 182.264C275.302 184.948 278.872 188.486 279.635 192.573C279.696 192.817 279.665 193.031 279.635 193.214C279.36 193.427 279.147 193.702 278.994 194.007C278.109 194.495 276.584 194.495 275.943 195.715C274.875 197.789 276.156 199.71 277.957 200.747C279.94 201.906 282.137 202.425 284.272 203.187C287.018 204.163 289.398 205.902 291.839 207.488C294.829 210.904 297.453 214.594 299.65 218.65C303.25 225.299 306.24 232.314 309.566 239.085C316.584 253.267 322.839 267.572 326.225 283.127C329.124 296.455 331.382 310.149 336.721 322.776C337.667 325.887 338.46 329.059 339.406 332.2C340.261 335.128 341.237 338.026 342.183 340.954L342.244 340.923Z" fill="#FBE6D1"/>
<path d="M358.018 333.665C354.845 324.82 349.75 313.199 351.58 303.622C352.221 300.268 352.557 296.974 351.123 293.832C350.634 292.734 349.078 292.399 348.316 293.436C347.522 294.534 346.637 295.632 345.875 296.791C342.701 290.63 342.64 283.31 341.176 276.63C339.406 268.517 336.508 260.679 333.274 253.024C330.222 245.795 326.134 238.933 323.693 231.46C321.466 224.629 323.174 217.339 320.276 210.629C319.788 209.531 318.445 209.409 317.682 210.263C317.194 210.812 316.645 211.453 316.096 212.185C312.404 205.109 306.363 199.375 301.298 193.275C295.256 186.016 288.605 179.306 281.252 173.389C273.685 167.32 265.447 161.982 256.873 157.468C253.09 155.486 249.215 153.656 245.279 152.009C244.486 151.674 243.723 151.338 242.93 151.003C240.824 148.532 239.421 144.842 235.882 144.018C233.746 143.53 231.335 144.506 229.169 145.147C222.64 143.103 215.683 142.249 209.062 141.456C203.601 140.816 198.2 139.474 192.739 138.772C187.186 138.04 181.541 137.735 175.927 137.674C164.15 137.522 152.372 138.498 140.564 138.589C134.798 138.62 129.092 138.467 123.325 139.016C119.237 139.382 114.508 139.809 110.358 138.711C110.297 138.559 110.206 138.437 110.053 138.315C107.887 136.302 106.453 133.953 103.737 132.55C102.791 132.062 101.876 133.038 101.937 133.923C101.968 134.563 101.937 135.173 101.937 135.814C99.0995 134.96 96.6281 136.424 95.2246 139.565C94.9805 140.084 95.2856 140.663 95.7738 140.907C101.907 143.835 108.07 145.604 114.843 146.092C121.403 146.58 127.994 146.184 134.523 145.848C149.87 145.116 166.56 144.872 181.694 147.648C197.498 150.545 212.144 152.192 227.521 157.072C238.597 160.61 249.459 166.527 259.436 172.627C264.013 175.433 268.437 178.605 272.373 182.234C275.302 184.918 278.872 188.456 279.635 192.543C279.696 192.787 279.665 193 279.635 193.183C279.36 193.397 279.147 193.671 278.994 193.976C278.109 194.464 276.584 194.464 275.943 195.684C274.875 197.758 276.156 199.68 277.957 200.717C279.94 201.876 282.137 202.394 284.272 203.157C287.018 204.133 289.398 205.871 291.839 207.457C294.829 210.873 297.453 214.564 299.65 218.62C303.25 225.269 306.241 232.284 309.566 239.055C316.584 253.237 322.839 267.541 326.225 283.096C329.124 296.425 331.382 310.119 336.721 322.746C337.667 325.857 338.46 329.029 339.406 332.17C340.261 335.068 341.206 337.935 342.152 340.801C343.617 342.662 345.386 343.973 348.255 344.461C348.255 344.461 348.255 344.461 348.255 344.431C348.255 344.431 348.316 344.461 348.316 344.492C348.712 344.553 349.109 344.644 349.536 344.675C352.465 344.888 355.089 344.431 357.469 343.363C358.201 342.723 358.872 341.991 359.544 341.198C359.757 340.862 359.971 340.527 360.123 340.161C359.422 337.996 358.72 335.83 357.927 333.695L358.018 333.665ZM351.824 343.089C350.36 343.089 347.949 342.845 346.668 342.143C345.264 341.35 344.41 340.557 344.38 340.557C343.22 336.196 342.64 332.658 340.871 328.541C340.84 328.297 340.169 327.138 340.108 326.833C340.474 327.016 343.739 328.144 344.105 328.327C345.386 328.907 346.637 329.791 348.041 330.127C348.041 330.127 348.102 330.127 348.071 330.096C346.424 327.9 344.959 326.65 342.671 325.918C341.389 325.43 339.803 325.308 339.803 325.308C337.881 321.343 336.782 316.615 335.409 312.345C332.206 302.433 330.344 291.362 327.842 281.266C326.408 275.441 324.913 270.683 322.9 265.071C323.54 265.163 326.286 265.742 326.927 265.986C328.026 266.413 329.185 267.175 330.375 267.145C330.375 267.145 330.405 267.145 330.375 267.114C329.795 265.803 328.239 265.01 327.019 264.4C326.164 263.973 323.479 263.729 322.564 263.668C322.259 262.875 321.801 261.472 321.496 260.679C323.235 261.137 326.805 262.204 328.422 263.272C328.727 263.485 329.032 263.028 328.758 262.784C327.141 261.533 323.418 260.1 321.313 259.673C320.855 258.544 320.062 257.355 319.604 256.257C321.283 256.562 324.822 257.385 326.408 258.087C326.683 258.209 326.958 257.782 326.714 257.629C324.791 256.409 321.405 254.915 319.208 255.128C318.689 253.908 317.621 251.651 317.042 250.431C317.865 250.645 320.947 251.865 321.801 251.987C322.076 252.017 322.32 251.621 322.076 251.407C320.977 250.34 317.926 249.669 316.462 249.364C316.004 248.357 315.272 246.588 314.814 245.612C314.997 245.612 317.103 246.07 317.225 245.948C317.286 245.887 317.255 245.826 317.316 245.765C316.98 245.399 316.614 245.033 316.187 244.85C315.699 244.636 315.028 244.514 314.631 244.179C314.418 244.209 314.265 244.24 314.265 244.24C310.756 237.011 307.186 229.691 303.586 222.524C300.291 215.906 297.118 209.47 291.137 204.987C290.131 204.133 287.385 202.821 286.317 202.059C284.12 200.534 281.709 200.473 279.269 199.466C275.577 197.941 276.95 196.416 277.682 195.898C278.414 195.379 280.489 194.495 282.106 194.22C282.899 193.885 283.784 193.763 284.639 193.702C286.469 193.58 288.239 194.068 290.039 194.007C290.039 194.007 290.039 193.976 290.039 193.946C288.574 192.451 286.957 192.573 284.913 192.512C284.272 192.512 281.831 192.756 281.099 192.878C281.038 192.329 280.916 190.744 280.916 190.713C281.648 190.439 283.235 189.859 284.089 189.768C285.127 189.646 286.225 189.768 287.263 189.92C287.629 189.951 287.751 189.463 287.415 189.31C286.256 188.761 285.859 188.914 284.578 188.822C283.723 188.761 281.252 189.219 280.581 189.707C280.275 188.914 279.116 187.023 278.689 186.291C279.055 186.26 280.947 186.352 281.313 186.291C282.076 186.199 282.808 186.016 283.571 185.864C284.211 185.742 277.499 185.62 278.689 185.01C277.651 183.607 275.333 182.356 274.173 181.197C270.542 177.568 267.461 175.311 263.189 172.505C254.005 166.435 244.821 160.945 234.447 157.316C227.033 154.724 220.351 152.467 212.723 150.759C212.235 150.637 210.954 150.484 210.435 150.393C211.198 149.844 213.242 147.922 214.005 147.404C214.31 147.16 213.974 146.763 213.669 146.885C212.418 147.312 210.1 149.142 209.184 150.088C208.726 149.996 207.689 149.935 207.201 149.844C207.72 149.264 209.855 147.312 210.344 146.733C210.557 146.458 210.191 146.062 209.916 146.214C208.91 146.824 206.713 148.837 205.797 149.6C203.997 149.264 202.228 149.051 200.397 148.776C200.488 148.715 201.739 147.129 201.861 147.068C202.35 146.733 202.746 146.336 203.173 145.909C203.936 145.086 202.96 143.988 202.045 144.598C201.678 144.872 201.282 145.116 200.946 145.421C200.519 145.757 200.183 146.123 199.817 146.519C199.695 146.641 198.597 148.441 198.566 148.593C195.18 148.075 193.349 148.227 190.115 147.434C172.449 143.103 154.569 143.988 138.368 144.384C124.241 144.72 111.212 147.312 96.4145 139.626C97.5434 137.857 99.9538 135.722 101.876 137.156C102.791 137.857 103.158 137.796 103.096 136.698C103.096 136.241 103.402 133.984 103.402 133.526C104.775 134.807 109.565 139.809 109.87 139.748C111.64 140.541 114.721 140.694 114.813 140.511C115.698 140.572 119.39 140.328 120.152 140.328C125.736 140.328 129.885 139.535 135.469 139.626C147.49 139.809 160.061 139.138 172.082 139.047C177.849 139.016 183.951 139.169 189.687 139.748C195.332 140.328 200.214 141.456 205.767 142.554C212.479 143.866 220.138 143.683 228.467 146.672C230.115 146.916 230.267 146.733 231.671 146.489C233.288 145.421 235.759 144.598 237.255 146.092C238.628 147.465 239.97 149.996 241.191 151.491C241.465 151.796 243.265 152.985 243.54 153.26C247.049 155.242 249.032 155.669 252.632 157.529C261.358 161.982 269.505 166.771 277.285 172.718C284.822 178.452 291.748 184.583 297.88 191.781C300.687 195.074 304.776 200.046 307.675 203.279C310.787 206.786 312.953 209.653 315.058 213.893C315.058 213.954 314.173 215.113 314.204 215.174C312.922 217.522 312.251 220.084 313.502 222.158C313.594 222.28 313.899 222.311 313.868 222.158C313.533 219.993 314.479 217.766 315.302 216.241C315.913 215.113 318.109 212.642 318.872 211.666C320.489 217.675 319.696 224.751 321.405 230.789C323.632 238.628 329.002 247.778 332.145 255.25C335.47 263.18 337.911 269.646 339.65 278.064C340.962 284.408 341.023 290.904 343.922 296.669C344.41 297.37 345.539 298.773 345.905 298.346C346.424 297.675 346.912 296.943 347.614 296.486C348.255 296.059 348.895 294.595 349.566 294.656C350.97 294.778 351.092 300.085 350.329 301.884C350.512 304.324 349.658 308.533 349.872 311.034C349.994 312.498 350.36 315.334 350.512 316.554C351.092 321.068 353.685 326.863 355.211 331.164C356.279 334.122 357.103 337.02 358.079 340.008C357.377 341.411 354.174 343.089 351.855 343.119L351.824 343.089Z" fill="#E9BE92"/>
<path d="M197.651 144.659C197.224 144.385 196.735 144.507 196.43 144.873C196.278 145.056 196.339 145.391 196.461 145.574C196.583 145.696 196.705 145.757 196.857 145.757C197.102 145.94 197.437 145.94 197.681 145.757C198.017 145.483 197.986 144.934 197.62 144.69L197.651 144.659Z" fill="#E9BE92"/>
<path d="M192.952 144.721C192.952 144.721 193.014 144.721 192.983 144.689C192.983 144.689 192.921 144.689 192.952 144.721Z" fill="#E9BE92"/>
<path d="M372.389 155.913C371.901 155.181 371.046 154.723 370.375 154.052C369.582 153.259 368.972 152.314 368.422 151.399C367.751 150.331 367.08 149.294 366.378 148.257C364.608 144.262 362.503 140.327 360.489 136.515C358.171 132.093 354.967 128.067 351.122 124.559C343.678 117.788 333.823 113.427 323.327 111.109C311.549 108.516 298.307 108.76 286.286 110.804C279.452 111.963 273.532 114.464 268.071 118.215C265.172 120.198 262.548 122.485 259.894 124.712C258.063 126.237 256.11 127.67 254.219 129.134C251.473 130.476 248.91 133.648 247.537 135.447C246.164 137.247 245.035 139.168 244.089 141.151C241.892 144.048 239.421 150.423 243.479 152.375C245.096 153.168 245.828 148.684 245.95 148.288C246.164 147.586 246.377 146.946 246.591 146.275C248.177 142.828 250.008 139.382 252.785 136.606C253.578 135.966 254.402 135.325 255.195 134.715C255.47 134.502 255.744 134.289 256.019 134.075C257.85 132.977 259.894 132.215 262.03 131.574C264.165 130.964 266.332 130.781 268.467 130.537C272.342 130.781 276.248 131.727 280.001 132.855C288.483 135.387 296.202 139.351 304.135 142.859C308.925 144.963 313.899 146.763 319.208 147.769C325.279 148.928 331.778 148.105 337.942 147.708C344.41 147.312 350.238 147.952 356.126 150.179C361.405 152.161 366.104 155.059 371.504 156.858C371.748 156.95 371.962 156.828 372.053 156.645C372.48 156.584 372.663 156.218 372.45 155.882L372.389 155.913Z" fill="#FBE6D1"/>
<path d="M371.412 155.699C371.168 154.937 370.589 154.327 370.039 153.778C369.856 153.595 369.734 153.381 369.673 153.198C369.216 152.619 368.788 152.009 368.422 151.399C367.751 150.331 367.08 149.294 366.378 148.257C364.608 144.262 362.503 140.327 360.489 136.515C358.171 132.093 354.967 128.067 351.122 124.559C343.678 117.788 333.823 113.427 323.327 111.109C311.549 108.516 298.307 108.76 286.286 110.804C279.452 111.963 273.532 114.464 268.071 118.215C265.172 120.198 262.548 122.516 259.894 124.712C258.063 126.237 256.11 127.67 254.219 129.134C251.473 130.476 248.91 133.648 247.537 135.447C246.164 137.247 245.035 139.168 244.089 141.151C241.892 144.048 239.421 150.423 243.479 152.375C245.096 153.168 245.828 148.684 245.95 148.288C246.164 147.586 246.377 146.946 246.591 146.275C248.177 142.828 250.008 139.382 252.785 136.606C253.578 135.966 254.402 135.325 255.195 134.715C255.47 134.502 255.744 134.289 256.019 134.075C257.85 132.977 259.894 132.215 262.03 131.574C264.165 130.964 266.332 130.781 268.467 130.537C272.342 130.781 276.248 131.727 280.001 132.855C288.483 135.386 296.202 139.351 304.135 142.859C308.925 144.963 313.899 146.763 319.208 147.769C325.279 148.928 331.778 148.105 337.942 147.708C344.41 147.312 350.238 147.952 356.126 150.179C361.283 152.131 365.89 154.906 371.107 156.706C371.412 156.462 371.596 156.187 371.443 155.699L371.412 155.699ZM320.764 112.115C332.572 113.579 344.929 120.259 352.282 126.908C351.458 126.816 346.607 127.213 346.058 127.213C342.305 127.304 339.315 128.494 335.348 127.213C331.9 125.291 328.209 123.644 324.364 122.302C317.194 119.832 309.353 118.673 301.664 118.002C301.572 118.002 301.511 118.002 301.42 118.002C303.647 117.331 305.63 116.172 307.705 115.013C311.153 113.122 319.726 111.993 320.764 112.146L320.764 112.115ZM320.001 146.61C313.838 145.573 307.827 142.889 302.365 140.419C294.158 136.698 285.401 132.489 276.339 130.415C270.908 129.165 264.623 128.524 258.795 131.361C258.795 131.361 255.226 133.374 253.731 134.594C252.174 135.874 249.856 138.131 248.788 139.748C246.194 143.591 244.882 146.61 243.631 150.85C243.601 150.972 243.662 151.033 243.784 151.063C243.357 151.307 242.96 150.728 242.563 149.813C242.106 148.745 242.35 147.434 242.563 146.336C242.624 146.061 242.685 145.787 242.777 145.512C244.242 142.462 245.95 139.473 248.086 136.698C249.367 135.051 250.893 133.526 252.541 132.154C253.425 131.422 254.066 130.751 254.707 130.171C258.887 127.335 261.663 124.254 265.569 121.509C271.366 117.453 275.973 114.128 283.204 112.756C289.429 111.566 296.446 110.682 302.762 110.56C305.325 110.499 314.997 111.292 317.53 111.505C316.98 111.719 311.305 112.603 310.756 112.786C306.271 114.433 303.799 116.202 300.169 117.849C292.541 117.27 284.76 117.453 277.407 119.801C277.224 119.862 277.346 120.076 277.499 120.015C284.333 118.246 291.32 117.91 298.246 118.49C298.277 118.49 298.338 118.551 298.399 118.52C298.46 118.52 298.521 118.52 298.552 118.52C299.864 118.642 301.145 118.764 302.457 118.947C307.034 119.557 310.756 119.618 315.241 120.686C320.489 125.047 322.106 129.744 324.028 135.661C325.249 139.412 328.239 144.75 330.405 146.915C327.812 146.915 322.564 147.068 320.001 146.641L320.001 146.61ZM339.254 146.427C336.111 146.519 334.951 146.427 331.809 146.519C327.049 144.353 325.096 136.728 323.723 132.672C322.289 128.463 321.008 123.309 316.614 120.869C319.086 121.479 321.618 122.211 323.998 123.034C330.131 125.169 335.836 127.914 340.84 131.605C343.739 133.74 346.851 136.972 349.444 139.382C352.038 141.761 354.448 144.414 357.347 146.488C357.438 146.549 357.591 146.427 357.499 146.366C354.906 143.621 352.038 141.09 349.383 138.406C347.064 136.057 344.807 133.709 342.122 131.666C340.596 130.507 339.009 129.439 337.362 128.433C339.009 128.616 340.749 128.524 342.61 128.341C344.807 128.158 351.733 127.274 352.587 127.731C352.892 128.097 355.15 130.324 355.455 130.69C353.899 130.324 349.597 130.11 347.98 130.08C347.705 130.08 347.644 130.415 347.919 130.446C350.177 130.69 354.296 130.964 356.126 131.757C357.835 134.014 359.422 137.369 360.703 139.87C362.9 144.14 366.958 151.643 370.039 155.608C362.625 151.307 351.55 146.092 339.254 146.458L339.254 146.427Z" fill="#E9BE92"/>
<path d="M281.466 191.048C281.13 190.103 280.611 189.402 279.94 188.883C276.889 185.345 271.397 184.705 267.064 183.729C260.901 182.356 254.433 182.509 248.178 183.18C243.144 183.698 238.231 184.705 233.349 186.016C229.383 187.084 223.647 188.731 219.772 186.382C219.65 185.589 219.528 184.827 219.314 184.064C218.796 182.082 216.172 179.001 214.402 181.38C214.036 179.794 213.517 178.239 212.907 176.836C210.497 171.346 206.286 166.893 201.526 163.355C191.732 156.096 179.375 152.954 167.262 153.839C161.312 154.266 155.424 155.852 150.023 158.414C144.897 160.854 140.412 164.3 135.835 167.655C131.655 170.736 127.353 173.816 122.502 175.768C117.712 177.659 113.349 177.293 108.589 176.5C108.314 176.409 108.07 176.287 107.796 176.195C107.155 175.921 106.636 175.646 106.056 176.043C105.782 176.226 105.721 176.592 105.873 176.836C106.484 177.781 107.277 178.696 107.948 179.611C108.467 180.313 109.016 180.862 109.718 181.197C110.389 181.99 111.091 182.783 111.884 183.485C113.928 185.315 116.064 187.053 118.353 188.578C119.512 189.371 120.702 190.103 121.892 190.835C120.153 191.536 118.566 192.665 117.102 193.824C115.576 195.044 114.111 196.416 112.799 197.911C111.976 198.856 110.206 202.394 108.925 202.425C108.131 202.425 107.826 203.706 108.619 203.98C109.535 204.316 110.42 204.865 111.243 205.505C108.375 204.987 104.256 206.359 102.243 207.305C99.9847 208.372 97.3608 210.477 95.8047 212.917C95.347 214.106 94.8893 215.753 96.6895 215.784C96.8421 215.784 96.9946 215.784 97.1167 215.784C97.3913 215.662 97.6048 215.509 97.7269 215.448C98.2151 215.143 98.7032 214.869 99.1914 214.625C99.1914 214.594 99.2525 214.564 99.283 214.533C103.646 212.307 109.199 213.252 113.501 215.509C119.848 218.834 124.912 224.995 129.886 229.996C134.798 234.937 140.046 239.421 146.453 242.349C151.396 244.606 156.644 246.222 161.953 247.412C182.091 251.834 209.825 248.54 220.718 228.41C223.769 222.768 224.532 214.137 221.023 208.433C220.382 208.22 219.894 207.64 219.925 206.878C219.864 206.817 219.833 206.725 219.772 206.664C219.833 206.664 219.894 206.573 219.955 206.573L219.955 206.512C220.84 203.553 220.779 200.381 223.159 198.124C225.172 196.172 227.857 195.074 230.665 195.044C230.726 195.044 230.756 195.044 230.787 195.044C234.021 194.129 237.255 193.305 240.581 192.726C247.934 191.475 256.111 190.987 263.495 192.177C266.973 192.726 269.902 194.007 272.953 195.684C275.18 196.935 277.53 197.362 279.757 195.959C281.222 195.044 282.015 192.634 281.435 191.018L281.466 191.048Z" fill="#FBE6D1"/>
<path d="M281.466 191.048C281.13 190.103 280.611 189.402 279.94 188.883C276.889 185.345 271.397 184.705 267.064 183.729C260.901 182.356 254.433 182.509 248.178 183.18C243.144 183.698 238.231 184.705 233.35 186.016C229.383 187.084 223.647 188.731 219.772 186.382C219.65 185.589 219.528 184.827 219.314 184.064C218.796 182.082 216.172 179.001 214.402 181.38C214.036 179.794 213.517 178.239 212.907 176.836C210.497 171.346 206.286 166.893 201.526 163.355C191.732 156.096 179.375 152.954 167.262 153.839C161.312 154.266 155.424 155.852 150.023 158.414C144.897 160.854 140.412 164.3 135.835 167.655C131.655 170.736 127.353 173.816 122.502 175.768C117.712 177.659 113.349 177.293 108.589 176.5C108.314 176.409 108.07 176.287 107.796 176.195C107.155 175.921 106.636 175.646 106.056 176.043C105.782 176.226 105.721 176.592 105.873 176.836C106.484 177.781 107.277 178.696 107.948 179.611C108.467 180.313 111.091 182.783 111.884 183.515C113.928 185.345 116.064 187.084 118.353 188.609C119.512 189.401 120.702 190.133 121.892 190.865C120.153 191.567 118.566 192.695 117.102 193.854C115.576 195.074 114.111 196.447 112.799 197.941C111.976 198.887 110.053 201.845 108.925 202.455C107.857 203.035 107.826 203.736 108.619 204.011C109.535 204.346 110.42 204.895 111.243 205.536C108.375 205.017 104.256 206.39 102.243 207.335C99.9847 208.403 97.3608 210.507 95.8047 212.947C95.347 214.137 94.8893 215.784 96.6895 215.814C96.8421 215.814 96.9946 215.814 97.1167 215.814C97.3913 215.692 97.6048 215.54 97.7269 215.479C98.2151 215.174 98.7032 214.899 99.1914 214.655C99.1914 214.625 99.2525 214.594 99.283 214.564C103.646 212.337 109.199 213.283 113.501 215.54C119.848 218.864 124.912 225.025 129.886 230.027C134.798 234.968 140.046 239.451 146.453 242.379C151.396 244.636 156.644 246.253 161.953 247.442C182.091 251.865 209.825 248.571 220.718 228.441C224.105 222.189 224.715 212.276 219.772 206.695C220.108 206.634 220.382 206.42 220.596 206.115C220.596 206.085 220.596 206.054 220.596 206.024C221.999 203.096 221.328 198.46 224.959 197.27C226.149 196.447 227.583 195.928 229.23 195.471C232.983 194.403 236.706 193.397 240.55 192.756C247.903 191.506 256.08 191.018 263.464 192.207C266.942 192.756 269.871 194.037 272.923 195.715C275.15 196.965 277.499 197.392 279.727 195.989C281.191 195.074 281.984 192.665 281.405 191.048L281.466 191.048ZM119.481 186.84C117.254 185.437 110.389 179.764 108.894 178.696C108.833 178.605 107.155 177.019 107.094 176.927C110.816 178.544 117.559 178.178 117.834 178.269C122.472 177.69 125.645 176.439 129.306 174.152C133.486 171.529 137.941 167.625 141.999 164.819C146.759 161.494 153.074 158.139 158.688 156.706C170.252 153.747 183.097 154.632 193.685 160.122C199.024 162.897 205.249 167.625 208.666 172.596C210.283 174.945 212.114 178.605 212.754 181.35C212.754 181.441 212.754 181.533 212.754 181.655C213.334 184.552 212.327 187.816 211.015 190.499C208.361 195.928 200.519 198.856 200.153 198.978C196.004 200.442 192.678 201.022 188.345 201.632C179.161 202.943 169.703 202.699 160.519 201.54C151.274 200.351 140.9 197.27 132.205 194.007C127.506 192.268 123.753 189.402 119.512 186.779L119.481 186.84ZM110.053 203.34C111.915 202.12 114.539 198.46 116.064 196.965C118.353 194.708 121.312 191.811 124.851 192.573C127.445 193.946 130.13 195.166 132.906 196.203C142.395 199.832 152.22 202.333 162.289 203.614C172.357 204.895 182.609 204.804 192.617 202.913C205.889 200.412 212.114 192.695 212.297 192.543C212.327 192.482 213.09 191.414 213.151 191.353C213.731 193.244 215.348 197.27 215.378 197.362C218.368 202.821 217.24 210.05 215.165 215.479C213.548 219.2 211.717 222.219 209.063 224.446C200.672 231.46 186.118 234.236 175.5 234.632C163.418 235.12 151.366 232.375 140.504 227.007C133.791 223.683 127.903 219.596 122.685 214.228C119.115 210.599 114.874 205.078 110.114 203.37L110.053 203.34ZM217.209 215.052C217.148 216.638 216.843 218.224 216.294 219.718C214.89 223.561 211.717 226.611 208.574 229.112C201.862 234.419 193.288 237.133 184.837 237.682C176.324 238.231 167.354 237.835 159.024 235.944C156.339 235.334 153.746 234.419 151.213 233.382C159.177 235.639 167.506 236.401 175.805 236.218C186.545 235.974 197.956 233.87 206.957 227.739C211.076 224.934 214.433 221.091 216.568 216.577C216.812 216.089 217.026 215.57 217.209 215.052ZM221.633 219.749C220.718 225.33 216.385 233.016 212.297 236.706C203.876 244.301 190.817 247.351 179.772 247.564C168.635 247.778 156.186 244.819 146.118 240.122C133.089 234.053 125.645 218.529 112.281 213.161C107.704 211.3 101.083 211.605 96.7505 214.198C96.9336 212.002 100.931 209.287 102.67 208.494C104.378 207.701 107.063 207.732 108.955 207.61C110.42 207.518 111.915 207.976 113.227 207.274C114.05 208.067 114.813 208.891 115.545 209.623C117.803 211.88 119.848 214.35 122.166 216.546C127.842 221.945 134.554 226.428 141.602 229.783C142.06 229.996 142.517 230.21 142.975 230.393C148.589 233.443 154.356 236.157 160.641 237.621C169.52 239.665 179.558 239.726 188.559 238.719C197.255 237.743 205.706 234.205 212.449 228.654C216.721 225.147 220.779 215.296 219.131 208.037C221.999 211.087 222.03 217.217 221.603 219.749L221.633 219.749ZM276.035 195.074C273.533 194.037 269.231 191.963 266.576 191.323C260.199 189.768 253.609 189.92 247.141 190.438C241.191 190.896 236.37 191.658 230.665 193.366C227.461 194.312 222.884 195.074 221.511 198.185C221.389 198.063 220.199 205.475 218.582 205.292C218.429 203.065 218.033 199.832 217.514 197.697C216.873 195.074 215.867 191.994 214.066 189.859C214.921 187.846 215.073 185.62 214.799 183.393C217.27 180.16 217.728 186.108 218.216 188.06C218.765 190.316 218.826 193.641 220.657 195.105C220.901 195.288 221.267 195.105 221.175 194.769C220.504 192.756 220.291 190.499 220.047 188.273C222.03 190.103 225.539 188.944 228.315 188.639C232.831 188.121 237.072 186.077 241.527 185.284C248.117 184.125 253.578 183.637 260.291 184.156C263.342 184.4 267.461 185.101 270.451 185.742C271.641 185.986 280.795 190.133 279.91 192.939C279.513 195.105 277.56 195.776 276.035 195.166L276.035 195.074Z" fill="#E9BE92"/>
<path d="M204.119 214.503C205.95 214.93 207.689 214.198 209.276 213.344C211.106 212.368 211.991 210.751 212.723 208.921C212.845 208.647 212.449 208.433 212.296 208.708C210.649 211.91 206.56 211.91 203.997 213.923C203.784 214.106 203.814 214.411 204.119 214.503Z" fill="#E9BE92"/>
<path d="M199.758 217.553C199.514 217.614 199.483 218.01 199.727 218.102C201.802 218.864 204.09 218.803 206.226 218.346C208.758 217.797 210.284 216.607 211.962 214.716C212.176 214.472 211.81 214.167 211.596 214.381C208.514 217.248 203.602 216.821 199.788 217.583L199.758 217.553Z" fill="#E9BE92"/>
<path d="M192.586 222.555C196.674 224.842 203.448 223.775 206.804 220.481C206.926 220.359 206.804 220.084 206.621 220.145C204.638 220.938 202.441 221.823 200.244 222.189C197.833 222.585 196.247 222.372 192.738 221.823C192.341 221.762 192.28 222.372 192.586 222.555Z" fill="#E9BE92"/>
<path d="M174.371 224.323C177.3 226.946 181.571 227.861 185.385 228.288C189.291 228.746 193.593 228.807 197.132 226.916C197.407 226.763 197.224 226.367 196.949 226.367C193.196 226.428 189.809 227.587 186.057 227.129C182.243 226.672 179.375 226.367 174.615 223.896C174.401 223.774 174.218 224.14 174.401 224.323L174.371 224.323Z" fill="#E9BE92"/>
<path d="M161.069 223.043C160.886 222.951 160.703 223.226 160.886 223.348C163.419 225.208 165.829 226.794 168.88 227.77C171.809 228.746 175.715 230.149 178.766 229.021C179.041 228.929 179.102 228.38 178.796 228.411C175.135 228.655 173.762 227.831 171.199 227.252C167.904 226.489 163.999 224.751 161.069 223.043Z" fill="#E9BE92"/>
<path d="M174.585 229.843C170.466 228.837 166.256 228.501 162.167 227.312C157.56 225.97 154.02 222.676 149.718 220.724C149.413 220.572 149.2 221.029 149.474 221.182C151.61 222.341 152.953 223.5 154.966 224.872C156.705 226.061 158.963 227.8 160.947 228.41C165.188 229.752 170.069 230.819 174.524 230.301C174.799 230.27 174.829 229.904 174.524 229.813L174.585 229.843Z" fill="#E9BE92"/>
<path d="M140.777 219.23C142.272 220.328 143.249 221.883 144.438 223.286C145.232 224.262 146.33 224.902 147.368 225.573C149.93 227.281 152.982 228.684 156.094 228.318C156.338 228.318 156.46 227.922 156.185 227.83C153.378 226.763 150.053 225.787 147.429 224.292C144.896 222.828 143.676 220.053 140.899 219.077C140.777 219.047 140.655 219.169 140.777 219.26L140.777 219.23Z" fill="#E9BE92"/>
<path d="M142.7 223.47C138.825 223.256 137.788 221.03 135.988 218.712C135.805 218.468 135.439 218.651 135.53 218.925C136.262 221.762 139.344 225.483 142.639 224.232C142.975 224.11 143.036 223.5 142.7 223.47Z" fill="#E9BE92"/>
<path d="M116.461 202.76C116.797 203.279 117.377 203.523 117.956 203.492C118.17 203.492 118.383 203.462 118.597 203.37C118.75 203.309 118.902 203.248 119.024 203.126C119.085 203.096 119.146 203.035 119.177 203.004C119.177 203.004 119.177 203.004 119.238 202.974C119.573 202.699 119.756 202.089 119.329 201.784C119.39 201.571 119.39 201.357 119.329 201.144C118.994 200.046 117.468 199.832 116.736 200.656C116.248 201.205 116.095 202.15 116.492 202.76L116.461 202.76Z" fill="#E9BE92"/>
<path d="M125.156 204.285C125.492 204.803 126.041 204.986 126.62 205.017C127.414 205.047 128.421 204.376 128.421 203.553C128.482 203.461 128.573 203.37 128.634 203.278C128.726 203.156 128.817 203.034 128.909 202.882C128.939 202.821 129.122 202.577 128.909 202.851C129.153 202.516 129.275 202.15 129.153 201.723C129.031 201.357 128.695 200.991 128.299 200.96C127.719 200.899 127.231 200.93 126.681 201.143C126.01 201.418 125.308 201.997 125.034 202.668C124.82 203.217 124.79 203.797 125.125 204.285L125.156 204.285Z" fill="#E9BE92"/>
<path d="M131.99 200.809C132.265 201.236 132.783 201.358 133.241 201.236C133.882 201.053 134.309 200.565 134.431 199.894C134.492 199.436 134.217 198.887 133.699 198.826C133.393 198.796 133.119 198.765 132.844 198.887C132.417 199.07 132.142 199.314 131.929 199.711C131.746 200.046 131.807 200.504 131.99 200.778L131.99 200.809Z" fill="#E9BE92"/>
<path d="M133.729 210.751C134.096 210.751 134.37 210.812 134.736 210.69C135.438 210.446 135.774 209.866 135.804 209.165C135.804 208.768 135.652 208.494 135.469 208.219C135.469 208.189 135.469 208.128 135.469 208.097C135.469 208.128 135.469 208.158 135.438 208.189C135.499 208.006 135.53 207.853 135.53 207.64C135.53 207.64 135.53 207.64 135.53 207.609C135.53 207.548 135.53 207.487 135.499 207.426C135.499 207.335 135.499 207.304 135.499 207.335C135.438 207.06 135.286 206.816 134.98 206.694C134.919 206.694 134.919 206.664 134.95 206.694C134.828 206.633 134.706 206.572 134.523 206.542C134.279 206.45 133.852 206.542 133.607 206.633C133.028 206.786 132.601 207.182 132.295 207.67C131.96 208.219 131.99 208.768 132.112 209.378C132.265 210.019 132.997 210.781 133.699 210.812L133.729 210.751Z" fill="#E9BE92"/>
<path d="M142.304 206.878C142.578 207.275 142.914 207.458 143.372 207.61C143.738 207.732 144.104 207.702 144.439 207.549C145.233 207.275 145.66 206.451 145.416 205.628C145.416 205.445 145.385 205.262 145.324 205.048C145.08 204.286 144.195 203.859 143.463 204.103C143.097 204.225 142.914 204.377 142.639 204.621C142.334 204.896 142.182 205.231 142.06 205.628C141.938 206.024 142.06 206.512 142.304 206.848L142.304 206.878Z" fill="#E9BE92"/>
<path d="M155.333 206.787C155.18 206.939 155.028 207.153 154.936 207.366C154.784 207.641 154.692 207.946 154.723 208.281C154.723 208.586 154.845 208.861 154.997 209.135C155.058 209.227 155.119 209.288 155.18 209.349C155.18 209.349 155.211 209.41 155.241 209.41C155.607 209.837 156.248 210.02 156.767 209.989C157.682 209.959 158.415 209.379 158.872 208.617C159.208 208.037 159.208 207.336 159.055 206.726C158.872 205.994 158.231 205.567 157.56 205.353C157.103 205.201 156.492 205.231 156.096 205.536C156.065 205.536 156.035 205.567 155.974 205.597C155.943 205.597 155.913 205.628 155.852 205.658C155.821 205.658 155.791 205.689 155.791 205.689C155.455 205.841 155.211 206.146 155.241 206.512C155.241 206.604 155.272 206.695 155.302 206.787L155.333 206.787Z" fill="#E9BE92"/>
<path d="M165.462 208.921C165.859 209.47 166.621 209.714 167.232 209.287C167.354 209.195 167.476 209.073 167.598 208.951C167.628 208.951 167.659 208.89 167.72 208.86C167.964 208.494 167.995 208.463 167.781 208.799C168.086 208.463 168.178 207.975 168.025 207.548C167.842 206.969 167.323 206.694 166.744 206.694C165.737 206.694 164.852 208.067 165.493 208.921L165.462 208.921Z" fill="#E9BE92"/>
<path d="M146.332 213.618C146.576 213.527 146.82 213.405 147.095 213.374C147.217 213.374 147.308 213.374 147.43 213.405C147.43 213.405 147.43 213.405 147.4 213.435C147.156 213.649 147.034 213.832 146.942 214.137C146.881 214.35 147.064 214.655 147.308 214.655C147.766 214.686 148.041 214.594 148.346 214.259C148.681 213.923 148.773 213.496 148.773 213.039C148.773 212.856 148.62 212.612 148.437 212.551C147.949 212.368 147.491 212.307 147.003 212.398C146.545 212.49 146.271 212.825 146.027 213.191C145.905 213.374 146.149 213.649 146.362 213.557L146.332 213.618Z" fill="#E9BE92"/>
<path d="M158.016 218.254C159.542 218.315 160.823 220.084 162.288 220.603C163.569 221.06 164.668 220.908 165.858 220.267C166.041 220.176 166.01 219.871 165.858 219.779C164.576 219.23 163.203 219.017 161.922 218.468C160.671 217.949 159.359 217.736 158.016 217.98C157.833 218.01 157.833 218.254 158.016 218.285L158.016 218.254Z" fill="#E9BE92"/>
<path d="M180.198 211.087C180.015 211.3 179.832 211.544 179.71 211.819C179.527 212.337 179.497 212.825 179.802 213.313C180.198 213.923 180.87 214.045 181.541 213.923C182.487 213.709 183.067 212.734 183.341 211.88C183.555 211.209 183.494 210.446 183.158 209.836C182.822 209.257 182.182 208.952 181.51 209.013C180.839 209.074 179.924 209.653 179.863 210.355C179.863 210.629 179.924 210.965 180.198 211.087Z" fill="#E9BE92"/>
<path d="M202.807 204.896C204.76 205.323 207.476 205.536 209.276 204.53C210.923 203.615 212.54 200.656 210.405 199.345C210.313 199.284 210.069 199.253 210.039 199.345C209.794 201.205 210.191 202.486 208.513 203.157C207.018 203.737 205.218 204.042 202.716 204.347C202.472 204.347 202.563 204.804 202.807 204.865L202.807 204.896Z" fill="#E9BE92"/>
<path d="M209.948 208.159C211.291 208.311 212.237 207.549 212.877 206.451C213.335 205.658 213.549 204.438 212.938 203.675C212.816 203.492 212.603 203.34 212.359 203.37C211.748 203.462 211.352 203.797 210.864 204.163C210.314 204.59 209.552 205.048 209.094 205.658C208.453 206.481 208.667 208.037 209.948 208.189L209.948 208.159Z" fill="#E9BE92"/>
<path d="M194.448 208.433C195.211 208.647 196.248 208.22 196.187 207.305C196.126 206.329 195.059 206.146 194.326 206.329C193.869 206.42 193.228 206.817 193.319 207.366C193.411 207.976 193.93 208.281 194.479 208.433L194.448 208.433Z" fill="#E9BE92"/>
<path d="M137.971 172.475C140.076 172.933 141.876 172.17 143.646 171.103C145.233 170.157 147.429 168.785 147.796 166.833C147.826 166.619 147.704 166.436 147.49 166.406C145.69 166.009 144.409 167.412 143.127 168.48C141.48 169.852 139.924 171.133 137.91 171.957C137.666 172.048 137.666 172.414 137.94 172.475L137.971 172.475Z" fill="#E9BE92"/>
<path d="M149.961 164.453C149.961 164.849 149.961 164.91 149.961 164.636C149.778 165.246 150.297 165.825 150.846 165.978C150.602 165.917 150.663 165.917 151.06 166.069C151.273 166.13 151.456 166.161 151.67 166.13C152.067 166.13 152.433 166.039 152.799 165.917C153.104 165.825 153.379 165.764 153.684 165.642C154.507 165.307 154.904 164.88 155.148 164.026C155.392 163.202 154.813 162.47 154.172 162.043C153.226 161.403 152.006 162.043 151.243 162.653C150.816 163.019 150.541 163.263 150.236 163.751C150.114 163.934 150.083 164.148 149.992 164.361C149.992 164.392 149.992 164.422 149.992 164.453L149.961 164.453Z" fill="#E9BE92"/>
<path d="M157.468 161.83C157.407 162.135 157.468 162.44 157.651 162.745C157.804 162.958 157.987 163.111 158.2 163.202C158.384 163.324 158.567 163.385 158.811 163.477C159.177 163.599 159.665 163.477 160.001 163.233C160.489 162.928 160.763 162.379 160.702 161.799C160.702 161.403 160.489 161.006 160.184 160.732C159.726 160.305 159.207 160.305 158.628 160.396C157.987 160.518 157.56 161.128 157.468 161.769C157.468 161.769 157.468 161.799 157.468 161.83Z" fill="#E9BE92"/>
<path d="M210.467 184.522C210.497 183.973 209.643 183.851 209.429 184.308C208.239 186.992 207.171 189.219 205.005 191.262C202.839 193.336 200.093 194.648 197.316 195.593C192.16 197.332 186.546 197.576 181.145 197.667C169.002 197.881 156.858 197.423 145.05 194.343C144.806 194.282 144.745 194.648 144.989 194.709C157.926 198.582 170.985 199.223 184.379 198.857C189.871 198.704 195.455 198.003 200.55 195.868C205.036 193.977 210.161 189.768 210.467 184.552L210.467 184.522Z" fill="#E9BE92"/>
<path d="M140.107 192.299C133.761 190.561 127.933 188.121 122.106 185.101C121.953 185.01 121.77 185.254 121.923 185.376C127.201 189.097 133.456 192.848 140.107 192.604C140.29 192.604 140.29 192.33 140.107 192.299Z" fill="#E9BE92"/>
<path d="M209.549 180.496C209.549 180.313 209.213 180.191 209.152 180.404C206.803 187.023 199.877 190.896 193.531 193.061C186.849 195.349 179.587 195.959 172.539 195.318C172.325 195.318 172.234 195.623 172.478 195.654C179.77 197.026 187.642 196.386 194.751 194.159C198.168 193.092 201.555 191.445 204.24 189.066C206.528 187.023 210.007 183.82 209.58 180.465L209.549 180.496Z" fill="#E9BE92"/>
<path d="M201.526 169.485C201.526 169.485 201.221 169.638 201.343 169.76C204.577 172.108 208.269 176.531 206.774 180.831C206.713 181.045 206.927 181.197 207.079 181.045C211.443 176.714 204.883 171.681 201.496 169.516L201.526 169.485Z" fill="#E9BE92"/>
<path d="M202.533 185.985C198.841 188.822 194.569 191.262 189.962 192.146C189.81 192.177 189.81 192.421 189.962 192.421C195.057 191.75 199.085 189.859 202.655 186.138C202.746 186.046 202.624 185.924 202.533 185.985Z" fill="#E9BE92"/>
<path d="M217.148 224.446C217.148 224.446 217.026 224.293 216.965 224.385C211.808 234.358 201.77 239.787 191.183 242.532C190.939 242.593 191.03 242.989 191.274 242.959C196.827 242.135 201.953 240.275 206.743 237.317C211.29 234.511 216.446 230.027 217.148 224.446Z" fill="#E9BE92"/>
<path d="M131.99 142.645C134.156 142.706 133.546 140.815 132.173 140.052C131.502 139.686 131.258 138.863 130.77 138.283C129.702 137.399 128.634 136.514 127.627 135.538C124.667 132.611 121.799 129.256 120.03 125.565C116.521 118.184 120.335 112.938 122.867 107.845C127.383 98.7865 129.427 87.5626 128.176 75.8203C127.23 67.0669 125.186 58.1305 123.325 49.2552C121.403 40.0138 119.816 30.8029 119.908 21.958C119.938 17.7186 120.396 13.5707 121.586 9.84971C122.47 7.13525 123.782 4.84778 125.217 2.62131C125.461 2.01132 125.949 0.760838 125.918 0.0898471C125.064 0.089847 123.996 0.394843 123.081 0.760838C120.091 2.62131 117.314 4.87828 114.538 6.92175C110.785 9.69721 107.367 12.7472 104.347 16.3156C98.7327 22.934 93.9425 30.4674 90.8303 39.0988C84.9111 55.5076 87.9012 75.5153 96.9631 94.9435C99.2514 99.8235 101.814 104.673 104.652 109.37C107.611 114.311 110.937 119.13 113.866 124.101C116.795 129.042 120.182 134.41 124.362 138.497C126.62 140.144 129.305 142.614 132.021 142.675L131.99 142.645Z" fill="#FBE6D1"/>
<path d="M125.401 137.704C122.624 135.142 120.672 132.001 118.627 128.89C116.4 125.505 114.508 122.028 112.372 118.642C110.42 115.562 107.735 112.024 105.965 108.852C99.7408 97.75 92.7842 83.2322 90.2213 71.6728C90.7705 72.4963 94.0657 76.5528 94.6759 77.3457C97.4219 81.0057 100.107 84.4826 101.938 88.3561C102.243 89.7591 102.548 91.1621 102.883 92.565C104.104 97.4145 105.416 102.355 107.521 107.144C109.474 111.627 112.22 115.989 114.691 120.32C114.935 120.747 115.485 120.533 115.241 120.106C110.389 110.926 106.423 102.477 104.195 92.992C102.06 83.8422 101.663 73.5333 101.449 64.6884C101.388 62.5534 101.388 60.449 101.449 58.375C104.928 55.5385 108.833 53.4036 112.708 50.9941C116.003 48.9506 119.146 44.9247 120.488 42.3017C121.465 48.4321 123.296 53.8916 124.302 60.022C124.607 61.8215 125.34 65.3899 125.553 67.1589C124.852 68.4094 121.678 71.4288 120.702 72.4353C119.115 74.0518 117.315 75.3328 115.302 76.4308C113.41 77.4677 112.342 78.3522 110.481 79.4502C109.016 80.3042 107.521 81.2497 105.691 82.9882C105.629 83.0492 105.752 83.1407 105.813 83.1102C107.979 82.3782 109.749 80.8227 111.823 79.8467C113.959 78.8402 122.807 73.0453 125.95 68.6839C126.072 70.0258 126.652 73.9298 126.713 75.2718C125.95 76.7358 121.953 79.3892 120.488 80.3042C118.688 81.4327 116.888 82.5002 116.034 84.5741C116.034 84.5741 116.034 84.6046 116.064 84.6046C118.444 82.7747 124.516 78.9317 126.621 76.8882C127.872 83.2627 126.194 91.2231 125.37 95.859C124.455 101.166 122.533 103.24 120.611 107.967C119.176 111.444 116.553 116.538 117.376 121.021C118.292 126.206 121.282 130.141 125.248 134.471C127.476 136.881 132.876 140.937 133.303 140.907C133.7 140.907 133.608 140.632 133.486 140.48C133.364 140.327 132.815 140.083 132.754 139.9C131.015 138.528 129.245 137.125 127.598 135.539C124.638 132.611 121.77 129.256 120 125.566C116.491 118.185 120.305 112.939 122.838 107.845C127.353 98.787 129.398 87.5631 128.147 75.8208C127.201 67.0674 125.157 58.131 123.296 49.2556C121.373 40.0143 119.787 30.8034 119.878 21.9585C119.909 17.7191 120.366 13.5711 121.556 9.85017C122.594 6.64771 124.211 4.08574 125.95 1.46278C125.95 1.40178 125.981 1.31028 125.981 1.24928C126.042 0.730791 126.164 0.0597998 125.431 0.0293002C124.791 0.0293001 124.15 0.151298 123.54 0.425795C120.366 2.34727 117.437 4.78723 114.508 6.9527C110.755 9.72817 107.338 12.7781 104.317 16.3466C98.7034 22.965 93.9132 30.4984 90.801 39.1298C84.8818 55.5385 87.8719 75.5463 96.9338 94.9745C99.2221 99.8544 101.785 104.704 104.623 109.401C107.582 114.342 110.908 119.161 113.837 124.132C117.193 129.805 121.19 136.057 126.255 140.297C127.415 141.181 128.665 141.974 130.069 142.401C130.252 142.462 131.076 142.706 131.93 142.859C131.839 142.432 127.445 139.626 125.401 137.735L125.401 137.704ZM100.992 23.4225C101.114 23.2395 102.365 20.647 102.517 20.464C106.514 15.7061 107.979 13.6626 112.342 10.2772C114.783 8.38619 121.587 2.46927 125.035 0.944288C123.173 4.08574 120.153 10.3687 119.512 13.9981C118.353 20.586 118.627 26.5029 119.512 33.7313C119.634 34.7073 119.97 37.9708 120 38.1233C120.885 43.9792 113.562 49.1641 109.993 51.5736C107.643 53.1596 105.233 54.0136 102.944 55.691C102.517 55.996 102.06 56.3315 101.602 56.6975C101.907 50.3841 102.883 44.3452 104.928 38.8248C107.674 31.3524 112.006 25.0085 114.905 17.6276C114.935 17.5361 114.813 17.4446 114.752 17.5056C110.359 24.2155 106.148 33.2738 103.311 41.1732C103.006 39.2823 101.694 35.6528 101.205 33.5483C100.29 29.5224 100.015 26.5639 101.022 23.453L100.992 23.4225ZM89.6416 49.9266C90.74 40.9597 95.0726 31.3524 99.9239 24.002C99.8629 25.161 99.7713 29.3394 99.8323 30.5899C100.046 35.0733 102.67 39.4348 102.609 43.0642C101.053 48.4016 100.839 52.0921 100.595 58.0395C100.473 58.375 100.687 63.5294 100.687 65.1764C100.687 71.4288 100.748 79.6332 101.816 86.1296C99.1916 81.6157 92.6012 74.1128 90.0077 69.5378C88.8483 62.8584 88.8483 56.2095 89.6416 49.8961L89.6416 49.9266Z" fill="#E9BE92"/>
<path d="M376.996 110.469C376.141 104.735 373.762 99.0619 369.826 94.7615C363.998 88.4176 355.272 85.7946 346.79 86.0996C342.457 84.9711 338.643 82.8362 335.622 79.1457C332.053 74.7843 328.208 71.8563 322.93 69.8738C313.441 66.2749 302.853 66.7324 293.181 69.3858C283.143 72.1003 273.41 77.4072 266.85 85.5811C259.558 94.609 256.476 107.541 253.7 118.704C252.266 120.442 251.259 122.73 250.466 124.499C248.757 128.159 247.597 132.062 245.675 135.631C244.028 138.65 242.136 141.456 240.885 144.659C240.458 145.787 239.939 147.19 240.092 148.41C240.397 148.868 240.793 149.264 241.373 149.478C242.166 149.752 242.99 149.813 243.784 149.783C248.818 147.129 250.618 140.663 251.991 135.204C252.937 131.391 253.852 127.61 255.408 123.98C256.171 122.242 257.239 120.686 258.734 119.497C259.863 118.612 261.175 118.246 262.456 117.819C262.548 117.819 262.67 117.789 262.762 117.758C265.325 117.392 268.559 118.246 271.152 118.46C277.56 118.978 283.967 118.551 290.222 117.148C301.877 114.556 311.335 107.053 321.008 100.465C321.465 100.16 321.923 99.8549 322.381 99.5194C326.256 99.2144 330.039 98.8179 334.066 99.5804C339.192 100.526 344.135 102.783 348.529 105.497C353.136 108.334 357.469 112.024 360.977 116.111C364.791 120.534 367.11 126.024 371.016 130.355C371.534 130.934 372.511 130.751 372.968 130.233C375.013 128.037 376.294 125.231 376.63 122.272C377.667 118.46 377.514 114.159 376.965 110.499L376.996 110.469Z" fill="#FBE6D1"/>
<path d="M376.997 110.469C376.143 104.735 373.763 99.0619 369.827 94.7615C364 88.4176 355.273 85.7946 346.791 86.0996C342.459 84.9711 338.645 82.8362 335.624 79.1457C332.054 74.7843 328.21 71.8563 322.931 69.8738C313.442 66.2749 302.855 66.7324 293.183 69.3858C283.145 72.1003 273.412 77.4072 266.852 85.5811C259.559 94.609 256.478 107.541 253.701 118.704C252.267 120.442 251.26 122.73 250.467 124.499C248.758 128.159 247.599 132.062 245.677 135.631C244.029 138.65 242.137 141.456 240.887 144.659C240.459 145.787 239.941 147.221 240.124 148.441C240.124 148.441 240.154 148.471 240.185 148.502C241.039 147.8 242.778 143.469 243.266 142.585C244.639 140.145 245.89 137.796 247.141 135.265C248.423 132.672 249.948 130.019 250.711 127.244C251.382 124.834 252.359 122.669 253.854 120.686C255.044 119.1 256.661 117.941 257.759 116.355C257.82 116.294 257.759 116.142 257.668 116.172C256.813 116.325 256.051 116.691 255.349 117.179C257.607 107.693 259.895 99.0619 265.631 89.9121C271.642 80.3352 282.87 73.7778 293.457 71.1548C294.983 70.7888 300.963 68.9893 302.55 68.8063C300.933 69.9958 297.088 74.2963 295.929 76.1262C294.556 78.3222 293.518 80.2132 292.237 82.4702C290.772 85.0321 288.972 87.1976 287.05 89.4241C287.05 89.4241 287.05 89.4851 287.081 89.4546C291.017 87.4111 292.908 83.0802 295.044 79.4202C296.356 77.1632 297.393 75.4858 299.133 73.5033C300.841 71.5208 302.428 69.8128 303.953 68.9283C308.896 67.8609 319.728 70.3313 324.854 72.3443C322.992 73.3813 318.721 77.1327 317.531 78.5052C315.944 80.3352 313.992 81.9212 312.374 83.7206C311.337 84.8796 310.544 85.1846 309.171 85.9166C306.394 86.8011 303.679 87.8686 301.085 89.0886C288.911 94.7615 278.354 102.996 266.424 109.127C266.089 109.279 266.638 109.462 267.004 109.31C278.476 104.674 286.837 97.1405 297.973 91.8945C303.74 89.1801 310.422 86.3131 316.921 85.4286C320.033 85.0016 324.365 84.6051 327.539 84.8491C329.064 84.9711 333.824 85.5506 334.251 85.4591C334.465 85.3981 334.648 85.3371 334.831 85.2761C329.979 83.5071 324.365 83.3241 319.545 83.7511C319.148 83.7816 318.782 83.8426 318.385 83.8731C319.362 83.1411 320.277 82.2262 321.009 81.5247C322.26 80.3657 323.511 79.1762 324.945 78.2612C326.166 77.4987 329.674 76.3092 330.864 76.2482C333.702 78.7187 334.343 80.1827 337.15 82.8667C338.431 84.0866 342.245 86.0386 344.076 86.2216C343.679 86.3131 337.76 87.6551 337.851 87.6856C328.973 90.9185 320.643 98.4519 312.924 103.698C309.628 105.924 305.57 108.517 302.062 110.377C301.146 110.377 298.675 109.127 297.729 108.913C295.471 108.425 293.366 107.48 291.23 106.626C287.813 105.223 284.152 104.033 280.49 105.131C280.46 105.131 280.49 105.192 280.49 105.192C285.341 105.284 289.338 106.656 293.58 108.669C294.464 109.096 299.865 110.835 300.811 111.14C300.322 111.353 295.349 113.671 294.83 113.885C288.576 116.355 282.565 116.904 275.883 117.057C271.825 117.148 268.011 116.05 263.373 116.111C262.336 116.111 260.963 116.447 260.17 116.904C255.532 118.917 253.274 126.359 252.054 130.233C250.894 133.892 250.131 137.613 249.003 141.273C248.606 142.554 247.904 143.805 246.897 145.025C245.89 146.763 244.67 148.41 243.236 149.813C243.388 149.813 243.51 149.813 243.633 149.813C248.758 147.19 250.559 140.663 251.932 135.173C252.877 131.361 253.793 127.579 255.349 123.95C256.112 122.211 257.18 120.656 258.675 119.466C259.804 118.582 261.116 118.216 262.397 117.789C262.489 117.789 262.611 117.758 262.702 117.728C265.265 117.362 268.499 118.216 271.093 118.429C277.5 118.948 283.907 118.521 290.162 117.118C301.818 114.525 311.276 107.022 320.948 100.434C321.406 100.129 321.863 99.8244 322.321 99.4889C326.196 99.1839 329.979 98.7874 334.007 99.5499C339.133 100.495 344.076 102.752 348.469 105.467C353.076 108.303 357.409 111.994 360.918 116.081C364.732 120.503 367.051 125.993 370.956 130.324C371.475 130.904 372.451 130.721 372.909 130.202C374.953 128.006 376.235 125.2 376.57 122.242C377.608 118.429 377.455 114.129 376.906 110.469L376.997 110.469ZM322.23 79.0237C320.979 80.2742 319.819 81.1282 318.446 82.2872C317.5 83.0801 316.371 83.6291 315.395 84.3611C314.51 84.5136 313.625 84.6966 312.741 84.9101C313.992 83.7206 315.09 82.4092 316.036 81.3722C317.653 79.5727 319.362 77.7427 321.284 76.2482C322.352 75.4248 324.884 73.4118 326.043 73.1068C326.074 73.1068 329.095 74.9368 329.735 75.3943C327.203 75.9127 323.633 77.5597 322.169 79.0237L322.23 79.0237ZM374.739 124.651C374.16 127 373.214 128.708 371.81 129.348C370.315 127.122 368.485 124.438 367.112 122.12C365.556 119.497 363.176 116.264 361.131 113.976C357.348 109.706 351.917 105.558 347.035 102.6C342.275 99.7329 337.638 98.3299 332.085 97.72C329.949 97.476 326.654 97.6285 324.396 97.842C328.851 95.1885 334.892 89.9731 339.835 88.8141C342.306 89.4851 346.15 91.498 348.53 92.7485C351.764 94.4565 354.602 96.8965 357.134 99.4889C362.169 104.674 364.976 111.414 369.766 116.721C369.766 116.721 369.827 116.721 369.797 116.721C368.82 113.244 366.868 110.225 364.945 107.205C362.81 103.85 360.064 100.709 357.409 97.7505C355.09 95.1275 346.974 89.4241 341.635 88.1431C342.764 87.4416 349.476 87.4111 350.33 87.5026C356.585 88.1431 364.03 90.7051 368.18 95.4935C372.39 100.343 375.136 107.083 375.563 113.336C375.777 116.63 375.38 121.327 374.678 124.651L374.739 124.651Z" fill="#E9BE92"/>
<path d="M348.164 292.49C348.927 289.379 348.53 286.238 347.645 283.188C345.693 276.448 340.323 271.964 335.624 267.084C332.969 264.339 330.803 261.137 328.362 258.209C325.952 255.342 323.297 252.749 320.368 250.37C309.048 241.129 295.746 233.413 281.68 229.295C268.468 225.422 254.677 226.703 242.076 232.101C233.716 235.67 225.997 241.373 219.589 247.778C213.884 253.451 208.88 260.466 206.378 268.182C205.28 270.104 204.486 272.178 204.09 274.496C203.357 278.888 204.334 283.127 206.744 286.512C208.514 290.294 211.595 293.466 215.562 294.656C216.355 294.9 217.515 294.198 217.026 293.253C216.111 291.545 216.294 289.257 216.172 287.366C216.02 285.14 216.111 282.913 216.325 280.718C216.752 276.417 218.186 272.178 220.566 268.579C222.915 265.01 226.515 262.814 230.421 261.32C233.045 260.313 235.76 260.008 238.537 260.222C239.422 260.283 240.276 260.435 241.13 260.527C246.622 262.418 251.931 265.376 256.752 268.121C270.33 275.807 283.755 283.859 299.987 281.846C306.425 281.053 312.679 279.01 318.965 277.515C325.158 276.021 332.207 274.221 337.515 278.827C339.285 280.382 340.597 282.486 341.39 284.835C341.299 284.987 341.268 285.17 341.299 285.353C341.39 286.268 341.451 289.41 342.001 292.124C342.275 292.124 342.55 292.277 342.672 292.582C343.069 293.619 343.557 294.625 344.014 295.662C344.106 295.876 344.106 296.089 344.045 296.272C344.411 296.486 344.808 296.577 345.296 296.516C347.157 296.211 347.859 294.137 348.255 292.551L348.164 292.49Z" fill="#FBE6D1"/>
<path d="M347.645 283.158C345.693 276.417 340.323 271.934 335.624 267.054C332.969 264.309 330.803 261.107 328.362 258.179C325.952 255.312 323.297 252.719 320.368 250.34C309.049 241.068 295.746 233.382 281.68 229.265C268.469 225.391 254.677 226.672 242.076 232.071C233.716 235.639 225.997 241.343 219.589 247.748C213.853 253.451 208.85 260.497 206.348 268.243C205.28 270.134 204.486 272.208 204.09 274.465C203.327 278.888 204.364 283.188 206.836 286.604C208.636 290.325 211.626 293.467 215.531 294.656C216.325 294.9 218.4 296.273 217.911 295.327C216.996 293.619 216.264 289.258 216.111 287.367C215.959 285.14 216.05 282.914 216.264 280.718C216.691 276.417 218.125 272.178 220.505 268.579C222.854 265.01 226.455 262.814 230.36 261.32C232.984 260.314 235.699 260.009 238.476 260.222C239.33 260.283 240.154 260.405 240.978 260.497C246.5 262.388 251.84 265.346 256.691 268.091C270.269 275.777 283.694 283.829 299.926 281.816C306.364 281.023 312.618 278.979 318.904 277.485C325.097 275.99 332.237 274.069 337.454 278.796C340.628 281.663 341.207 285.201 341.238 285.354C341.421 287.123 341.421 297.127 345.235 296.517C347.096 296.212 347.798 294.138 348.194 292.552C348.957 289.441 348.561 286.299 347.676 283.249L347.645 283.158ZM278.171 230.088C290.284 232.803 301.329 238.628 311.55 245.826C314.235 248.449 315.944 253.238 317.592 256.745C318.629 258.941 319.544 261.168 320.643 263.333C316.402 260.771 312.008 258.484 307.553 256.349C302 253.695 296.234 251.469 290.376 249.578C288.118 248.114 286.165 246.802 284.487 244.393C282.687 241.8 281.375 240.184 279.544 237.591C278.171 235.609 271.886 229.936 269.903 228.502C270.909 228.655 277.134 229.936 278.141 230.18L278.171 230.088ZM236.645 236.036C243.175 232.559 248.758 230.546 255.898 229.448C262.519 230.119 268.896 235.456 274.022 240.062C274.327 240.336 274.693 239.909 274.51 239.604C272.496 236.402 264.716 231.003 259.437 229.051C260.78 228.777 265.723 228.197 267.004 228.228C272.221 230.332 277.561 236.341 280.795 241.068C282.016 242.837 283.602 245.796 285.616 247.961C282.809 247.138 279.971 246.406 277.134 245.735C268.621 243.752 259.956 242.715 251.199 243.051C250.436 243.051 249.674 243.112 248.911 243.173C247.172 242.532 245.433 241.922 243.754 241.16C241.863 240.275 238.72 239.726 236.676 239.269C235.791 239.055 232.801 238.964 231.947 238.933C232.282 238.75 236.31 236.158 236.676 235.975L236.645 236.036ZM231.367 259.429C225.539 261.137 221.939 264.675 220.2 266.962C217.454 270.592 216.081 275.197 215.348 279.65C214.952 282.06 214.952 284.286 215.074 286.696C215.226 289.746 216.63 293.314 216.843 294.412C214.952 293.131 211.229 291.088 208.361 286.787C206.104 282.426 204.364 277.668 206.012 272.879C207.66 268.152 212.633 258.88 224.624 256.776C224.471 256.928 231.855 256.105 231.184 256.349C219.376 260.344 214.738 266.169 214.036 267.084C210.528 271.537 208.148 278.278 211.199 283.646L211.26 283.646C210.314 280.108 210.223 278.369 210.894 275.35C211.626 272.117 213.121 269.006 215.562 266.901C222.885 260.649 228.621 257.843 232.648 257.386C234.296 257.203 238.629 258.514 238.629 258.514C238.629 258.514 234.937 258.331 231.367 259.46L231.367 259.429ZM345.815 294.839C345.326 295.419 343.923 295.388 343.679 294.626C342.855 292.186 343.282 290.569 342.824 287.763C342.733 286.391 342.428 285.415 342.062 283.951C340.841 278.735 336.234 275.716 331.047 274.465C324.945 273.001 316.249 276.814 310.269 278.156C303.862 279.559 298.309 280.84 291.718 280.443C290.864 280.382 285.799 279.315 284.395 278.857C285.768 278.125 290.04 276.143 292.328 274.465C294.952 272.544 298.553 269.494 301.177 267.542C303.801 265.59 305.814 264.553 309.11 263.546L309.11 263.485C304.258 262.845 299.254 268.335 295.563 270.805C293.03 272.483 283.663 278.125 282.473 278.217C267.675 274.801 254.861 263.607 242.29 258.606C237.713 256.288 227.309 252.292 215.165 258.789C213.213 259.826 211.718 261.838 210.161 263.333C211.473 259.002 214.128 255.373 217.21 251.896C221.115 247.504 225.02 243.539 229.994 240.367C232.77 239.879 236.798 240.001 239.849 241.068C241.832 241.77 243.724 242.868 245.677 243.508C239.696 244.179 233.564 245.765 228.987 249.425C228.895 249.486 228.987 249.639 229.078 249.608C244.243 242.471 260.963 243.081 276.768 246.863C286.989 249.303 297.851 253.329 307.34 257.782C311.978 259.978 317.012 262.57 321.375 265.224C323.633 266.596 326.226 268.609 328.362 270.104C330.254 271.446 332.756 273.703 334.983 274.343C335.624 274.526 335.014 273.642 334.464 273.276C329.888 270.226 327.05 266.84 323.084 264.675C322.565 263.577 321.924 262.479 321.497 261.473C320.429 259.033 319.422 256.532 318.293 254.122C317.927 253.36 315.059 248.236 314.663 247.504C314.846 247.656 319.575 251.987 319.758 252.14C325.708 256.867 328.606 261.717 333.976 267.054C335.563 268.609 339.834 273.032 340.231 273.367C345.052 277.515 350.391 289.685 345.815 294.931L345.815 294.839Z" fill="#E9BE92"/>
<path d="M452.237 145.909C448.515 148.197 445.311 150.911 442.168 154.144C437.897 158.536 433.869 163.111 428.621 166.374C417.82 173.084 406.47 178.879 395.578 185.437C384.899 191.903 374.738 199.314 366.256 208.525C357.469 218.071 348.651 229.265 345.387 242.013C344.319 246.1 344.197 250.37 344.136 254.579C344.136 256.623 344.258 258.666 344.258 260.71C344.258 262.174 344.044 263.638 343.83 265.071C342.091 268.182 341.512 272.025 340.962 275.441C340.383 279.101 340.291 282.852 341.145 286.421C340.901 286.482 340.718 286.726 340.657 286.97C341.298 288.281 343.19 290.935 344.136 288.403C344.319 287.946 344.41 287.458 344.502 287C344.502 283.92 344.136 280.839 344.715 277.759C345.142 275.471 345.783 273.275 346.637 271.171C349.567 267.45 352.648 264.553 356.889 262.235C361.496 259.734 366.378 257.782 371.321 256.043C381.664 252.414 391.916 249.12 401.497 243.66C411.657 237.835 420.658 229.875 427.431 220.298C434.449 210.385 439.819 199.466 443.267 187.816C444.701 183.546 445.952 179.215 446.989 174.853C448.972 166.679 450.162 157.835 453.671 150.057C454.037 148.41 454.342 146.763 454.556 145.116C453.763 145.269 452.969 145.604 452.237 145.94L452.237 145.909Z" fill="#FBE6D1"/>
<path d="M453.763 145.147C453.274 145.36 452.786 145.604 452.298 145.879C448.545 148.166 445.341 150.881 442.138 154.144C437.866 158.536 433.839 163.111 428.591 166.375C417.79 173.084 406.531 177.72 395.639 184.278C384.96 190.744 374.281 198.064 365.799 207.274C357.011 216.821 348.621 229.265 345.325 242.013C344.258 246.1 344.136 250.37 344.075 254.579C344.075 256.623 344.197 258.666 344.197 260.71C344.197 262.174 343.983 263.638 343.769 265.071C342.03 268.182 341.451 272.025 340.901 275.441C340.322 279.101 340.596 286.756 340.596 287.061C340.596 288.007 340.962 288.83 341.542 289.501C342.274 290.02 343.159 290.294 343.83 289.593C344.105 289.288 344.258 288.891 344.38 288.464C344.593 284.896 344.013 281.327 344.685 277.759C345.112 275.472 345.753 273.276 346.607 271.171C349.536 267.45 352.618 264.553 356.859 262.235C361.466 259.734 365.982 258.514 370.924 256.775C381.268 253.146 392.374 249.852 401.954 244.392C412.115 238.567 421.909 229.661 428.652 220.084C435.669 210.172 439.758 199.467 443.206 187.816C444.64 183.546 445.891 179.215 446.928 174.853C448.759 167.229 449.918 158.994 452.908 151.613C453.64 149.508 454.891 147.129 454.739 144.964C454.525 144.903 454.251 144.964 453.732 145.177L453.763 145.147ZM434.266 207.701C434.113 207.945 429.72 210.782 428.469 211.392C425.723 212.764 422.641 213.557 419.62 213.923C414.281 214.594 407.629 213.923 402.748 216.363C402.748 216.363 402.748 216.424 402.748 216.394C408.85 215.143 415.135 215.784 421.299 214.808C423.77 214.411 430.025 212.154 432.405 210.965C430.971 213.405 426.394 219.962 424.655 222.28C418.308 230.729 412.542 235.548 403.541 240.946C400.825 241.556 395.364 241.282 392.465 241.099C387.309 240.824 382.214 240.092 377.057 239.94C376.722 239.94 376.722 240.489 377.057 240.519C383.678 241.16 394.571 242.745 401.1 242.349C399.514 243.203 395.181 245.795 393.533 246.527C388.804 246.71 380.23 245.307 375.471 244.88C370.162 244.392 366.5 243.599 361.71 246.314C361.71 246.314 361.71 246.375 361.71 246.344C364.975 245.734 367.965 245.185 371.291 245.368C374.159 245.521 377.027 246.07 379.834 246.527C382.153 246.924 389.536 247.595 391.825 247.656C385.417 250.187 372.694 253.878 366.195 256.287C361.496 258.056 359.33 258.514 355.272 261.503C353.716 262.662 351.458 263.485 350.055 265.01C346.912 267.847 345.386 269.799 344.349 273.855C343.8 275.96 343.342 281.48 343.403 283.645C343.464 285.689 343.495 286.756 343.342 288.8C342.885 289.776 341.176 288.342 341.603 286.604C341.512 282.944 341.329 278.095 341.878 274.496C343.037 267.267 344.654 268.03 345.356 264.095C345.417 263.79 345.295 250.401 345.844 246.619C346.851 239.452 350.207 232.162 353.991 226.032C358.903 218.041 366.561 208.433 373.426 201.876C372.816 203.554 371.657 209.409 371.382 211.3C370.467 217.705 369.399 224.049 367.782 230.332C367.782 230.332 367.812 230.363 367.812 230.332C370.131 225.025 371.657 219.505 372.633 213.801C373.213 210.568 373.976 203.828 375.288 200.717C377.484 198.735 380.474 196.661 382.793 194.861C392.709 187.175 401.344 183.149 412.298 177.08C416.02 175.006 421.726 171.986 425.387 169.821C423.892 172.505 422.519 178.452 421.97 181.655C421.36 185.071 421.268 186.565 419.559 189.646C418.43 191.689 417.271 194.16 414.861 196.539C410.772 200.199 406.562 203.737 402.29 207.152C392.984 214.594 382.915 220.999 373.945 228.838C372.389 230.18 370.772 231.552 369.216 232.925C368.209 233.626 367.324 234.45 366.531 235.395C364.7 237.195 362.991 239.086 361.649 241.16C358.872 245.429 354.753 249.76 353.35 254.701C353.289 254.915 353.228 255.128 353.167 255.342C353.136 255.433 353.289 255.494 353.35 255.403C356.249 250.431 359.178 245.704 362.992 241.373C365.646 238.384 368.606 235.67 371.687 233.077C371.809 233.016 371.962 232.955 372.084 232.894C374.25 231.979 376.539 231.522 378.827 231.125C383.098 230.332 387.339 230.088 391.489 228.746C391.977 228.594 391.794 227.801 391.306 227.862C386.607 228.319 380.658 228.502 375.471 230.027C375.898 229.692 376.325 229.356 376.752 229.021C385.661 222.158 394.998 215.784 403.48 208.372C413.122 203.889 429.476 204.774 438.415 197.789C437.317 200.199 435.425 205.231 434.235 207.579L434.266 207.701ZM446.287 171.986C444.609 178.879 442.626 185.589 440.124 192.269C439.971 192.665 439.544 194.282 438.843 195.837C438.751 195.898 436.402 197.332 436.31 197.393C434.54 198.735 432.588 199.894 430.574 200.778C426.791 202.456 422.611 202.913 418.583 203.584C414.525 204.255 410.101 204.804 406.134 206.238C415.715 197.728 424.533 189.859 432.893 180.099C437.195 175.097 441.375 168.418 444.518 162.623C445.738 160.366 450.681 152.772 451.901 150.484C450.315 155.09 447.447 167.29 446.318 172.017L446.287 171.986ZM448.942 152.345C447.142 155.242 445.647 158.323 444.06 161.342C440.826 167.503 436.859 173.176 432.405 178.544C428.438 183.363 424.136 187.877 419.651 192.208C420.963 189.92 421.878 187.358 422.488 185.162C423.343 182.112 423.007 178.91 424.075 175.89C424.746 173.938 425.814 171.041 426.943 169.211C427.767 168.723 431.093 166.497 431.337 166.344C431.245 166.619 430.757 168.876 430.696 169.15C429.72 172.81 429.231 176.5 428.042 180.13C428.042 180.13 428.042 180.191 428.072 180.13C429.628 178.025 430.116 175.402 430.635 172.871C431.032 170.888 431.916 167.259 432.679 165.551C436.768 162.623 438.507 160.183 441.955 156.523C444.396 153.931 449.003 149.142 452.695 146.855C451.962 147.861 449.582 151.247 448.942 152.314L448.942 152.345Z" fill="#E9BE92"/>
<path d="M447.235 268.578C445.495 265.924 442.81 264.125 439.973 262.844C435.579 260.892 431.094 260.008 427.036 257.263C423.222 254.67 420.141 251.041 417.028 247.686C415.472 246.008 413.794 244.087 411.903 242.501C409.828 239.207 407.143 236.37 403.787 234.327C399.027 231.429 393.291 231.338 387.982 232.314C375.411 234.632 367.814 245.185 363.512 256.47C361.742 261.136 360.186 266.138 359.301 271.201C358.966 272.146 358.63 273.122 358.264 274.098C356.799 278.002 355.091 281.784 353.29 285.536C352.375 287.427 351.643 289.501 350.727 291.453C350.544 291.666 350.422 291.88 350.27 292.093C349.568 293.618 348.714 295.021 347.615 296.302C346.822 297.217 345.815 297.98 345.602 299.078C345.693 299.688 346.059 300.206 346.547 300.572C348.714 300.938 350.575 299.962 351.978 298.315C352.894 297.217 353.687 295.936 354.297 294.625C354.511 294.137 354.663 293.649 354.816 293.13C355.243 292.459 355.609 291.758 355.975 291.087C357.867 287.549 359.698 284.011 362.291 280.93C364.397 278.429 366.746 277.026 370.011 276.874C371.292 276.813 372.848 276.965 374.191 276.63C375.259 276.691 376.296 276.752 377.303 276.721C382.825 276.508 388.073 275.074 393.23 273.244C397.776 271.658 402.2 269.615 406.868 268.364C408.943 267.815 411.14 267.51 413.276 267.937C414.282 268.12 415.015 268.608 415.655 269.249C415.777 270.347 415.869 271.445 415.961 272.482C416.479 278.46 416.479 284.468 417.364 290.416C418.34 296.943 420.141 303.439 423.283 309.264C424.565 311.643 426.09 314.022 427.951 316.035C428.409 316.401 428.897 316.798 429.385 317.133C430.453 317.56 431.43 317.469 431.43 315.974C431.43 315.12 431.43 314.327 431.582 313.565C431.521 312.924 431.521 312.284 431.613 311.643C431.918 309.417 433.047 307.343 434.145 305.421C436.556 301.243 439.79 297.522 442.658 293.649C447.631 286.969 452.452 276.416 447.296 268.486L447.235 268.578Z" fill="#FBE6D1"/>
<path d="M447.234 268.578C445.495 265.924 442.81 264.125 439.972 262.844C435.579 260.892 431.094 260.008 427.036 257.263C423.222 254.67 420.14 251.041 417.028 247.686C415.472 246.008 413.794 244.087 411.902 242.501C409.827 239.207 407.142 236.37 403.786 234.327C399.026 231.429 393.29 231.338 387.981 232.314C375.411 234.632 367.813 245.185 363.511 256.47C361.741 261.136 360.185 266.138 359.301 271.201C358.965 272.146 358.629 273.122 358.263 274.098C356.799 278.002 355.09 281.784 353.29 285.536C352.375 287.427 350.086 292.337 349.812 292.795C349.14 294.076 348.408 295.326 347.462 296.455C347.005 297.004 345.845 298.132 345.418 299.169C345.418 299.626 345.509 300.084 345.967 300.511C346.028 300.511 346.089 300.511 346.12 300.572C348.225 301.7 350.513 300.145 352.008 298.376C352.924 297.278 353.717 295.997 354.327 294.686C354.541 294.198 355.639 291.819 356.005 291.148C357.897 287.61 359.728 284.072 362.321 280.991C364.426 278.49 366.776 277.087 370.041 276.935C371.322 276.874 376.326 276.813 377.333 276.782C382.855 276.569 388.103 275.135 393.26 273.305C397.806 271.719 402.23 269.676 406.898 268.425C408.973 267.876 411.17 267.571 413.306 267.998C414.312 268.181 415.045 268.669 415.685 269.31C415.807 270.408 415.899 271.506 415.991 272.543C416.509 278.521 416.509 284.529 417.394 290.477C418.37 297.004 420.171 303.5 423.313 309.325C424.595 311.704 426.12 314.083 427.981 316.096C428.439 316.462 428.927 316.859 429.416 317.194C430.087 317.469 430.697 317.469 431.063 317.103C430.758 313.504 431.704 309.813 433.412 306.672C433.473 306.58 433.535 306.519 433.596 306.458C433.779 306.123 433.962 305.818 434.145 305.482C436.555 301.304 439.789 297.583 442.657 293.71C447.631 287.03 452.452 276.477 447.295 268.547L447.234 268.578ZM412.726 266.229C410.987 265.985 409.858 266.107 408.088 266.382C404.061 265.07 399.057 261.289 394.816 261.045C394.572 261.045 394.511 261.441 394.755 261.472C397.623 261.96 399.85 262.753 402.26 264.277C402.749 264.582 406.593 266.595 407.081 266.839C405.556 267.236 401.864 268.517 400.399 269.035C398.63 267.846 395.487 265.741 393.626 264.796C391.49 263.728 388.836 262.295 386.456 262.692C386.456 262.692 386.456 262.722 386.456 262.753C390.056 263.424 391.337 264.338 393.656 265.619C394.846 266.29 398.569 268.7 399.698 269.462C393.351 271.658 386.242 274.129 379.255 275.166C376.356 275.593 371.139 275.837 368.24 276.172C366.105 276.416 363.725 278.124 363.603 278.216C358.416 282.516 356.799 286.573 354.022 292.52C353.687 293.344 352.527 295.631 352.497 295.723C351.49 297.431 350.117 299.444 347.737 300.115C347.188 300.267 345.571 299.657 346.394 298.742C346.76 298.346 347.127 297.644 347.523 297.278C349.873 295.479 352.375 289.958 353.564 287.518C355.121 284.377 358.08 277.728 358.08 277.697C360.796 272.421 361.68 266.534 363.603 260.953C365.738 254.823 368.546 248.753 372.634 243.66C376.906 238.353 383.557 232.802 395.06 233.29C394.877 233.412 390.91 235.821 390.758 235.974C386.425 239.542 385.083 245.398 381.787 249.821C381.787 249.821 381.787 249.882 381.818 249.851C385.876 247.533 386.639 242.074 389.781 238.81C391.429 237.102 395.579 234.266 397.714 233.808C401.193 234.327 403.298 235.211 406.227 237.682C411.505 242.135 413 251.01 414.556 256.287C413 255.616 407.6 253.969 406.227 253.633C401.589 252.474 396.982 252.779 392.375 253.999C381.665 256.866 375.563 265.07 367.295 271.841C367.295 271.841 367.295 271.902 367.295 271.872C376.143 268.212 381.238 259.001 390.514 255.829C394.846 254.335 399.85 254.213 404.335 254.945C406.624 255.311 408.454 255.677 410.56 256.653C411.719 257.202 414.19 257.903 415.136 258.696C415.655 261.746 415.716 264.918 415.716 267.541C414.801 267.022 413.733 266.382 412.573 266.229L412.726 266.229ZM429.721 315.944C427.432 314.48 426.059 310.454 425.724 309.844C423.954 306.672 422.52 303.591 421.452 300.115C420.445 296.79 419.957 293.069 419.56 289.623C419.591 289.592 422.673 285.414 423.496 284.041C424.656 282.12 426.029 280.686 427.707 279.222C430.056 277.209 432.253 274.83 432.741 271.689C432.741 271.689 432.741 271.628 432.711 271.689C431.521 273.214 430.544 274.83 429.171 276.203C427.554 277.789 426.456 278.582 424.778 280.046C423.374 281.266 419.774 287.152 418.92 288.311C418.828 286.908 418.492 280.778 418.401 279.344C417.913 269.462 416.906 254.853 413.306 245.551C416.082 248.692 420.567 253.633 423.862 256.287C425.296 257.446 428.927 259.977 430.483 260.801C432.619 262.6 433.748 263.759 434.663 266.443C435.64 269.31 434.877 274.8 434.297 277.697C433.077 283.584 429.049 289.074 430.636 295.174C430.636 295.204 430.697 295.174 430.697 295.174C430.941 291.422 431.978 287.915 433.138 284.438C433.138 286.329 433.931 288.067 434.724 289.806C435.335 291.117 436.006 292.398 436.372 293.801C436.586 294.655 437.287 297.156 437.226 298.041C436.982 298.376 428.775 307.556 429.721 315.944ZM446.563 283.035C445.922 284.895 442.596 290.782 441.528 292.49C440.735 290.111 439.454 284.163 438.63 282.669L438.569 282.669C438.569 284.621 439.21 286.603 439.606 288.494C439.85 289.653 440.583 292.581 440.461 293.74C439.942 294.472 438.996 296.333 438.477 297.034C438.325 296.211 437.013 292.368 436.708 291.636C435.487 288.83 434.541 286.359 433.412 283.492C434.419 280.503 435.487 277.514 436.189 274.403C437.043 270.682 436.25 265.253 432.924 261.502C433.321 261.624 435.518 262.204 435.914 262.326C439.271 263.393 443.695 265.894 445.77 268.944C449.065 273.763 447.905 279.009 446.532 282.974L446.563 283.035Z" fill="#E9BE92"/>
</g>
<defs>
<clipPath id="clip0_3169_49078">
<rect width="464" height="335" fill="white"/>
</clipPath>
</defs>
</svg>
