<svg width="37" height="44" viewBox="0 0 37 44" fill="none" xmlns="http://www.w3.org/2000/svg">
<path d="M36 1H1M31.8603 43V36.0012C31.8603 30.4969 29.228 25.3033 24.7658 22.0037C29.2355 18.6967 31.8603 13.5105 31.8603 8.00617V1M5.1397 43V36.0012C5.1397 30.4969 7.77202 25.3033 12.2342 22.0037C7.76452 18.6967 5.1397 13.5105 5.1397 8.00617V1M1 43H36M12.4517 15.8335C13.1041 16.7435 13.8541 17.5647 14.694 18.2824L18.5038 21.2565L22.3135 18.2824C23.1534 17.5647 23.9034 16.7435 24.5558 15.8335M27.5106 43L18.5038 34.7287L9.49689 43M18.5038 27.9667V25.7176" stroke="white" stroke-width="1.5" stroke-linecap="round" stroke-linejoin="round"/>
</svg>
