<svg width="25" height="55" viewBox="0 0 25 55" fill="none" xmlns="http://www.w3.org/2000/svg">
<path d="M16.046 34.9538V6.01533C16.046 3.24576 13.8003 1 11.0307 1C8.26113 1 6.01537 3.24576 6.01537 6.01533V34.9538C2.5938 36.9349 0.445562 40.8691 1.12542 45.2408C1.80806 49.6237 5.47483 53.1121 9.88554 53.5997C15.9374 54.2684 21.0614 49.5484 21.0614 43.6331C21.0614 39.9218 19.0413 36.6897 16.046 34.9566V34.9538Z" stroke="white" stroke-width="1.5" stroke-linecap="round" stroke-linejoin="round"/>
<path d="M11.031 48.6459C13.8009 48.6459 16.0463 46.4005 16.0463 43.6306C16.0463 40.8607 13.8009 38.6152 11.031 38.6152C8.26107 38.6152 6.01562 40.8607 6.01562 43.6306C6.01562 46.4005 8.26107 48.6459 11.031 48.6459Z" stroke="white" stroke-width="1.5" stroke-linecap="round" stroke-linejoin="round"/>
<path d="M11.0312 8.52344V38.6154" stroke="white" stroke-width="1.5" stroke-linecap="round" stroke-linejoin="round"/>
<path d="M21.0625 8.52344H23.5702" stroke="white" stroke-width="1.5" stroke-linecap="round" stroke-linejoin="round"/>
<path d="M21.0625 18.5537H23.5702" stroke="white" stroke-width="1.5" stroke-linecap="round" stroke-linejoin="round"/>
<path d="M21.0625 28.585H23.5702" stroke="white" stroke-width="1.5" stroke-linecap="round" stroke-linejoin="round"/>
<path d="M21.0625 13.5381H22.3163" stroke="white" stroke-width="1.5" stroke-linecap="round" stroke-linejoin="round"/>
<path d="M21.0625 23.5693H22.3163" stroke="white" stroke-width="1.5" stroke-linecap="round" stroke-linejoin="round"/>
</svg>
