<svg width="1383" height="1289" viewBox="0 0 1383 1289" fill="none" xmlns="http://www.w3.org/2000/svg">
<path d="M1296.81 1274.42C1296.14 1274.17 1283.29 1269.59 1283.24 1269.54C1070.97 1193.53 868.328 1174.4 689.215 1175.03C505.29 1174.4 296.486 1194.54 77.9614 1275.82C77.9614 1275.82 74.9297 1278.38 74.9297 1282.72C74.9297 1287.07 77.9614 1289 77.9614 1289C237.729 1256.45 516.696 1236.8 689.215 1236.8C840.705 1236.8 1077.23 1251.96 1241.57 1277.7C1243.01 1277.94 1272.65 1282.77 1285.17 1285.09C1289.02 1285.86 1292.82 1286.58 1296.72 1287.36C1296.72 1287.36 1299.89 1285.52 1299.84 1281.22C1299.84 1276.88 1296.81 1274.37 1296.81 1274.37V1274.42Z" fill="#E9BE92"/>
<path d="M1161.2 276.1C1174.24 293.823 1212.26 285.565 1227.8 263.013C1233.24 255.287 1237.13 246.546 1239.59 237.419C1230.93 233.846 1221.59 231.576 1212.21 231.141C1184.92 229.693 1155.28 255.045 1161.15 276.052L1161.2 276.1Z" fill="#E9BE92"/>
<path d="M841.867 461.685C855.678 469.605 878.488 452.944 882.193 433.435C883.541 426.722 883.541 419.769 882.53 413.008C875.745 413.201 868.912 414.408 862.559 416.919C844.08 423.97 831.809 449.468 841.867 461.685Z" fill="#E9BE92"/>
<path d="M720.777 78.3015C738.342 83.372 759.275 58.5505 758.121 35.7571C757.784 27.8857 755.955 20.1591 752.971 12.8672C745.416 14.8954 738.15 18.1309 731.749 22.6703C713.03 35.6122 706.244 67.3877 720.777 78.3015Z" fill="#E9BE92"/>
<path d="M1092.28 913.595C1087.76 928.903 1109.13 947.351 1128.91 946.53C1135.74 946.288 1142.48 944.743 1148.78 942.184C1147.05 935.568 1144.3 929.193 1140.46 923.543C1129.39 907.124 1101.81 900.943 1092.28 913.547V913.595Z" fill="#E9BE92"/>
<path d="M321.753 918.567C306.498 913.979 288.019 935.324 288.789 955.171C288.981 962.029 290.521 968.789 293.024 975.164C299.617 973.473 305.969 970.721 311.599 966.858C328.009 955.799 334.313 928.177 321.753 918.567Z" fill="#E9BE92"/>
<path d="M926.701 593.033C915.633 576.614 888.059 570.433 878.53 583.037C874.007 598.345 895.373 616.793 915.152 615.972C921.985 615.73 928.722 614.185 935.026 611.625C933.294 605.01 930.551 598.635 926.701 592.985V593.033Z" fill="#E9BE92"/>
<path d="M1004.42 920.26C1014.43 937.452 1049.32 933.782 1065.44 915.093C1071.07 908.719 1075.4 901.234 1078.53 893.314C1071.07 889.258 1062.99 886.264 1054.57 885.008C1030.26 881.048 1001.15 900.847 1004.37 920.309L1004.42 920.26Z" fill="#E9BE92"/>
<path d="M213.949 937.877C208.559 945.313 204.613 953.813 202.062 962.65C210.484 966.272 219.531 968.638 228.674 969.169C255.286 970.956 284.593 946.666 279.155 926.045C266.643 908.564 229.444 916.097 213.949 937.828V937.877Z" fill="#E9BE92"/>
<path d="M436.244 302.028C451.306 310.624 476.089 292.515 480.131 271.267C481.575 263.975 481.623 256.393 480.516 249.053C473.106 249.246 465.695 250.55 458.765 253.302C438.65 260.981 425.272 288.748 436.244 302.028Z" fill="#E9BE92"/>
<path d="M511.389 172.045C521.062 158.234 505.807 132.543 485.74 126.7C478.858 124.624 471.544 123.899 464.373 124.334C463.892 131.529 464.518 138.869 466.491 145.823C472.073 166.057 497.626 181.51 511.389 172.094V172.045Z" fill="#E9BE92"/>
<path d="M371.071 507.809C384.642 497.861 378.482 468.596 361.35 456.572C355.48 452.37 348.79 449.328 341.861 447.396C339.07 454.061 337.337 461.159 336.952 468.403C335.749 489.361 354.95 512.251 371.023 507.809H371.071Z" fill="#E9BE92"/>
<path d="M182.908 722.399C203.215 712.934 202.782 673.094 183.533 652.908C176.94 645.906 169.048 640.208 160.482 635.861C155.141 643.829 150.954 652.667 148.644 662.035C141.666 689.078 160.771 724.041 182.956 722.399H182.908Z" fill="#E9BE92"/>
<path d="M210.058 790.493C208.229 771.37 176.179 760.456 154.524 770.259C147.017 773.591 140.232 778.372 134.312 784.022C139.173 790.638 145.092 796.481 151.925 801.021C171.608 814.349 205.101 808.844 210.058 790.493Z" fill="#E9BE92"/>
<path d="M80.7979 634.806C89.8931 612.399 60.4902 581.445 30.606 579.658C20.3078 578.982 9.91326 580.334 0 583.183C1.58805 593.373 4.76414 603.417 9.76889 612.496C24.0132 638.911 64.5325 652.384 80.7979 634.806Z" fill="#E9BE92"/>
<path d="M698.742 286.915C723.044 280.348 730.118 236.258 712.697 210.229C706.778 201.199 699.078 193.376 690.465 186.953C683.006 194.728 676.75 203.71 672.37 213.61C659.474 242.198 673.958 284.501 698.742 286.964V286.915Z" fill="#E9BE92"/>
<path d="M994.686 651.522C1018.65 652.391 1037.47 614.241 1028.9 585.604C1026.01 575.705 1021.2 566.433 1015.19 558.127C1006.24 563.101 997.958 569.524 991.221 577.298C971.443 599.657 972.79 642.298 994.686 651.522Z" fill="#E9BE92"/>
<path d="M914.518 440.529C935.211 447.966 962.208 419.909 962.641 392.48C962.881 383.015 961.245 373.598 958.262 364.664C949.07 366.499 940.071 369.831 932.035 374.709C908.599 388.713 897.916 426.332 914.518 440.529Z" fill="#E9BE92"/>
<path d="M573.961 447.931C565.865 443.091 580.611 451.996 573.961 447.931V447.931Z" fill="#E9BE92"/>
<path d="M640.123 432.763C637.043 410.936 599.651 400.07 575.301 412.481C566.88 416.682 559.277 422.526 552.828 429.335C558.747 436.627 565.869 443.049 573.954 447.927C597.245 462.173 635.358 454.06 640.123 432.763Z" fill="#E9BE92"/>
<path d="M1081.8 402.571C1107.21 418.99 1152.11 389.726 1161.15 353.17C1164.38 340.614 1165.15 327.43 1163.9 314.488C1151 314.102 1137.91 315.744 1125.64 319.8C1089.88 331.294 1063.99 378.377 1081.85 402.571H1081.8Z" fill="#E9BE92"/>
<path d="M672.517 146.254C700.717 128.966 693.402 70.679 661.834 44.3121C651.006 35.1369 638.446 28.1347 625.213 23.209C618.668 35.8129 614.048 49.4793 612.22 63.5802C606.493 104.386 640.371 152.387 672.565 146.303L672.517 146.254Z" fill="#E9BE92"/>
<path d="M157.368 409.829C146.926 380.951 92.8838 376.943 63.2403 400.847C52.942 409.008 44.28 419.15 37.3984 430.353C47.6004 438.611 59.1017 445.323 71.5174 449.621C107.369 462.37 156.983 440.301 157.416 409.878L157.368 409.829Z" fill="#E9BE92"/>
<path d="M648.796 480.955C655.35 468.324 643.254 491.36 648.796 480.955V480.955Z" fill="#E9BE92"/>
<path d="M677.139 579.422C709.573 572.902 722.615 515.629 701.97 479.991C694.944 467.628 685.56 456.714 674.781 447.539C664.338 457.101 655.339 468.352 648.746 480.956C629.401 517.32 644.8 574.061 677.091 579.422H677.139Z" fill="#E9BE92"/>
<path d="M797.439 686.627C807.111 719.562 867.12 727.868 901.865 703.24C913.896 694.837 924.29 684.116 932.712 672.14C921.932 662.24 909.516 653.934 895.994 648.284C856.87 631.576 799.941 652.727 797.391 686.627H797.439Z" fill="#E9BE92"/>
<path d="M866.738 938.315C888.2 965.069 946.814 949.809 969.576 913.735C977.516 901.373 983.05 887.513 986.322 873.171C972.559 868.149 957.978 865.203 943.301 865.155C900.76 864.672 856.199 905.96 866.689 938.315H866.738Z" fill="#E9BE92"/>
<path d="M1120.35 556.816C1131.52 550.538 1141.43 542.087 1149.8 532.429C1141.24 522.867 1131.18 514.609 1119.92 508.573C1087.34 490.705 1036.09 504.227 1030.99 533.491C1036.62 562.948 1088.06 575.263 1120.35 556.816Z" fill="#E9BE92"/>
<path d="M1160.73 898.616C1157.93 924.549 1197.59 947.873 1229.06 940.823C1239.94 938.456 1250.33 933.965 1259.71 928.074C1255.05 917.981 1248.79 908.516 1240.95 900.596C1218.38 877.465 1172.37 875.581 1160.73 898.616Z" fill="#E9BE92"/>
<path d="M115.118 493.754C95.3879 491.726 75.3689 493.658 56.168 498.535C58.5741 518.238 64.0601 537.699 73.0109 555.422C98.6121 607.093 175.608 635.536 207.899 602.892C226.811 560.492 172.336 499.114 115.07 493.802L115.118 493.754Z" fill="#E9BE92"/>
<path d="M1192.09 380.744C1214.57 404.551 1269.19 385.428 1288.1 349.355C1294.74 336.992 1298.88 323.326 1300.9 309.467C1287.42 305.748 1273.32 304.058 1259.37 305.169C1218.85 308.018 1179.63 350.755 1192.14 380.744H1192.09Z" fill="#E9BE92"/>
<path d="M815.254 367.086C839.749 394.998 902.453 375.537 925.311 335.407C933.299 321.644 938.593 306.336 941.432 290.69C926.321 285.909 910.393 283.446 894.512 284.122C848.507 285.716 802.261 332.558 815.254 367.038V367.086Z" fill="#E9BE92"/>
<path d="M1061.74 737.038C1066.65 771.228 1125.26 788.081 1163.37 768.572C1176.56 761.956 1188.4 752.732 1198.55 742.012C1189.22 730.567 1178.05 720.522 1165.39 712.989C1128.82 690.727 1069.15 703.621 1061.74 737.038Z" fill="#E9BE92"/>
<path d="M749.999 206.703C789.316 216.506 833.636 159.909 829.305 109.59C827.958 92.2533 823.242 75.2066 816.12 59.3672C799.566 64.486 783.733 72.2126 769.874 82.74C729.451 112.874 716.987 183.813 749.999 206.751V206.703Z" fill="#E9BE92"/>
<path d="M311.877 302.565C343.782 277.502 326.699 207.625 284.543 180.002C270.106 170.344 253.793 163.583 236.998 159.479C230.838 175.704 227.133 192.992 226.844 210.426C225.593 260.938 273.571 314.541 311.877 302.565Z" fill="#E9BE92"/>
<path d="M1314.28 539.775C1288.44 574.689 1295.7 636.309 1328.57 646.933C1363.41 645.194 1385.88 587.487 1369.91 547.115C1364.52 533.159 1356.39 520.265 1346.57 509.014C1334.2 517.368 1323.04 527.702 1314.23 539.823L1314.28 539.775Z" fill="#E9BE92"/>
<path d="M1023.08 217.036C1057.63 217.616 1083.66 162.129 1070.53 121.13C1066.1 106.981 1058.93 93.701 1049.98 81.918C1037.23 89.3548 1025.48 98.8198 1016 110.216C988.189 143.006 991.268 204.336 1023.08 217.036Z" fill="#E9BE92"/>
<path d="M558.089 388.626C590.572 376.794 595.143 315.61 568.291 282.048C559.148 270.409 547.694 260.606 535.182 252.783C525.895 264.325 518.34 277.315 513.527 291.368C499.187 331.98 523.922 388.143 558.137 388.626H558.089Z" fill="#E9BE92"/>
<path d="M132.48 737.673C138.591 706.863 93.5005 674.557 54.9542 679.724C41.6724 681.366 28.7274 685.663 16.793 691.748C21.3165 704.4 27.8612 716.377 36.427 726.711C61.0658 756.941 116.07 764.088 132.48 737.673Z" fill="#E9BE92"/>
<path d="M237.294 392.87C224.782 384.902 210.778 379.494 196.39 376.307C191.433 390.263 188.594 405.088 188.69 419.913C188.594 462.989 230.508 507.755 262.943 496.841C289.651 474.869 273.771 415.664 237.342 392.919L237.294 392.87Z" fill="#E9BE92"/>
<path d="M916.444 135.045C941.468 143.834 973.806 109.692 974.095 76.613C974.287 65.2163 972.266 53.8197 968.561 43.0508C957.444 45.3687 946.665 49.4252 936.992 55.4133C908.792 72.5566 896.329 118.047 916.444 134.997V135.045Z" fill="#E9BE92"/>
<path d="M1255.96 550.059C1276.08 557.157 1302.06 529.68 1302.3 503.12C1302.45 493.944 1300.81 484.817 1297.87 476.125C1288.97 478.008 1280.26 481.244 1272.51 486.073C1249.85 499.836 1239.84 536.392 1256.01 550.059H1255.96Z" fill="#E9BE92"/>
<path d="M1316.49 823.187C1287.18 832.025 1265.43 869.933 1279.58 889.877C1300.03 903.64 1336.99 880.509 1344.93 850.858C1347.77 840.669 1348.54 829.948 1347.72 819.421C1337.23 818.938 1326.55 820.049 1316.49 823.187Z" fill="#E9BE92"/>
<path d="M1291.29 726.171C1302.46 722.549 1312.85 716.706 1322.05 709.51C1316.08 699.417 1308.52 690.194 1299.43 682.757C1273.35 660.929 1224.93 663.924 1215.16 689.276C1214.97 716.706 1259 736.939 1291.25 726.171H1291.29Z" fill="#E9BE92"/>
<path d="M1220.23 660.647C1242.71 659.005 1256.33 621.386 1245.4 595.551C1241.7 586.617 1236.26 578.456 1229.76 571.309C1221.92 576.91 1214.85 583.719 1209.36 591.687C1193.19 614.626 1198.82 654.272 1220.23 660.647Z" fill="#E9BE92"/>
<path d="M978.202 267.99C997.162 252.488 985.998 210.572 960.252 194.394C951.446 188.744 941.533 184.881 931.331 182.611C927.818 192.463 925.796 202.942 925.845 213.469C925.7 243.941 955.296 275.668 978.25 267.99H978.202Z" fill="#E9BE92"/>
<path d="M394.223 268.856C414.867 259.294 414.434 218.923 394.944 198.448C388.304 191.301 380.267 185.554 371.605 181.111C366.167 189.176 361.932 198.158 359.574 207.623C352.452 235.052 371.797 270.498 394.223 268.856Z" fill="#E9BE92"/>
<path d="M260.251 588.547C284.12 597.626 316.074 565.56 317.132 533.737C317.614 522.775 315.881 511.764 312.609 501.285C301.877 503.265 291.387 506.887 281.955 512.44C254.429 528.28 241.291 571.742 260.251 588.547Z" fill="#E9BE92"/>
<path d="M169.834 349.498C185.378 332.886 169.93 295.605 144.233 283.919C135.426 279.814 125.802 277.496 116.129 276.627C114.108 286.14 113.531 296.04 114.878 305.746C118.487 333.852 149.671 359.446 169.882 349.498H169.834Z" fill="#E9BE92"/>
<path d="M435.657 355.488C444.367 331.922 412.799 300.726 381.712 299.905C370.98 299.518 360.249 301.257 350.047 304.541C352.068 315.116 355.677 325.402 361.163 334.626C376.803 361.621 419.344 374.225 435.657 355.439V355.488Z" fill="#E9BE92"/>
<path d="M484.158 575.453C501.145 551.936 475.592 507.363 441.233 496.787C429.443 493.021 416.931 491.62 404.563 492.151C403.553 504.514 404.419 517.118 407.643 529.142C416.738 564.057 460.241 591.293 484.158 575.502V575.453Z" fill="#E9BE92"/>
<path d="M120.258 871.049C107.89 870.469 95.4268 872.353 83.6367 876.023C85.8022 888.24 89.8926 900.216 96.1005 910.937C113.858 942.326 162.847 957.441 181.903 935.952C192.249 908.861 156.206 872.353 120.258 871V871.049Z" fill="#E9BE92"/>
<path d="M434.029 94.6251C436.772 73.3288 404.53 53.4812 378.496 58.7932C369.497 60.5317 360.883 64.057 353.039 68.7895C356.745 77.1921 361.701 85.0635 368.053 91.6794C386.244 111.092 424.068 113.41 434.029 94.6251Z" fill="#E9BE92"/>
<path d="M519.348 94.8168C534.362 75.5487 514.247 37.254 485.614 27.2577C475.797 23.7325 465.306 22.1872 454.863 22.2355C453.612 32.618 453.949 43.242 456.307 53.4314C462.9 83.0821 498.655 107.372 519.299 94.7685L519.348 94.8168Z" fill="#E9BE92"/>
<path d="M1375.2 711.785C1255.62 811.747 1183 818.363 1162.45 822.227L941.521 772.825C941.521 772.825 1099.41 681.748 1139.45 660.935L1193.68 543.926C1197.49 536.151 1201.09 531.032 1198.21 527.41C1194.31 522.581 1193.3 520.408 1193.3 520.408C1176.12 525.961 1110.91 634.519 1110.91 634.519C1110.91 634.519 772.803 791.707 772.803 786.443C772.707 767.996 762.938 692.131 770.06 675.857C780.455 652.242 783.92 632.636 801.436 614.092C836.662 576.763 857.066 565.415 904.659 545.036C952.926 524.32 1004.37 490.999 1055.76 480.133C1111.25 468.447 1168.42 462.7 1240.65 448.841C1292.09 438.941 1348.11 418.804 1325.54 394.948C1302.78 409.29 1279.63 417.935 1251.33 422.715C1235.31 425.42 1146.28 438.651 1107.69 438.12C1097.63 437.975 1047.68 441.018 1039.64 434.015C1031.56 426.917 1029.01 369.064 1030.64 357.522C1033.05 340.283 1039.26 318.697 1058.27 301.119C1084.59 276.732 1108.8 250.799 1135.12 226.412C1159.13 204.199 1184.64 188.939 1169.14 172.616C1169.14 172.616 1015.82 296.724 1003.6 322.318C991.809 346.947 983.58 394.32 983.677 421.701C983.773 453.863 956.247 463.135 919.096 477.477C904.226 483.224 837.576 512.488 824.92 499.112C819.915 493.8 778.193 401.902 773.573 364.38C773.525 363.945 773.477 363.511 773.477 363.076C772.803 359.02 772.081 353.321 773.477 344.677C774.872 336.033 779.252 321.353 780.022 320.097C783.15 314.882 809.858 287.694 812.119 285.81C815.873 281.947 819.675 278.229 823.332 274.752C832.427 266.156 840.849 258.912 846.72 253.649C890.319 214.629 884.063 219.748 885.458 172.954C885.94 156.246 873.765 58.6013 843.062 81.5878C866.257 126.064 873.957 186.331 834.93 225.736C809.858 251.041 780.743 268.232 755.864 293.682C751.485 298.173 746.913 302.809 743.593 307.59C739.647 313.288 733.439 344.242 727.52 364.332C709.811 349.651 660.677 307.348 648.791 277.842C644.027 265.963 544.365 6.20561 544.365 6.20561C536.232 -4.4184 521.17 0.555567 522.758 6.64023C529.543 32.5242 575.404 159.433 571.121 183.627C571.121 183.627 502.45 197.486 477.378 188.89C461.979 183.627 388.881 132.583 374.781 119.303C354.954 139.585 377.043 143.449 393.116 158.564C413.664 177.832 471.363 212.601 471.363 212.601C484.067 218.879 569.533 218.734 583.056 227.185C591.573 232.545 621.073 323.477 646.529 355.687C672.804 388.96 717.077 427.303 733.728 456.471C743.063 472.841 750.667 531.032 742.823 547.258C733.054 567.54 713.131 588.064 695.374 602.309C681.755 613.272 666.404 618.825 646.866 606.269C637.338 600.136 628.339 580.047 621.794 570.775C601.294 541.753 502.402 405.041 491.43 399.68C477.523 392.871 340.662 378.964 332.289 375.004C309.575 364.332 221.27 285.521 201.395 269.874C174.446 248.626 173.917 238.099 145.813 258.236C166.939 276.828 302.645 404.027 324.06 412.188C361.403 426.385 443.356 434.498 461.017 451.255C470.352 460.141 503.653 510.315 512.556 529.825C532.768 574.156 540.66 587.629 560.534 632.105C595.183 709.419 605.77 756.116 601.246 841.639C588.542 840.529 563.759 840.529 532.479 841.06V649.876L382.481 564.111L232.482 649.876V844.489C192.492 840.336 96.199 813.824 39.4624 779.103C39.4624 779.103 34.602 788.713 38.6925 797.936C38.6925 797.936 166.699 870.952 199.807 879.403C263.377 891.766 453.317 906.398 489.072 908.957C509.957 910.454 588.638 914.897 600.235 932.089C617.078 956.958 609.283 1031.47 607.213 1061.94C604.807 1097.82 576.944 1183.78 556.059 1209.71H860.723C792.726 1102.6 795.806 933.73 795.95 926.728C805.43 856.03 931.512 831.643 943.398 833.092C943.398 833.092 1146.96 867.137 1169.14 863.467C1169.14 863.467 1295.94 832.174 1383 727.818C1383 727.818 1379.97 714.827 1375.2 711.737V711.785ZM466.743 842.557C437.485 843.33 406.398 844.199 376.177 844.875V692.952H466.743V842.557Z" fill="#E9BE92"/>
<path d="M517.855 951.217L518.192 938.226L496.729 937.647L502.6 838.264L489.655 837.25L481.715 937.261L419.54 935.57L425.941 855.311L411.793 849.757L405.344 935.184L381.283 934.556L380.946 947.547L404.382 948.174L400.869 994.968L379.695 993.278L378.684 1006.27L399.906 1007.96L397.26 1043.31L378.444 1040.55L376.567 1053.45L396.249 1056.3L392.977 1099.81L365.354 1097.59L364.344 1110.58L392.062 1112.8L389.079 1152.2L370.07 1151.58L369.637 1164.57L388.068 1165.15L383.112 1231.01L396.057 1232.03L401.35 1165.58L463.476 1167.56L457.894 1237.63L479.597 1228.26L483.159 1168.19L506.498 1168.96L506.931 1155.97L483.929 1155.25L485.998 1120.33L500.82 1121.54L501.83 1108.55L486.72 1107.34L488.933 1069.82L512.08 1073.2L513.957 1060.31L489.751 1056.78L492.206 1015.4L515.208 1017.23L516.219 1004.24L492.976 1002.36L496.007 950.685L517.855 951.265V951.217ZM464.487 1154.52L402.361 1152.54L405.441 1113.76L467.326 1118.74L464.487 1154.52ZM468.385 1105.75L406.499 1100.77L409.868 1058.18L471.417 1067.12L468.337 1105.75H468.385ZM472.475 1054.12L410.927 1045.19L413.814 1008.97L475.7 1013.95L472.523 1054.12H472.475ZM476.71 1000.96L414.824 995.982L418.626 948.464L480.801 950.154L476.758 1000.96H476.71Z" fill="#E9BE92"/>
</svg>
