<svg width="184" height="43" viewBox="0 0 184 43" fill="none" xmlns="http://www.w3.org/2000/svg">
<path d="M182.874 23.7007C182.25 23.7007 181.742 24.2049 181.742 24.8235C181.742 25.4421 182.247 25.9396 182.868 25.9396C183.488 25.9396 184 25.4355 184 24.8169C184 24.1983 183.495 23.6991 182.874 23.6991M182.868 25.797C182.326 25.797 181.886 25.3608 181.886 24.8219C181.886 24.2829 182.329 23.8417 182.874 23.8417C183.42 23.8417 183.858 24.2795 183.858 24.8169C183.858 25.3542 183.413 25.797 182.869 25.797" fill="#231F20"/>
<path d="M183.383 24.5565C183.383 24.3509 183.209 24.2149 182.95 24.2149H182.428V25.3675H182.6V24.9214H182.894L183.244 25.3592L183.249 25.3675H183.473L183.093 24.8932C183.277 24.8484 183.383 24.7273 183.383 24.5582M182.598 24.7588V24.3807H182.941C183.105 24.3807 183.202 24.4487 183.202 24.5631C183.202 24.7074 183.058 24.7588 182.926 24.7588H182.598Z" fill="#231F20"/>
<path d="M25.2161 38.4476L23.7692 41.8059L25.3968 42.7048L26.5075 39.9617H32.8654L33.9778 42.7048L35.5953 41.7943L34.1551 38.4476H25.2161ZM174.251 35.4359C175.048 36.0777 175.518 36.693 175.518 37.358C175.518 38.4675 174.648 39.0098 173.457 39.0098C172.587 39.0098 171.866 38.8854 171.271 38.6864C170.929 38.567 170.612 38.4443 170.295 38.2784L171 40.2901C171.816 40.519 172.853 40.7329 173.989 40.7777C176.346 40.7777 177.702 39.6234 177.702 37.6068C177.702 35.736 176.336 34.5469 175.014 33.3943C173.649 32.2052 172.241 30.978 172.241 29.0111C172.241 26.4969 174.096 24.996 177.205 24.996C177.535 24.991 178.097 25.0026 178.721 25.0839L179.529 23.7041C178.831 23.4852 177.675 23.3641 176.787 23.3641C172.067 23.3641 170.128 26.1486 170.128 29.031C170.128 31.1505 171.247 32.653 172.316 33.7127C172.84 34.2302 173.484 34.8206 174.253 35.4359M20.7032 42.7048L23.1503 41.7429L29.5485 26.8717L29.694 26.5267L36.2293 41.7562L38.6698 42.7048L29.689 22.5664L20.7048 42.7048H20.7032ZM151.046 23.2414C145.131 23.2414 140.683 27.5765 140.683 33.119C140.683 38.6615 145.104 43 150.872 43C156.639 43 161.035 38.6632 161.035 32.9963V32.9714C161.035 27.4521 156.862 23.2397 151.046 23.2397M150.87 41.1774C146.213 41.1774 142.57 37.6399 142.57 33.1223C142.57 28.6048 146.197 25.0673 151.007 25.0673C155.818 25.0673 159.152 28.4804 159.152 33.0062C159.152 37.5321 155.591 41.1774 150.87 41.1774ZM151.007 25.6594C146.536 25.6594 143.167 28.8668 143.167 33.1223C143.167 37.3779 146.551 40.5853 150.87 40.5853C155.189 40.5853 158.551 37.3364 158.551 33.0261C158.551 28.7159 155.378 25.661 151.007 25.661M156.34 33.119C156.34 36.3215 154.226 38.8357 150.947 38.8357C147.669 38.8357 145.38 36.348 145.38 33.1456C145.38 29.9431 147.692 27.4538 150.947 27.4538C154.202 27.4538 156.34 29.9415 156.34 33.0958V33.119ZM177.955 32.6016C176.911 31.6414 176.066 30.9763 175.643 30.5086C175.222 30.041 174.946 29.6463 174.946 29.0061C174.946 27.9464 175.891 27.3311 177.209 27.3311C177.681 27.3311 178.055 27.3792 178.401 27.4538C178.721 27.5268 179.111 27.6478 179.36 27.7457L178.632 25.666C177.983 25.5798 177.433 25.5814 177.237 25.5864C174.482 25.5864 172.84 26.865 172.84 29.0094C172.84 30.7077 174.086 31.7972 175.407 32.9482C176.829 34.1871 178.299 35.4674 178.299 37.6068C178.299 39.9634 176.685 41.3714 173.979 41.3714C172.838 41.325 171.794 41.1177 170.97 40.8938L170.12 42.3416C171.067 42.7811 172.644 43 173.979 43C177.754 43 180.487 40.8308 180.487 37.6283V37.6034C180.487 35.4342 179.494 34.0312 177.955 32.6016ZM11.5819 27.3062C12.2292 27.3062 12.8498 27.3559 13.3449 27.4289C13.7447 27.5035 14.0424 27.5516 14.3402 27.6263L13.6577 25.6826C12.3881 25.4604 11.2122 25.4471 10.9512 25.4471C6.01675 25.4471 2.82856 28.4406 2.82856 33.0742C2.82856 37.7079 5.9214 40.8192 10.3491 40.8192C11.8077 40.8009 12.8966 40.6616 13.6778 40.5074L14.3903 38.5371C13.9671 38.6599 13.6175 38.7096 13.2462 38.7842C12.5504 38.8821 11.903 38.9053 11.0834 38.9053C7.28299 38.9053 4.94621 36.542 4.94621 33.0444C4.94621 29.5467 7.50546 27.3029 11.5802 27.3029M13.8082 41.0845C12.3279 41.383 10.8459 41.4112 10.3742 41.4112H10.3625C5.57348 41.4112 2.22972 37.9832 2.22972 33.0726C2.22972 28.1619 5.73406 24.8534 10.9512 24.8534C11.2139 24.8534 12.3998 24.8683 13.6995 25.0872L14.5576 23.5316C14.1612 23.4337 13.5925 23.3608 13.0957 23.311C12.5504 23.2613 12.1288 23.238 11.4815 23.238C4.02622 23.238 0 27.5981 0 33.0444C0 39.1275 4.5481 42.9983 10.6619 42.9983C11.4815 42.9983 12.0536 42.9735 13.0221 42.8491C13.5205 42.7761 14.2381 42.6285 14.5877 42.529C14.5877 42.5224 13.8082 41.0845 13.8082 41.0845ZM163.692 22.4835H163.673C162.931 22.4835 162.169 23.0672 162.169 23.8898C162.169 24.5449 162.579 25.0358 162.979 25.1519C163.049 25.1851 163.168 25.2033 163.168 25.3061C163.171 26.1005 162.345 26.6776 162.223 26.7589L162.872 26.9811L163.155 27.6926C163.218 27.6528 165.222 26.3277 165.177 24.112C165.182 23.2596 164.481 22.4702 163.692 22.4835ZM25.4687 37.8555H33.8992L29.684 28.0575L25.4687 37.8555ZM31.4788 36.3364H27.8908L29.6856 32.0842L31.4788 36.3364ZM96.5038 27.3062L95.7511 25.7141H88.8361V32.6945H95.1288L95.8782 31.0758H90.835V27.3062H96.5038ZM88.8377 40.4858H95.9133L96.6744 38.8605H90.8366V34.8952H95.8799L95.1305 33.2865H88.8377V40.4875V40.4858ZM88.2389 41.0779V25.1204H95.7527L96.5055 23.4852H86.2383V42.7031H96.6744L95.9133 41.0779H88.2389ZM116.627 38.8605H110.892V23.4868L108.894 24.4072V40.4891H115.875L116.627 38.8622V38.8605ZM108.296 24.4072L106.298 23.4885V42.7065H116.638L115.879 41.0845H108.296V24.4072ZM134.789 38.8605H129.055V23.4868L127.056 24.4072V40.4891H134.038L134.789 38.8622V38.8605ZM126.459 24.4072L124.46 23.4885V42.7065H134.801L134.041 41.0845H126.459V24.4072ZM72.2879 34.333C72.85 34.207 73.3384 34.0345 73.7382 33.8222C74.4056 33.4656 74.9643 32.915 75.3574 32.2318C75.7103 31.585 75.8976 30.8155 75.8976 30.0111C75.8976 28.0127 74.7769 26.9662 73.8385 26.4405C73.0524 26.0076 72.1675 25.8318 71.5636 25.7622C70.9113 25.6925 70.1803 25.6793 69.6852 25.6793C69.2285 25.6793 68.3069 25.729 68.3069 25.729V34.5353H70.4563C70.6704 34.5221 71.761 34.4541 72.2879 34.333ZM70.1837 27.3327C70.4831 27.3079 70.7323 27.3079 70.9297 27.3079C71.6255 27.3079 72.2227 27.4803 72.7178 27.8004C73.4153 28.2681 73.862 29.0558 73.862 29.9929V30.0161C73.862 30.5601 73.7616 31.0029 73.5642 31.4208C73.3652 31.8404 73.0406 32.1588 72.7178 32.3827C72.2729 32.6779 71.649 32.8752 70.9799 32.925C70.7808 32.9465 70.3074 32.9465 70.1837 32.9465V27.3311V27.3327ZM75.18 24.5482C74.1112 23.9578 72.8684 23.6609 71.7995 23.5382C70.8795 23.4387 69.8608 23.4172 69.0914 23.4172C67.9723 23.4172 66.4819 23.4885 65.8346 23.5631V42.7065L67.7097 41.8441V25.1585C67.7097 25.1585 69.2235 25.0839 69.6852 25.0839C70.197 25.0839 70.9498 25.0988 71.6305 25.1718C72.2913 25.2481 73.2598 25.4405 74.1329 25.9197C75.6568 26.7755 76.4965 28.2283 76.4965 30.0094C76.4965 30.9116 76.284 31.779 75.8826 32.517C75.431 33.3031 74.7886 33.9333 74.0225 34.3413C73.5793 34.5784 73.039 34.7692 72.4201 34.9085C71.7744 35.0544 70.4864 35.1241 70.473 35.1241H68.3085V41.8408L70.1837 42.7031V36.7891C71.0802 36.7643 72.0019 36.6896 72.87 36.4923C73.6412 36.3198 74.3855 36.0744 75.0329 35.7294C75.9997 35.2103 76.8695 34.3993 77.4917 33.3147C77.9869 32.4026 78.313 31.2699 78.313 29.963C78.313 27.2299 76.8946 25.5035 75.1817 24.5432M52.294 34.328C52.856 34.202 53.3445 34.0295 53.7442 33.8172C54.4117 33.4607 54.9703 32.9101 55.3634 32.2268C55.7164 31.58 55.9037 30.8105 55.9037 30.0061C55.9037 28.0077 54.783 26.9612 53.8446 26.4355C53.0584 26.0027 52.1736 25.8269 51.5697 25.7572C50.9174 25.6876 50.1864 25.6743 49.6913 25.6743C49.2346 25.6743 48.3146 25.724 48.3146 25.724V34.5304H50.4641C50.6782 34.5171 51.7688 34.4491 52.294 34.328ZM50.1897 27.3278C50.4891 27.3029 50.7384 27.3029 50.9358 27.3029C51.6316 27.3029 52.2288 27.4754 52.7239 27.7954C53.4214 28.2631 53.868 29.0509 53.868 29.9879V30.0111C53.868 30.5551 53.7693 30.9979 53.5703 31.4158C53.3712 31.8354 53.0467 32.1538 52.7256 32.3777C52.2806 32.6729 51.6567 32.8703 50.9876 32.92C50.7886 32.9416 50.3152 32.9416 50.1914 32.9416V27.3261L50.1897 27.3278ZM55.1861 24.5432C54.1173 23.9528 52.8744 23.656 51.8056 23.5332C50.8856 23.4337 49.8669 23.4122 49.0975 23.4122C47.9784 23.4122 46.488 23.4835 45.8407 23.5581V42.7015L47.7158 41.8391V25.1535C47.7158 25.1535 49.2296 25.0789 49.6913 25.0789C50.2031 25.0789 50.9558 25.0938 51.6366 25.1668C52.2973 25.2431 53.2658 25.4355 54.139 25.9148C55.6628 26.7705 56.5025 28.2233 56.5025 30.0045C56.5025 30.9067 56.2901 31.774 55.8887 32.512C55.437 33.2981 54.7947 33.9283 54.0286 34.3363C53.5853 34.5735 53.045 34.7642 52.4261 34.9035C51.7805 35.0494 50.4925 35.1191 50.4791 35.1191H48.3146V41.8358L50.1897 42.6982V36.7842C51.0863 36.7593 52.008 36.6847 52.8761 36.4873C53.6472 36.3148 54.3916 36.0694 55.0389 35.7244C56.0057 35.2053 56.8772 34.3944 57.4978 33.3097C57.9929 32.3976 58.3191 31.2649 58.3191 29.958C58.3191 27.2249 56.9006 25.4985 55.1878 24.5383" fill="#231F20"/>
<path d="M84.8651 14.9011C86.2902 15.8182 88.8913 16.3937 91.3351 16.3937C93.7789 16.3937 96.3817 15.8182 97.8051 14.9011C99.2303 13.984 99.4544 12.9342 99.4143 12.304C99.3457 11.6986 98.8222 11.3072 98.2367 11.3736C97.6496 11.4399 97.2297 11.964 97.3 12.5428C97.3686 13.1216 97.2849 13.5246 95.8213 13.9292C94.4296 14.314 93.0898 14.5528 91.3384 14.5528H91.3351C89.5838 14.5528 88.2439 14.3156 86.8522 13.9292C85.3886 13.5229 85.305 13.1216 85.3736 12.5428C85.4421 11.964 85.0223 11.4399 84.4352 11.3736C83.8497 11.3056 83.3245 11.697 83.2576 12.304C83.2158 12.9342 83.4416 13.9856 84.8667 14.9011" fill="#231F20"/>
<path d="M97.7048 1.18081C95.5085 -0.0082908 91.3368 1.56902e-06 91.3368 1.56902e-06C91.3368 1.56902e-06 87.165 -0.00663233 84.9688 1.18081C85.857 5.81946 85.9657 11.8628 85.9557 12.289C85.9858 12.3006 88.09 13.2526 91.3368 13.2526C94.5835 13.2526 96.6895 12.3006 96.7179 12.289C96.7079 11.8628 96.8166 5.81946 97.7048 1.18081Z" fill="#231F20"/>
</svg>
