<svg width="138" height="52" viewBox="0 0 138 52" fill="none" xmlns="http://www.w3.org/2000/svg">
<path d="M9.36963 19.336C12.6816 19.336 15.1536 18.016 16.5216 15.808L16.8576 19H19.8816V9.256L8.76963 9.28L8.79363 12.04L15.7536 12.016C15.0816 14.44 13.2336 15.952 10.0896 15.952C6.60963 15.952 4.56963 13.504 4.56963 9.904C4.56963 6.256 6.75363 3.856 10.2336 3.856C12.7536 3.856 14.6016 4.96 15.2976 6.832H19.7616C18.8016 2.896 15.0576 0.472 10.2576 0.472C4.47363 0.472 0.081625 3.88 0.081625 10.024C0.081625 15.448 3.63363 19.336 9.36963 19.336ZM21.1322 19H25.6923C25.8843 18.352 26.2203 17.368 26.4843 16.6L26.9643 15.16H33.5163L33.9963 16.624C34.2363 17.344 34.5483 18.304 34.7643 19H39.5883L38.6763 16.624L32.5803 0.831999H28.1643C28.0203 1.264 27.8043 1.792 27.6123 2.32L22.1163 16.456C21.8523 17.152 21.3963 18.28 21.1322 19ZM27.9723 12.184L30.2763 5.344L32.5323 12.184H27.9723ZM41.4027 19H45.8667V15.256V11.56H47.2347L51.9867 19H57.0027V18.784L51.2427 10.912C54.0027 10.384 55.6827 8.656 55.6827 5.92C55.6827 2.656 53.2827 0.831999 48.6507 0.831999H41.4027V4.576V15.256V19ZM45.8667 8.632V3.856H47.9547C50.3067 3.856 51.3147 4.576 51.3147 6.136C51.3147 7.792 50.2587 8.632 47.8587 8.632H45.8667ZM58.8871 19H65.6791C72.4951 19 76.6231 15.328 76.6231 9.88C76.6231 4.552 72.4951 0.831999 65.6791 0.831999H58.8871V4.576V15.256V19ZM63.3991 15.688V4.144H65.5111C69.6151 4.144 72.0391 6.352 72.0391 9.928C72.0391 13.48 69.5431 15.688 65.5111 15.688H63.3991ZM79.2543 19H83.7663V15.256V4.576V0.831999H79.2543V4.576V15.256V19ZM99.1928 19H103.585V4.576V0.831999H99.2888V4.576V12.712L91.8968 0.831999H87.4808V4.576V15.256V19H91.8008V15.256V7.072L99.1928 19ZM107.286 19H119.454V15.832C117.582 15.856 115.806 15.856 114.342 15.856H111.798V11.128H112.902C114.438 11.128 115.782 11.128 118.062 11.176V8.128C115.782 8.176 114.438 8.176 112.902 8.176H111.798V3.976H114.294C115.782 3.976 117.102 3.976 119.262 4.048V0.831999H107.286V4.576V15.256V19ZM122.098 19H126.562V15.256V11.56H127.93L132.682 19H137.698V18.784L131.938 10.912C134.698 10.384 136.378 8.656 136.378 5.92C136.378 2.656 133.978 0.831999 129.346 0.831999H122.098V4.576V15.256V19ZM126.562 8.632V3.856H128.65C131.002 3.856 132.01 4.576 132.01 6.136C132.01 7.792 130.954 8.632 128.554 8.632H126.562ZM36.0975 36.072V32.832H23.9535V36.576V47.256V51H28.4655V47.256V43.2H29.4735C30.9375 43.2 32.4015 43.2 34.7535 43.224V40.08C32.4015 40.104 30.7935 40.104 29.3055 40.104H28.4655V36.048H29.8575C32.7615 36.048 34.3215 36.048 36.0975 36.072ZM34.9721 51H39.5321C39.7241 50.352 40.0601 49.368 40.3241 48.6L40.8041 47.16H47.3561L47.8361 48.624C48.0761 49.344 48.3881 50.304 48.6041 51H53.4281L52.5161 48.624L46.4201 32.832H42.0041C41.8601 33.264 41.6441 33.792 41.4521 34.32L35.9561 48.456C35.6921 49.152 35.2361 50.28 34.9721 51ZM41.8121 44.184L44.1161 37.344L46.3721 44.184H41.8121ZM64.8665 51.24H66.1625L71.5145 38.4V47.256V51H75.9305V47.256V36.576V32.832H70.3625L65.5865 44.76L60.7865 32.832H55.2425V36.576V47.256V51H59.4905V47.256V38.424L64.8665 51.24ZM79.641 51H84.153V47.256V36.576V32.832H79.641V36.576V47.256V51ZM87.8675 51H100.132V47.616C98.0435 47.64 96.0995 47.64 94.4435 47.64H92.3795V36.576V32.832H87.8675V36.576V47.256V51ZM99.4338 34.944L104.354 43.104V47.256V51H108.842V47.256V43.056L113.57 34.944L114.77 32.832H110.234C109.922 33.432 109.442 34.44 109.13 35.064L106.682 39.768L104.138 35.064C103.826 34.464 103.298 33.432 102.962 32.832H98.1858C98.5458 33.456 99.0738 34.344 99.4338 34.944Z" fill="#231F20"/>
</svg>
