<svg width="56" height="46" viewBox="0 0 56 46" fill="none" xmlns="http://www.w3.org/2000/svg">
<path d="M43.0062 10.2216H12.6347M43.0062 10.2216L43.0065 3.00018H39.7285L41.4128 10.2218L43.0062 10.2216ZM43.0062 10.2216V33.2394L41.0684 35.875H14.31L12.6347 33.2394V10.2216M12.6347 10.2216V3H15.9128L14.2285 10.2216L12.6347 10.2216ZM12.6347 15.9497H43.0062M10.9863 38.3176V42.1304H14.9888C15.0612 41.1904 15.8671 40.4524 16.8542 40.4524H25.7374V42.1304H30.3647V40.4524H39.248C40.235 40.4524 41.0318 41.1904 41.1133 42.1304H45.1158V38.3176H10.9863ZM10 35.9016H46.0945V38.3175H10V35.9016ZM17.0809 10.2216V5.00308H19.4443L18.2309 10.2216H17.0809ZM38.4424 10.2216V5.00308H36.0789L37.2923 10.2216H38.4424Z" stroke="#151B20" stroke-width="1.5" stroke-linecap="round" stroke-linejoin="round"/>
</svg>
