<svg width="40" height="41" viewBox="0 0 40 41" fill="none" xmlns="http://www.w3.org/2000/svg">
<g clip-path="url(#clip0_3169_107009)">
<path d="M20.501 35.3516H2.51953V39.5183H6.73812C6.81447 38.491 7.66391 37.6845 8.70424 37.6845H18.0672V39.5183H22.9444V37.6845H32.3073C33.3476 37.6845 34.1876 38.491 34.2734 39.5183H38.492V35.3516H20.501Z" stroke="#151B20" stroke-width="1.67134" stroke-linejoin="round"/>
<path d="M39.0436 32.7207H1V35.3609H39.0436V32.7207Z" stroke="#151B20" stroke-width="1.67134" stroke-linejoin="round"/>
<path d="M36.2579 2.09491L29.5769 1.48047H10.9369L4.25586 2.19092V32.7212H10.9369H19.5363H20.9775H29.5769H36.2579V2.09491Z" stroke="#151B20" stroke-width="1.67134" stroke-linejoin="round"/>
<path d="M10.9375 1.47949V32.7202" stroke="#151B20" stroke-width="1.67134" stroke-linecap="round" stroke-linejoin="round"/>
<path d="M29.5762 1.47949V32.7202" stroke="#151B20" stroke-width="1.67134" stroke-linecap="round" stroke-linejoin="round"/>
<path d="M4.25586 15.3438H36.2579" stroke="#151B20" stroke-width="1.67134" stroke-linejoin="round"/>
<path d="M4.25586 20.8154H36.2579" stroke="#151B20" stroke-width="1.67134" stroke-linejoin="round"/>
<path d="M33.8242 6.5207C34.3829 6.5207 34.8359 6.06507 34.8359 5.50303C34.8359 4.94098 34.3829 4.48535 33.8242 4.48535C33.2654 4.48535 32.8125 4.94098 32.8125 5.50303C32.8125 6.06507 33.2654 6.5207 33.8242 6.5207Z" stroke="#151B20" stroke-width="1.67134" stroke-linejoin="round"/>
</g>
<defs>
<clipPath id="clip0_3169_107009">
<rect width="40" height="41" fill="white"/>
</clipPath>
</defs>
</svg>
