<svg width="56" height="47" viewBox="0 0 56 47" fill="none" xmlns="http://www.w3.org/2000/svg">
<path d="M37.5759 4L44.257 4.61444V35.2407H37.5759M37.5759 4H18.9359M37.5759 4V35.2407M18.9359 4L12.2549 4.71045V35.2407H18.9359M18.9359 4V35.2407M18.9359 35.2407H37.5759M12.2549 17.8638H44.257M12.2549 23.3354H44.257M10.5176 37.8711V42.0378H14.7362C14.8125 41.0105 15.662 40.2041 16.7023 40.2041H26.0653V42.0378H30.9424V40.2041H40.3054C41.3457 40.2041 42.1856 41.0105 42.2715 42.0378H46.4901V37.8711H10.5176ZM9 35.2408H47.0436V37.8809H9V35.2408ZM42.8349 8.02305C42.8349 8.58509 42.382 9.04072 41.8232 9.04072C41.2645 9.04072 40.8115 8.58509 40.8115 8.02305C40.8115 7.461 41.2645 7.00537 41.8232 7.00537C42.382 7.00537 42.8349 7.461 42.8349 8.02305Z" stroke="#151B20" stroke-width="1.67134" stroke-linejoin="round"/>
</svg>
