<svg width="73" height="74" viewBox="0 0 73 74" fill="none" xmlns="http://www.w3.org/2000/svg">
<path d="M1 44.7462V51.3538L8.54999 55.6831M1 44.7462L8.54999 49.0754M1 44.7462V20.0662M8.54999 55.6831V49.0754M8.54999 55.6831L16.1 60.0123M8.54999 55.6831L14.3109 52.38M8.54999 49.0754L16.1 53.4046M16.1 53.4046V60.0123M16.1 53.4046L23.65 57.7338M16.1 60.0123L23.65 64.3415M23.65 64.3415V57.7338M23.65 64.3415L29.4108 61.0385M23.65 64.3415L31.2 68.6708M23.65 57.7338L31.2 62.0631M31.2 62.0631V68.6708M31.2 62.0631L38.75 66.3923M31.2 68.6708L38.75 73M38.75 73V66.3923M38.75 73L44.5108 69.6969V63.0892M38.75 66.3923V41.7123M38.75 66.3923L44.5108 63.0892M52.4946 58.5108V65.1185M52.4946 58.5108L58.2554 55.2077M52.4946 58.5108L44.5108 63.0892M52.4946 65.1185L58.2554 61.8154V55.2077M52.4946 65.1185L46.7337 61.8154M58.2554 55.2077L66.2391 50.6292M66.2391 50.6292V57.2369M66.2391 50.6292L72 47.3262M66.2391 57.2369L72 53.9338V47.3262M66.2391 57.2369L60.4783 53.9338M72 47.3262V22.6462M72 22.6462L38.75 41.7123M72 22.6462L34.2516 1L1 20.0662M38.75 41.7123L1 20.0662M5.4984 34.9646L34.1029 51.3662M34.1029 39.0477V63.7277M5.4984 22.6462V47.12M43.3971 39.0477V63.7277M67.5016 37.5446L43.3878 51.3723M67.5016 25.2262V49.7" stroke="white" stroke-width="2" stroke-linecap="round" stroke-linejoin="round"/>
</svg>
