<svg width="67" height="65" viewBox="0 0 67 65" fill="none" xmlns="http://www.w3.org/2000/svg">
<path d="M17.1851 9.01974C17.1851 9.01974 18.8801 9.92717 21.1377 10.0194M27.0666 10.0194H30.031M35.9599 10.0194H39.9125M49.794 9.01974C49.794 9.01974 48.0991 9.92717 45.8414 10.0194M65.6045 54.0036C64.4011 51.8218 63.5085 48.4943 63.6282 46.0065C65.0079 17.2548 53.7467 11.019 53.7467 11.019L54.7348 9.01974L58.6874 4.02154C59.7732 2.45171 59.2438 0.785779 56.7111 1.02262C54.1784 1.25945 48.4071 1.02262 33.9836 1.02262C19.5601 1.02262 12.4773 1.02262 10.268 1.02262C8.05872 1.02262 8.19412 2.45171 9.27988 4.02154L12.2443 9.01974L13.2325 11.019C13.2325 11.019 1.8998 18.0575 3.35097 47.0061C3.47488 49.4835 2.54023 51.8113 1.37467 54.0036C1.22977 54.2782 1.51328 54.6909 1.37467 55.0032C-0.0470967 58.2267 2.78935 61.1457 6.31543 61.0011V61.0011C8.64864 60.9005 10.9161 61.7031 13.2325 62.0007C17.2773 62.5205 24.2602 64 33.9836 64C43.7071 64 49.6998 62.5205 53.7467 62.0007C56.0631 61.7031 58.3305 60.8984 60.6637 61.0011V61.0011C64.2381 61.1499 67.0724 58.2582 65.6045 55.0032C65.4512 54.6637 65.7662 54.2949 65.6045 54.0036V54.0036ZM49.794 26.0136C49.794 26.0136 40.684 27.0133 32.9955 27.0133C25.307 27.0133 17.1851 26.0136 17.1851 26.0136C17.1851 26.0136 13.2084 34.504 14.2206 47.0061C14.2206 47.0061 20.0904 49.9945 32.9955 50.005C33.0144 50.005 32.9787 50.005 32.9955 50.005C33.0123 50.005 33.9668 50.005 33.9836 50.005C46.8888 49.9945 52.7585 47.0061 52.7585 47.0061C53.7708 34.5019 49.794 26.0136 49.794 26.0136V26.0136Z" stroke="white" stroke-width="2" stroke-linecap="round" stroke-linejoin="round"/>
</svg>
