<svg width="56" height="45" viewBox="0 0 56 45" fill="none" xmlns="http://www.w3.org/2000/svg">
<path d="M3.91336 25.391H15.9675M3.91336 25.391V32.2063H15.9675M3.91336 25.391V18.5757M15.9675 25.391V32.2063M15.9675 25.391H28.0217M15.9675 25.391V18.5757M15.9675 32.2063H28.0217V25.391M28.0217 25.391V18.5757M28.0325 25.391H40.0866M28.0325 25.391V32.2063H40.0866M28.0325 25.391V18.5757M40.0866 25.391V32.2063M40.0866 25.391V18.5757M40.0866 25.391H52.1408M40.0866 32.2063H52.1408V25.391M3.91336 18.5757H15.9675M3.91336 18.5757V11.7604H15.9675M15.9675 18.5757H28.0217M15.9675 18.5757V11.7604M28.0217 18.5757V11.7604H15.9675M28.0325 18.5757H40.0866M28.0325 18.5757V11.7604H40.0866M40.0866 18.5757V11.7604M40.0866 18.5757H52.1408M40.0866 11.7604H52.1408V18.5757M52.1408 25.391V18.5757M15.9675 5H3.91336V11.8153H15.9675M15.9675 5V11.8153M15.9675 5H28.0217V11.8153H15.9675M40.0866 5H28.0325V11.8153H40.0866M40.0866 5V11.8153M40.0866 5H52.1408V11.8153H40.0866M2.18051 35.2293V40H6.96751C7.05415 38.8238 8.01805 37.9004 9.19856 37.9004H25.2383V40H30.7726V37.9004H46.8123C47.9928 37.9004 48.9458 38.8238 49.0433 40H53.8303V35.2293H2.18051ZM1 32.2063H55V35.2293H1V32.2063Z" stroke="#151B20" stroke-width="1.5" stroke-linejoin="round"/>
</svg>
