<svg width="56" height="46" viewBox="0 0 56 46" fill="none" xmlns="http://www.w3.org/2000/svg">
<path d="M3.91336 24.1837H19.9747M3.91336 24.1837V34.2756H19.9747M3.91336 24.1837V14.0919M19.9747 24.1837V34.2756M19.9747 24.1837H36.0361M19.9747 24.1837V14.0919M19.9747 34.2756H36.0361V24.1837M36.0361 24.1837V14.0919M36.0253 24.1837H52.0866M36.0253 24.1837V34.2756H52.0866V24.1837M36.0253 24.1837V14.0919M52.0866 24.1837V14.0919M3.91336 14.0919H19.9747M3.91336 14.0919V4H19.9747M19.9747 14.0919H36.0361M19.9747 14.0919V4M36.0361 14.0919V4H19.9747M36.0253 14.0919H52.0866M36.0253 14.0919V4H52.0866V14.0919M2.18051 37.265V42H6.96751C7.05415 40.8326 8.01805 39.9162 9.19856 39.9162H25.2383V42H30.7726V39.9162H46.8123C47.9928 39.9162 48.9458 40.8326 49.0433 42H53.8303V37.265H2.18051ZM1 34.2756H55V37.2759H1V34.2756Z" stroke="#151B20" stroke-width="1.5" stroke-linejoin="round"/>
</svg>
