<svg width="56" height="46" viewBox="0 0 56 46" fill="none" xmlns="http://www.w3.org/2000/svg">
<path d="M14.5736 10.1218V9.47184C14.2146 9.47184 13.9236 9.76285 13.9236 10.1218H14.5736ZM40.4071 10.1218H41.0571C41.0571 9.76285 40.7661 9.47184 40.4071 9.47184V10.1218ZM40.4071 40V40.65C40.7661 40.65 41.0571 40.359 41.0571 40H40.4071ZM14.5736 40H13.9236C13.9236 40.359 14.2146 40.65 14.5736 40.65V40ZM13.7775 5V4.35C13.4185 4.35 13.1275 4.64101 13.1275 5H13.7775ZM41.2033 5H41.8533C41.8533 4.64101 41.5623 4.35 41.2033 4.35V5ZM41.2033 9.9469V10.5969C41.5623 10.5969 41.8533 10.3059 41.8533 9.9469H41.2033ZM13.7775 9.9469H13.1275C13.1275 10.3059 13.4185 10.5969 13.7775 10.5969V9.9469ZM21.3154 6.82722C21.3154 6.46824 21.0243 6.17722 20.6654 6.17722C20.3064 6.17722 20.0154 6.46824 20.0154 6.82722H21.3154ZM20.6654 8.12953H20.0154C20.0154 8.48852 20.3064 8.77953 20.6654 8.77953V8.12953ZM34.3246 8.12953V8.77953C34.6836 8.77953 34.9746 8.48852 34.9746 8.12953H34.3246ZM34.9746 6.82722C34.9746 6.46824 34.6836 6.17722 34.3246 6.17722C33.9656 6.17722 33.6746 6.46824 33.6746 6.82722H34.9746ZM37.1755 6.82722C37.1755 6.46824 36.8844 6.17722 36.5255 6.17722C36.1665 6.17722 35.8755 6.46824 35.8755 6.82722H37.1755ZM36.5255 8.12953H35.8755C35.8755 8.48852 36.1665 8.77953 36.5255 8.77953V8.12953ZM41.2127 8.77953C41.5717 8.77953 41.8627 8.48852 41.8627 8.12953C41.8627 7.77055 41.5717 7.47953 41.2127 7.47953V8.77953ZM19.1148 6.82722C19.1148 6.46824 18.8238 6.17722 18.4648 6.17722C18.1058 6.17722 17.8148 6.46824 17.8148 6.82722H19.1148ZM18.4648 8.12953V8.77953C18.8238 8.77953 19.1148 8.48852 19.1148 8.12953H18.4648ZM13.7775 7.47953C13.4185 7.47953 13.1275 7.77055 13.1275 8.12953C13.1275 8.48852 13.4185 8.77953 13.7775 8.77953V7.47953ZM13 12.4547V11.8047C12.641 11.8047 12.35 12.0957 12.35 12.4547H13ZM13 20.0718H12.35C12.35 20.293 12.4625 20.499 12.6486 20.6186L13 20.0718ZM21.149 25.3091L20.7976 25.8559C20.9024 25.9233 21.0244 25.9591 21.149 25.9591V25.3091ZM42 12.4547H42.65C42.65 12.0957 42.359 11.8047 42 11.8047V12.4547ZM42 20.0718L42.3514 20.6186C42.5375 20.499 42.65 20.293 42.65 20.0718H42ZM33.851 25.3091V25.9591C33.9756 25.9591 34.0976 25.9233 34.2024 25.8559L33.851 25.3091ZM22.7946 23.8285V23.1785C22.4356 23.1785 22.1446 23.4695 22.1446 23.8285H22.7946ZM32.1959 23.8285H32.8459C32.8459 23.4695 32.5549 23.1785 32.1959 23.1785V23.8285ZM32.1959 26.2926V26.9426C32.5549 26.9426 32.8459 26.6516 32.8459 26.2926H32.1959ZM22.7946 26.2926H22.1446C22.1446 26.6516 22.4356 26.9426 22.7946 26.9426V26.2926ZM14.5736 10.7718H40.4071V9.47184H14.5736V10.7718ZM39.7571 10.1218V40H41.0571V10.1218H39.7571ZM40.4071 39.35H14.5736V40.65H40.4071V39.35ZM15.2236 40V10.1218H13.9236V40H15.2236ZM13.7775 5.65H41.2033V4.35H13.7775V5.65ZM40.5533 5V9.9469H41.8533V5H40.5533ZM41.2033 9.2969H13.7775V10.5969H41.2033V9.2969ZM14.4275 9.9469V5H13.1275V9.9469H14.4275ZM20.0154 6.82722V8.12953H21.3154V6.82722H20.0154ZM20.6654 8.77953H34.3246V7.47953H20.6654V8.77953ZM34.9746 8.12953V6.82722H33.6746V8.12953H34.9746ZM35.8755 6.82722V8.12953H37.1755V6.82722H35.8755ZM36.5255 8.77953H41.2127V7.47953H36.5255V8.77953ZM17.8148 6.82722V8.12953H19.1148V6.82722H17.8148ZM18.4648 7.47953H13.7775V8.77953H18.4648V7.47953ZM14.5743 11.8047H13V13.1047H14.5743V11.8047ZM12.35 12.4547V20.0718H13.65V12.4547H12.35ZM12.6486 20.6186L20.7976 25.8559L21.5004 24.7623L13.3514 19.525L12.6486 20.6186ZM21.149 25.9591H23.0812V24.6591H21.149V25.9591ZM40.4167 13.1047H42V11.8047H40.4167V13.1047ZM41.35 12.4547V20.0718H42.65V12.4547H41.35ZM41.6486 19.525L33.4996 24.7623L34.2024 25.8559L42.3514 20.6186L41.6486 19.525ZM33.851 24.6591H31.9099V25.9591H33.851V24.6591ZM22.7946 24.4785H32.1959V23.1785H22.7946V24.4785ZM31.5459 23.8285V26.2926H32.8459V23.8285H31.5459ZM32.1959 25.6426H22.7946V26.9426H32.1959V25.6426ZM23.4446 26.2926V23.8285H22.1446V26.2926H23.4446Z" fill="#151B20"/>
</svg>
