<svg width="56" height="46" viewBox="0 0 56 46" fill="none" xmlns="http://www.w3.org/2000/svg">
<path d="M42.1062 10.7907H12.5644M42.1062 10.7907L39.6388 10.7909L39.6392 13.2098M42.1062 10.7907L42.1057 13.21L39.6392 13.2098M42.1062 10.7907V36.0102H12.5644V10.7907M12.5644 10.7907H15.0313V13.2098M12.5644 10.7907V13.2098L15.0313 13.2098M15.0313 36.0102V13.2098M15.0313 13.2098H39.6392M39.6392 13.2098V36.0102M15.0313 10.9292V5.20971C15.0313 4.54445 14.4762 4.00014 13.7978 4.00014C13.1194 4.00014 12.5644 4.54445 12.5644 5.20971V10.9292M18.326 10.9291V7.20536C18.326 6.77337 17.9648 6.41914 17.5242 6.41914C17.0837 6.41914 16.7225 6.77337 16.7225 7.20536V10.9377M37.9207 10.9291V7.20536C37.9207 6.77337 37.5595 6.41914 37.1189 6.41914C36.6784 6.41914 36.3172 6.77337 36.3172 7.20536V10.9377M42.1057 10.9291V5.20957C42.1057 4.54431 41.5507 4 40.8722 4C40.1938 4 39.6388 4.54431 39.6388 5.20957V10.9291M10.5595 38.3864V42.136H14.4537C14.5242 41.2116 15.3084 40.4858 16.2687 40.4858H24.9119V42.136H29.4141V40.4858H38.0573C39.0176 40.4858 39.793 41.2116 39.8722 42.136H43.7665V38.3864H10.5595ZM10 36.0104H45.1189V38.3864H10V36.0104Z" stroke="#151B20" stroke-width="1.5" stroke-linejoin="round"/>
</svg>
